SplineFontDB: 3.0
FontName: Monovember
FullName: Monovember
FamilyName: Monovember
Weight: Medium
Copyright: Copyright (c) 2011-2012 Guillaume Ayoub\n\nCreated by Guillaume Ayoub with FontForge, released under the SIL Open Font License.
Version: 0.1
ItalicAngle: 0
UnderlinePosition: -100
UnderlineWidth: 50
Ascent: 800
Descent: 200
sfntRevision: 0x0000199a
LayerCount: 2
Layer: 0 0 "Arri+AOgA-re"  1
Layer: 1 0 "Avant"  0
NeedsXUIDChange: 1
XUID: [1021 652 1294743660 12143374]
FSType: 8
OS2Version: 4
OS2_WeightWidthSlopeOnly: 0
OS2_UseTypoMetrics: 1
CreationTime: 1318153583
ModificationTime: 1345496433
PfmFamily: 33
TTFWeight: 500
TTFWidth: 5
LineGap: 180
VLineGap: 0
Panose: 2 11 6 9 0 0 0 0 0 0
OS2TypoAscent: 0
OS2TypoAOffset: 1
OS2TypoDescent: 0
OS2TypoDOffset: 1
OS2TypoLinegap: 180
OS2WinAscent: 0
OS2WinAOffset: 1
OS2WinDescent: 0
OS2WinDOffset: 1
HheadAscent: 0
HheadAOffset: 1
HheadDescent: 0
HheadDOffset: 1
OS2SubXSize: 650
OS2SubYSize: 699
OS2SubXOff: 0
OS2SubYOff: 140
OS2SupXSize: 650
OS2SupYSize: 699
OS2SupXOff: 0
OS2SupYOff: 479
OS2StrikeYSize: 49
OS2StrikeYPos: 258
OS2Vendor: 'PfEd'
OS2CodePages: 00000001.00000000
OS2UnicodeRanges: 00000007.00000000.00000000.00000000
Lookup: 4 0 0 "Latin ligatures"  {"Latin ligatures"  } ['liga' ('DFLT' <'dflt' > 'latn' <'dflt' > ) ]
Lookup: 257 0 0 "Ligatures position"  {"Latin ligatures positions"  } [' RQD' ('DFLT' <'dflt' > 'armn' <'dflt' > 'cyrl' <'dflt' > 'grek' <'dflt' > 'latn' <'dflt' > ) ]
MarkAttachClasses: 1
DEI: 91125
LangName: 1033 "" "" "" "FontForge : Monovember : 10-11-2011" 
Encoding: UnicodeFull
UnicodeInterp: none
NameList: Adobe Glyph List
DisplaySize: -24
AntiAlias: 1
FitToEm: 1
WinInfo: 53 53 15
BeginPrivate: 3
StdHW 4 [60]
StdVW 4 [60]
BlueValues 31 [-190 -190 0 0 500 500 700 700]
EndPrivate
TeXData: 1 0 0 524288 262144 174762 513802 1048576 174762 783286 444596 497025 792723 393216 433062 380633 303038 157286 324010 404750 52429 2506097 1059062 262144
BeginChars: 1114114 672

StartChar: .notdef
Encoding: 1114112 -1 0
Width: 500
Flags: MW
HStem: 0 50<100 400 100 450> 483 50<100 400 100 100>
VStem: 50 50<50 50 50 483> 400 50<50 483 483 483>
LayerCount: 2
Fore
SplineSet
50 0 m 1
 50 533 l 1
 450 533 l 1
 450 0 l 1
 50 0 l 1
100 50 m 1
 400 50 l 1
 400 483 l 1
 100 483 l 1
 100 50 l 1
EndSplineSet
Validated: 1
EndChar

StartChar: period
Encoding: 46 46 2
Width: 500
Flags: W
HStem: 40 60<220 280>
VStem: 220 60<40 100>
LayerCount: 2
Fore
SplineSet
220 100 m 5
 280 100 l 5
 280 40 l 1
 220 40 l 1
 220 100 l 5
EndSplineSet
Validated: 1
EndChar

StartChar: P
Encoding: 80 80 4
Width: 500
Flags: W
HStem: 0 21G<50 110> 230 60<135.3 347.329> 540 60<124.159 359.888>
VStem: 50 60<0 265 308.354 526.166> 390 60<320.034 513.303>
LayerCount: 2
Fore
SplineSet
110 520 m 1
 110 320 l 1
 154 291 199 290 250 290 c 3
 294 290 344 308 390 330 c 1
 390 500 l 1
 347 532 300 540 250 540 c 3
 202 540 151 533 110 520 c 1
110 0 m 5
 50 0 l 1
 50 550 l 1
 98 572 177 600 250 600 c 3
 292 600 426 582 450 550 c 1
 450 285 l 1
 414 260 331 230 250 230 c 3
 194 230 152 240 110 265 c 5
 110 0 l 5
EndSplineSet
Validated: 1
EndChar

StartChar: U
Encoding: 85 85 5
Width: 500
Flags: HMW
HStem: -20 60<138 361.497>
VStem: 50 60<67.8833 580> 390 60<64.8844 580>
LayerCount: 2
Fore
SplineSet
110 109 m 0
 110 44 235 40 270 40 c 3
 303 40 358 52 390 80 c 1
 390 580 l 1
 450 600 l 1
 450 50 l 1
 415 8 326 -20 240 -20 c 3
 146 -20 50 -0 50 130 c 2
 50 580 l 1
 110 600 l 1
 110 109 l 0
EndSplineSet
Validated: 1
EndChar

StartChar: b
Encoding: 98 98 6
Width: 500
Flags: W
HStem: -10 60<111.51 359.717> 440 60<173.472 371.597> 680 20G<50 110>
VStem: 50 60<56.5002 405.085 455 680> 390 60<77.1765 419.688>
LayerCount: 2
Fore
SplineSet
110 60 m 1
 147.094 53.0605 184 50 220 50 c 3
 280 50 338.209 51.3223 390 90 c 1
 390 410 l 1
 355.126 426.739 314 440 280 440 c 3
 217 440 163.403 411.723 110 400 c 1
 110 60 l 1
110 455 m 1
 155.309 475.357 213 500 280 500 c 3
 333 500 393.159 481.61 450 455 c 1
 450 50 l 1
 396.983 1.69629 308 -10 220 -10 c 3
 159 -10 97.668 -4.93066 50 0 c 1
 50 680 l 1
 110 700 l 1
 110 455 l 1
EndSplineSet
Validated: 524289
EndChar

StartChar: c
Encoding: 99 99 7
Width: 500
Flags: W
HStem: -10 60<191.902 380.58> 440 60<181.862 345.524>
VStem: 50 60<139.785 355.126>
LayerCount: 2
Fore
SplineSet
450 40 m 1
 402 13 346.007 -10 270 -10 c 3
 81.9761 -10 50 163.27 50 230 c 6
 50 270 l 6
 50 320.16 87.9722 500 250 500 c 3
 334.752 500 412 455 450 415 c 1
 450 360 l 1
 406 401 305 440 250 440 c 3
 145.995 440 110 319.648 110 270 c 6
 110 230 l 6
 110 169.991 141.965 50 270 50 c 3
 324.009 50 394 73 450 100 c 1
 450 40 l 1
EndSplineSet
Validated: 524289
EndChar

StartChar: d
Encoding: 100 100 8
Width: 500
Flags: W
HStem: -10 60<129.014 389.326> 440 60<148.929 343.158> 680 20G<390 450>
VStem: 50 60<70.7285 410.48> 390 60<57.4007 408.093 455 680>
LayerCount: 2
Fore
SplineSet
390 60 m 1
 390 400 l 1
 341.658 416.386 305 440 250 440 c 3
 214 440 167.775 430.517 110 400 c 1
 110 90 l 2
 110 65.498 192 50 290 50 c 3
 312 50 371.673 58.0049 390 60 c 1
390 680 m 5
 450 700 l 1
 450 -0 l 1
 421.58 -2.94043 332 -10 290 -10 c 3
 161 -10 50 9.7998 50 40 c 2
 50 425 l 1
 86 450 166.696 500 250 500 c 3
 307.352 500 350 479.117 390 455 c 5
 390 680 l 5
EndSplineSet
Validated: 524289
EndChar

StartChar: g
Encoding: 103 103 9
Width: 500
Flags: W
HStem: -190 60<110 327.996> -10 60<129.17 340.553> 440 60<140.645 356.933>
VStem: 50 60<70.9273 413.303> 390 60<-80.7324 25 74.9599 426.166>
LayerCount: 2
Fore
SplineSet
390 420 m 1
 349 433 298 440 250 440 c 3
 200 440 153 432 110 400 c 1
 110 80 l 1
 150 61 192 50 230 50 c 3
 288 50 341 69 390 80 c 1
 390 420 l 1
110 -130 m 7
 364 -130 390 -104 390 25 c 5
 328 11 294 -10 230 -10 c 3
 158 -10 86 10 50 35 c 1
 50 440 l 1
 74 472 158 500 200 500 c 3
 273 500 402 472 450 450 c 1
 450 25 l 5
 450 -160 424 -190 110 -190 c 4
 110 -130 l 7
EndSplineSet
Validated: 1
EndChar

StartChar: h
Encoding: 104 104 10
Width: 500
Flags: W
HStem: 0 21G<50 110 390 450> 440 60<153.97 354.304> 680 20G<50 110>
VStem: 50 60<0 417.503 455 680> 390 60<0 405>
LayerCount: 2
Fore
SplineSet
110 455 m 5
 168 494 231.947 500 270 500 c 3
 326.685 500 403 482 450 405 c 1
 450 0 l 1
 390 0 l 1
 390 370 l 1
 379 413 335 440 270 440 c 3
 221 440 141.688 424.56 110 410 c 1
 110 0 l 1
 50 0 l 1
 50 680 l 1
 110 700 l 5
 110 455 l 5
EndSplineSet
Validated: 524289
EndChar

StartChar: k
Encoding: 107 107 12
Width: 500
Flags: HW
HStem: 0 21G<50 110 390 450.5> 440 60<324.79 390> 680 20G<50 110>
VStem: 50 60<0 230 345 680> 390 60<0 75.2515>
LayerCount: 2
Fore
SplineSet
110 345 m 1
 172 439 340 500 390 500 c 0
 390 440 l 3
 334 440 211 355 150 290 c 1
 334.209 277.056 450.006 155.05 450.006 1.97439 c 0
 450 0 l 1
 390 0 l 17
 390 121 235 217 110 230 c 1
 110 0 l 1
 50 0 l 1
 50 680 l 1
 110 700 l 1
 110 345 l 1
EndSplineSet
Validated: 524289
EndChar

StartChar: l
Encoding: 108 108 13
Width: 500
Flags: W
HStem: -10 40<303.891 448.919> 680 20G<50 260>
VStem: 200 60<79.5163 640>
LayerCount: 2
Fore
SplineSet
50 700 m 1
 260 700 l 1
 260 220 l 2
 260 44.9883 312 30 370 30 c 3
 396 30 424 32 450 40 c 1
 450 10 l 1
 430 -6 403 -10 370 -10 c 3
 295 -10 200 19.9463 200 170 c 2
 200 640 l 1
 50 700 l 1
EndSplineSet
Validated: 1
EndChar

StartChar: n
Encoding: 110 110 14
Width: 500
Flags: W
HStem: 0 21G<50 110 390 450> 440 60<131.227 339.3>
VStem: 50 60<0 419.001> 390 60<0 399.545>
LayerCount: 2
Fore
SplineSet
50 0 m 1
 50 435 l 1
 108 474 167.984 500 250 500 c 3
 339.976 500 428 448 450 385 c 1
 450 0 l 1
 390 0 l 1
 390 360 l 2
 390 413.333 303 440 220 440 c 3
 179 440 128 428 110 400 c 1
 110 0 l 1
 50 0 l 1
EndSplineSet
Validated: 524289
EndChar

StartChar: p
Encoding: 112 112 15
Width: 500
Flags: W
HStem: -190 21G<50 110> -10 60<135.286 347.229> 440 60<124.104 359.978>
VStem: 50 60<-170 25 68.354 426.067> 390 60<79.9504 413.232>
LayerCount: 2
Fore
SplineSet
110 420 m 1
 110 80 l 1
 154 51 199 50 250 50 c 3
 294 50 343.646 67.75 390 90 c 1
 390 400 l 1
 347.437 431.786 300 440 250 440 c 3
 202 440 151.096 432.72 110 420 c 1
110 -170 m 5
 50 -190 l 1
 50 450 l 1
 98 472 176.562 500 250 500 c 3
 292 500 426 482 450 450 c 1
 450 45 l 1
 414 20 330.896 -10 250 -10 c 3
 193.72 -10 152 0 110 25 c 5
 110 -170 l 5
EndSplineSet
Validated: 524289
EndChar

StartChar: q
Encoding: 113 113 16
Width: 500
Flags: W
HStem: -190 21G<390 450> -10 60<129.1 340.409> 440 60<140.555 356.98>
VStem: 50 60<70.8566 413.232> 390 60<-170 25 75.0222 426.067>
LayerCount: 2
Fore
SplineSet
390 420 m 1
 348.904 432.72 298 440 250 440 c 3
 200 440 152.563 431.786 110 400 c 1
 110 80 l 1
 150 60.7998 192 50 230 50 c 3
 288 50 340.8 69.2002 390 80 c 1
 390 420 l 1
390 25 m 1
 327.6 11.3496 293.876 -10 230 -10 c 3
 157.64 -10 86 10 50 35 c 1
 50 440 l 1
 74 472 158 500 200 500 c 3
 273.438 500 402 472 450 450 c 1
 450 -170 l 1
 390 -190 l 1
 390 25 l 1
EndSplineSet
Validated: 524289
EndChar

StartChar: r
Encoding: 114 114 17
Width: 500
Flags: W
HStem: 0 21G<50 110> 450 50<145.92 345.141>
VStem: 50 60<0 427.239>
LayerCount: 2
Fore
SplineSet
450 405 m 1
 390 380 l 1
 368.039 427.151 312 450 268 450 c 3
 226 450 136.203 432.039 110 420 c 1
 110 0 l 1
 50 0 l 1
 50 435 l 1
 108 474 199.259 500 300 500 c 3
 358 500 428 468 450 405 c 1
EndSplineSet
Validated: 1
EndChar

StartChar: u
Encoding: 117 117 18
Width: 500
Flags: W
HStem: -20 60<150.502 345.591> 480 20G<50 110 390 450>
VStem: 50 60<84.9963 480> 390 60<84.9963 480>
LayerCount: 2
Fore
SplineSet
110 180 m 6
 110 44 178 40 250 40 c 3
 324.027 40 390 52 390 180 c 6
 390 480 l 1
 450 500 l 1
 450 180 l 6
 450 40 392 -20 250 -20 c 3
 110 -20 50 40 50 180 c 6
 50 480 l 1
 110 500 l 1
 110 180 l 6
EndSplineSet
Validated: 524289
EndChar

StartChar: y
Encoding: 121 121 19
Width: 500
Flags: W
HStem: -180 40<136.721 326.516> 10 60<135.805 301.401>
VStem: 50 60<95.0421 470> 390 60<274.731 470>
LayerCount: 2
Fore
SplineSet
450 490 m 1
 450 489.938 l 2
 450 -159.365 449.996 -180 230 -180 c 3
 187 -180 142 -172 80 -150 c 1
 80 -100 l 1
 142 -124 193 -140 230 -140 c 3
 384.003 -140 390 -60 390 90 c 1
 361 54 280.4 10 200 10 c 3
 128.592 10 51 39.834 50 115 c 2
 50 470 l 1
 110 490 l 1
 110 140 l 2
 111.356 94.7969 154 70 210 70 c 3
 277 70 370.821 101.917 390 120 c 1
 390 470 l 1
 450 490 l 1
EndSplineSet
Validated: 1
EndChar

StartChar: dotlessi
Encoding: 305 305 21
Width: 500
Flags: W
HStem: -10.5146 41.4628<345.394 448.886> 440 60<226.667 250>
VStem: 250 60<70.0758 440>
LayerCount: 2
Fore
SplineSet
50 500 m 1
 310 500 l 1
 310 190 l 2
 310 41.4209 365.982 30.9482 390.946 30.9482 c 3
 418.004 30.9482 416 33.4336 450 40 c 1
 450 10 l 1
 436 0 416.017 -10.5146 390.104 -10.5146 c 3
 323.968 -10.5146 250 20 250 150 c 2
 250 440 l 1
 50 500 l 1
EndSplineSet
Validated: 524289
EndChar

StartChar: o
Encoding: 111 111 22
Width: 500
Flags: W
HStem: -10 60<158.817 343.308> 440 60<161.769 345.532>
VStem: 50 60<95.8657 386.678> 390 60<93.5562 397.338>
LayerCount: 2
Fore
SplineSet
390 340 m 1
 380 403 348 440 250 440 c 3
 143.925 440 132 393 110 340 c 1
 110 140 l 1
 122 96 153.979 50 250 50 c 3
 354 50 380 96 390 140 c 1
 390 340 l 1
450 135 m 1
 416 68 416.108 -10 250 -10 c 3
 103.986 -10 58 64 50 135 c 1
 50 340 l 1
 54 377 79.9529 500 250 500 c 3
 398.014 500 424 445 450 340 c 1
 450 135 l 1
EndSplineSet
Validated: 524289
EndChar

StartChar: e
Encoding: 101 101 23
Width: 500
Flags: W
HStem: 0 60<155.424 377.6> 220 60<110 362.932> 440 60<169.396 331.856>
VStem: 50 60<99.9906 220 280 390.247> 390 60<307.883 391.945>
CounterMasks: 1 e0
LayerCount: 2
Fore
SplineSet
50 120 m 1
 50 370 l 1
 100 484 212 500 260 500 c 3
 347 500 426 418 450 370 c 1
 450 240 361 220 270 220 c 27
 110 220 l 1
 110 130 l 1
 132 68 220 60 270 60 c 3
 307 60 368 62 430 100 c 1
 430 60 l 1
 368 0 313 0 270 0 c 3
 201 0 64 30 50 120 c 1
110 370 m 1
 110 280 l 1
 270 280 l 3
 348 280 390 300 390 370 c 1
 364 406 308 440 260 440 c 3
 230 440 164 436 110 370 c 1
EndSplineSet
Validated: 1
EndChar

StartChar: uni0237
Encoding: 567 567 24
Width: 500
Flags: W
HStem: -179.052 58.5371<83.221 309.427> 440 60<150 390>
VStem: 390 60<-3.5174 440>
LayerCount: 2
Fore
SplineSet
150 500 m 1
 450 500 l 1
 450 190 l 2
 450 41.4209 442.002 -179.052 250.946 -179.052 c 3
 213.353 -179.052 82 -160 50 -150 c 1
 50 -100 l 1
 84 -110 205.929 -120.515 250.104 -120.515 c 3
 352.011 -120.515 390 20 390 150 c 2
 390 440 l 1
 150 440 l 1
 150 500 l 1
EndSplineSet
Validated: 1
EndChar

StartChar: v
Encoding: 118 118 26
Width: 500
Flags: MW
DStem2: 120 500 50 480 0.298275 -0.95448<0 458.747> 260 60 320 0 0.251634 0.967822<0 434.165>
LayerCount: 2
Fore
SplineSet
260 60 m 29
 370 480 l 5
 450 500 l 5
 320 0 l 29
 200 0 l 25
 50 480 l 1
 120 500 l 1
 260 60 l 29
EndSplineSet
Validated: 1
EndChar

StartChar: w
Encoding: 119 119 27
Width: 500
Flags: W
HStem: -10 60<286.088 390> 480 20G<50 110 390 450>
VStem: 50 60<73.045 480> 220 60<50 320> 390 60<50 480>
CounterMasks: 1 38
LayerCount: 2
Fore
SplineSet
280 340 m 1
 280 50 l 25
 390 50 l 25
 390 480 l 25
 450 500 l 25
 450 -10 l 3
 108 -10 50 -0 50 130 c 2
 50 480 l 1
 110 500 l 1
 110 110 l 2
 112 51 196 58 220 50 c 0
 220 320 l 1
 280 340 l 1
EndSplineSet
Validated: 1
EndChar

StartChar: V
Encoding: 86 86 28
Width: 500
Flags: HMW
DStem2: 120 600 50 600 0.185261 -0.982689<0 560.708> 252 50 310 -20 0.220261 0.975441<0 564.686>
LayerCount: 2
Fore
SplineSet
310 -20 m 3
 216 -20 166.044 -2.79688 140 128 c 2
 50 580 l 1
 120 600 l 1
 212 112 l 2
 222 57 230 58 252 50 c 0
 370 580 l 5
 450 600 l 1
 310 -20 l 3
EndSplineSet
Validated: 524289
EndChar

StartChar: C
Encoding: 67 67 29
Width: 500
Flags: W
HStem: -10 60<171.01 380.578> 540 60<174.587 345.578>
VStem: 50 60<100 495.67>
LayerCount: 2
Fore
SplineSet
450 40 m 1
 402 13 346 -10 270 -10 c 3
 170 -10 76 49 50 100 c 1
 50 505 l 1
 82 539 164 600 250 600 c 3
 335 600 412 555 450 515 c 1
 450 460 l 1
 406 501 305 540 250 540 c 3
 214 540 148 511 110 480 c 1
 110 130 l 1
 136 79 192 50 270 50 c 3
 324 50 394 73 450 100 c 1
 450 40 l 1
EndSplineSet
Validated: 1
EndChar

StartChar: a
Encoding: 97 97 30
Width: 500
Flags: W
HStem: 0 60<112.081 286> 230 60<140.645 387.487> 440 60<142.29 329.989>
VStem: 50 60<71.712 203.303> 390 60<80 216.166 270 373.501>
LayerCount: 2
Fore
SplineSet
390 210 m 1
 349 223 298 230 250 230 c 3
 200 230 153 222 110 190 c 1
 110 80 l 1
 150 61 192 60 230 60 c 3
 390 80 l 0
 390 210 l 1
250 440 m 3
 181.934 440 98 407 50 370 c 9
 50 430 l 1
 102 470 185.805 500 250 500 c 3
 336 500 414 445 450 370 c 1
 450 20 l 1
 230 0 l 3
 158 0 86 10 50 35 c 1
 50 230 l 1
 74 262 158 290 200 290 c 3
 255 290 324 287 390 270 c 1
 390 415 310 440 250 440 c 3
EndSplineSet
Validated: 1
EndChar

StartChar: comma
Encoding: 44 44 31
Width: 500
Flags: W
HStem: -90 190
VStem: 220 60<40 100>
LayerCount: 2
Fore
SplineSet
150 -90 m 1
 220 40 l 1
 220 100 l 5
 280 100 l 5
 280 40 l 1
 192 -90 l 1
 150 -90 l 1
EndSplineSet
Validated: 1
EndChar

StartChar: bar
Encoding: 124 124 33
Width: 500
Flags: W
VStem: 220 60<-80 750>
LayerCount: 2
Fore
SplineSet
220 750 m 1
 280 750 l 1
 280 -80 l 1
 220 -80 l 1
 220 750 l 1
EndSplineSet
Validated: 1
EndChar

StartChar: hyphen
Encoding: 45 45 34
Width: 500
Flags: W
HStem: 210 60<100 400>
VStem: 100 300<210 270>
LayerCount: 2
Fore
SplineSet
100 270 m 1
 400 270 l 1
 400 210 l 5
 100 210 l 5
 100 270 l 1
EndSplineSet
Validated: 1
EndChar

StartChar: underscore
Encoding: 95 95 35
Width: 500
Flags: W
HStem: 0 60<80 420>
LayerCount: 2
Fore
SplineSet
80 60 m 1
 420 60 l 1
 420 0 l 1
 80 0 l 1
 80 60 l 1
EndSplineSet
Validated: 1
EndChar

StartChar: slash
Encoding: 47 47 36
Width: 500
Flags: MW
HStem: 680 20G<380 431.233>
DStem2: 60 -30 120 -30 0.401477 0.915869<24.0886 778.74>
LayerCount: 2
Fore
SplineSet
370 680 m 1
 440 700 l 1
 120 -30 l 1
 60 -30 l 1
 370 680 l 1
EndSplineSet
Validated: 1
EndChar

StartChar: backslash
Encoding: 92 92 37
Width: 500
Flags: HMW
DStem2: 130 682 60 702 0.401477 -0.915869<0 750.636>
LayerCount: 2
Fore
SplineSet
130 682 m 1
 440 -28 l 1
 380 -28 l 1
 60 702 l 1
 130 682 l 1
EndSplineSet
Validated: 1
EndChar

StartChar: W
Encoding: 87 87 38
Width: 500
Flags: MW
VStem: 50 60<134 574> 390 60<134 574>
DStem2: 110 134 250 174 0.707107 0.707107<0 127.279> 250 274 250 174 0.707107 -0.707107<70.7107 197.99>
LayerCount: 2
Fore
SplineSet
250 274 m 29
 390 134 l 25
 390 574 l 25
 450 594 l 25
 450 -26 l 25
 250 174 l 5
 50 -26 l 5
 50 574 l 1
 110 594 l 1
 110 134 l 29
 250 274 l 29
EndSplineSet
Validated: 1
EndChar

StartChar: O
Encoding: 79 79 39
Width: 500
Flags: W
HStem: -10 60<129.17 355.737> 540 60<140.645 365.868>
VStem: 50 60<70.9273 513.303> 390 60<74.9599 517.641>
LayerCount: 2
Fore
SplineSet
390 500 m 1
 374 527 298 540 250 540 c 3
 200 540 153 532 110 500 c 1
 110 80 l 1
 150 61 192 50 230 50 c 3
 288 50 341 69 390 80 c 1
 390 500 l 1
450 35 m 1
 394 9 294 -10 230 -10 c 3
 158 -10 86 10 50 35 c 1
 50 540 l 1
 74 572 158 600 200 600 c 3
 273 600 394 595 450 540 c 5
 450 35 l 1
EndSplineSet
Validated: 1
EndChar

StartChar: D
Encoding: 68 68 40
Width: 500
Flags: W
HStem: -10 60<112.024 295.987> 540 60<110 287.493>
VStem: 50 60<56.0328 540> 390 60<144.094 444.187>
LayerCount: 2
Fore
SplineSet
390 370 m 2
 390 465 298 540 200 540 c 0
 110 540 l 1
 110 60 l 1
 152 51 192 50 230 50 c 3
 288 50 390 121 390 220 c 2
 390 370 l 2
450 175 m 2
 450 61 294 -10 230 -10 c 3
 158 -10 86 0 50 15 c 1
 50 600 l 1
 200 600 l 3
 328 600 450 509 450 400 c 2
 450 175 l 2
EndSplineSet
Validated: 1
EndChar

StartChar: s
Encoding: 115 115 41
Width: 500
Flags: W
HStem: -10 60<154.406 360.378> 220 60<177.343 366.703> 440 60<161.823 363.869>
LayerCount: 2
Fore
SplineSet
260 280 m 3
 432 280 448 229 450 80 c 1
 434 35 346 -10 270 -10 c 3
 170 -10 106 19 80 70 c 1
 80 130 l 1
 106 79 192 50 270 50 c 3
 324 50 382 65 400 120 c 1
 384 189 384.004 220 260 220 c 3
 135.996 220 94 263 70 390 c 1
 96 468 184 500 270 500 c 3
 322.24 500 404 475 420 440 c 1
 420 370 l 1
 396 425 298.018 440 270 440 c 3
 234 440 146 429 130 390 c 1
 140 333 159.995 280 260 280 c 3
EndSplineSet
Validated: 524289
EndChar

StartChar: J
Encoding: 74 74 42
Width: 500
Flags: W
HStem: -179 58<83.2049 309.42> 540 60<150 390>
VStem: 390 60<-3.69263 540>
LayerCount: 2
Fore
SplineSet
150 600 m 1
 450 600 l 1
 450 190 l 2
 450 41 442 -179 251 -179 c 3
 213 -179 82 -160 50 -150 c 1
 50 -100 l 1
 84 -110 206 -121 250 -121 c 3
 352 -121 390 20 390 150 c 2
 390 540 l 1
 150 540 l 1
 150 600 l 1
EndSplineSet
Validated: 1
EndChar

StartChar: I
Encoding: 73 73 43
Width: 500
Flags: W
HStem: 0 60<50 220 280 450> 540 60<50 220 280 450>
VStem: 220 60<60 540>
LayerCount: 2
Fore
SplineSet
280 60 m 1
 450 60 l 1
 450 0 l 9
 50 0 l 17
 50 60 l 1
 220 60 l 1
 220 540 l 5
 50 540 l 5
 50 600 l 5
 450 600 l 5
 450 540 l 5
 280 540 l 5
 280 60 l 1
EndSplineSet
Validated: 1
EndChar

StartChar: t
Encoding: 116 116 44
Width: 500
Flags: W
HStem: -10 50<185.756 448.861> 440 60<110 380>
VStem: 50 60<120.793 440 500 620>
LayerCount: 2
Fore
SplineSet
110 440 m 1
 110 220 l 2
 110 49 232 40 290 40 c 3
 316 40 424 52 450 60 c 1
 450 10 l 1
 430 -6 323 -10 290 -10 c 3
 215 -10 50 10 50 220 c 2
 50 620 l 1
 110 640 l 1
 110 500 l 1
 380 500 l 1
 380 440 l 1
 110 440 l 1
EndSplineSet
Validated: 1
EndChar

StartChar: equal
Encoding: 61 61 45
Width: 500
Flags: W
HStem: 120 60<90 410> 320 60<90 410>
VStem: 90 320<120 180 320 380>
LayerCount: 2
Fore
SplineSet
90 380 m 5
 410 380 l 5
 410 320 l 5
 90 320 l 5
 90 380 l 5
90 180 m 5
 410 180 l 5
 410 120 l 5
 90 120 l 5
 90 180 l 5
EndSplineSet
Validated: 1
EndChar

StartChar: asterisk
Encoding: 42 42 46
Width: 500
Flags: HMW
HStem: 60 330
VStem: 220 60<270 390>
DStem2: 120 310 100 250 0.910366 -0.413803<6.62085 107.589> 280 270 290 200 0.910366 0.413803<0 100.968>
LayerCount: 2
Fore
SplineSet
330 60 m 1
 250 150 l 1
 170 60 l 1
 120 110 l 1
 210 200 l 1
 100 250 l 1
 120 310 l 1
 220 270 l 1
 220 390 l 1
 280 390 l 1
 280 270 l 1
 380 310 l 1
 400 250 l 1
 290 200 l 1
 380 110 l 1
 330 60 l 1
EndSplineSet
Validated: 1
EndChar

StartChar: quotesingle
Encoding: 39 39 47
Width: 500
Flags: W
HStem: 470 230<230 272>
VStem: 230 42<470 523.667>
LayerCount: 2
Fore
SplineSet
230 470 m 5
 200 700 l 5
 300 700 l 5
 272 470 l 5
 230 470 l 5
EndSplineSet
Validated: 1
EndChar

StartChar: m
Encoding: 109 109 49
Width: 500
Flags: W
HStem: 1 20G<50 110 210 270 390 450> 440 60<110 202.322>
VStem: 50 60<1 440> 210 60<0 440> 390 60<1 416.955>
LayerCount: 2
Fore
SplineSet
210 0 m 1
 210 440 l 25
 110 440 l 25
 110 1 l 25
 50 1 l 25
 50 500 l 3
 392 500 450 490 450 360 c 2
 450 1 l 1
 390 1 l 1
 390 380 l 2
 390 439 294 432 270 440 c 0
 270 0 l 1
 210 0 l 1
EndSplineSet
Validated: 1
EndChar

StartChar: L
Encoding: 76 76 50
Width: 500
Flags: W
HStem: 0 60<110 450>
VStem: 50 60<60 600>
LayerCount: 2
Fore
SplineSet
110 600 m 5
 110 60 l 1
 450 60 l 1
 450 0 l 9
 50 0 l 17
 50 600 l 5
 110 600 l 5
EndSplineSet
Validated: 1
EndChar

StartChar: Y
Encoding: 89 89 51
Width: 500
Flags: HMW
HStem: 0 21G<200 276> 240 60<234.831 270>
VStem: 50 60<474.535 600>
DStem2: 200 0 270 0 0.287348 0.957826<20.1144 249.993 309.803 626.418>
LayerCount: 2
Fore
SplineSet
380 600 m 1
 450 600 l 1
 270 0 l 1
 200 0 l 1
 270 240 l 3
 118 240 50 347 50 600 c 3
 110 600 l 3
 110 395 154 300 290 300 c 27
 380 600 l 1
EndSplineSet
Validated: 1
EndChar

StartChar: Z
Encoding: 90 90 52
Width: 500
Flags: MW
HStem: 0 60<120 450> 540 60<90 380>
DStem2: 50 60 120 60 0.566529 0.824042<39.657 582.495>
LayerCount: 2
Fore
SplineSet
120 60 m 1
 450 60 l 1
 450 0 l 9
 50 0 l 17
 50 60 l 1
 380 540 l 1
 90 540 l 1
 90 600 l 1
 450 600 l 1
 450 540 l 1
 120 60 l 1
EndSplineSet
Validated: 1
EndChar

StartChar: T
Encoding: 84 84 53
Width: 500
Flags: W
HStem: 0 21G<220 280> 540 60<50 220 280 450>
VStem: 220 60<0 540>
LayerCount: 2
Fore
SplineSet
450 540 m 5
 280 540 l 5
 280 0 l 9
 220 0 l 25
 220 540 l 5
 50 540 l 5
 50 600 l 5
 450 600 l 5
 450 540 l 5
EndSplineSet
Validated: 1
EndChar

StartChar: E
Encoding: 69 69 54
Width: 500
Flags: W
HStem: 0 60<110 450> 330 60<110 300> 540 60<110 450>
VStem: 50 60<60 330 390 540>
LayerCount: 2
Fore
SplineSet
110 330 m 1
 110 60 l 1
 450 60 l 1
 450 0 l 9
 50 0 l 17
 50 600 l 1
 450 600 l 1
 450 540 l 1
 110 540 l 1
 110 390 l 1
 300 390 l 5
 300 330 l 1
 110 330 l 1
EndSplineSet
Validated: 1
EndChar

StartChar: A
Encoding: 65 65 55
Width: 500
Flags: W
HStem: 1 21G<50 110 390 450> 240 60<110 390> 540 60<110 272.611>
VStem: 50 60<1 240 300 540> 390 60<0 240 300 466.731>
LayerCount: 2
Fore
SplineSet
110 240 m 1
 110 1 l 9
 50 1 l 25
 50 600 l 3
 392 600 450 530 450 400 c 2
 450 0 l 1
 390 0 l 1
 390 240 l 1
 110 240 l 1
390 300 m 1
 390 420 l 2
 390 516 200 540 110 540 c 1
 110 300 l 1
 390 300 l 1
EndSplineSet
Validated: 1
EndChar

StartChar: z
Encoding: 122 122 56
Width: 500
Flags: MW
HStem: 0 60<130 450> 440 60<50 370>
DStem2: 50 60 130 60 0.644136 0.764911<51.5309 496.79>
LayerCount: 2
Fore
SplineSet
130 60 m 1
 450 60 l 1
 450 0 l 9
 50 0 l 17
 50 60 l 1
 370 440 l 1
 50 440 l 1
 50 500 l 1
 450 500 l 1
 450 440 l 1
 130 60 l 1
EndSplineSet
Validated: 1
EndChar

StartChar: seven
Encoding: 55 55 57
Width: 500
Flags: MW
HStem: -190 21G<150 227.302> 440 60<50 380>
DStem2: 150 -190 220 -190 0.34294 0.939357<24.0058 670.671>
LayerCount: 2
Fore
SplineSet
150 -190 m 1
 380 440 l 1
 50 440 l 1
 50 500 l 1
 450 500 l 1
 450 440 l 1
 220 -190 l 1
 150 -190 l 1
EndSplineSet
Validated: 1
EndChar

StartChar: nine
Encoding: 57 57 58
Width: 500
Flags: W
HStem: -190 60<120 256.031> 0 60<170.692 296.583> 370 60<164.021 322.413>
VStem: 50 60<129.2 320.148> 390 60<4.10197 150 152.873 295.458>
LayerCount: 2
Fore
SplineSet
100 -130 m 3
 294 -130 389 -76 390 150 c 1
 372 20 271 0 240 0 c 3
 114 0 50 119 50 250 c 3
 50 394 173 430 260 430 c 3
 308 430 450 392 450 210 c 2
 450 150 l 2
 450 -162 270 -190 120 -190 c 0
 100 -130 l 3
390 210 m 1
 384 344 290 370 260 370 c 3
 212 370 110 358 110 250 c 3
 110 155 138 60 240 60 c 3
 283 60 376 122 390 210 c 1
EndSplineSet
Validated: 1
EndChar

StartChar: zero
Encoding: 48 48 59
Width: 500
Flags: W
HStem: -10 60<146.717 354.582> 200 100<200 300> 440 60<151.51 351.334>
VStem: 50 60<84.2806 399.85> 200 100<200 300> 390 60<82.0896 404.777>
CounterMasks: 1 1c
LayerCount: 2
Fore
SplineSet
200 300 m 1
 300 300 l 1
 300 200 l 1
 200 200 l 1
 200 300 l 1
390 370 m 1
 378 429 298 440 250 440 c 3
 200 440 132 435 110 360 c 1
 110 110 l 1
 138 59 192 50 230 50 c 3
 288 50 370 55 390 110 c 1
 390 370 l 1
450 105 m 1
 422 0 293.876 -10 230 -10 c 3
 157.64 -10 72 11 50 105 c 1
 50 370 l 1
 78 473 158 500 200 500 c 3
 334.004 500 426 487 450 370 c 1
 450 105 l 1
EndSplineSet
Validated: 1
EndChar

StartChar: one
Encoding: 49 49 60
Width: 500
Flags: W
HStem: 0 60<50 220 280 450> 440 60<50 220>
VStem: 220 60<60 440>
LayerCount: 2
Fore
SplineSet
280 60 m 1
 450 60 l 1
 450 0 l 9
 50 0 l 17
 50 60 l 1
 220 60 l 1
 220 440 l 1
 50 440 l 1
 50 500 l 1
 280 500 l 1
 280 60 l 1
EndSplineSet
Validated: 1
EndChar

StartChar: six
Encoding: 54 54 61
Width: 500
Flags: W
HStem: 2 60<162.29 341.368> 360 60<170.742 341.18> 640 60<259.352 360>
VStem: 50 60<120.923 335.533 350 486.896> 390 60<106.442 303.753>
LayerCount: 2
Fore
SplineSet
390 640 m 3
 205 640 112 551 110 350 c 1
 139 394 204 420 280 420 c 3
 361 420 450 397 450 182 c 3
 450 38 358 2 240 2 c 3
 145 2 50 37 50 222 c 2
 50 350 l 1
 50 589 166 700 360 700 c 0
 390 640 l 3
110 222 m 2
 110 85 181 62 240 62 c 3
 304 62 390 73 390 182 c 3
 390 331 331 360 280 360 c 3
 213 360 139 349 110 322 c 1
 110 222 l 2
EndSplineSet
Validated: 1
EndChar

StartChar: f
Encoding: 102 102 62
Width: 500
Flags: W
HStem: 0 21G<50 110> 380 60<110 300> 641 58<164.93 379.354>
VStem: 50 60<0 380 440 576.947>
LayerCount: 2
Fore
SplineSet
110 440 m 0
 300 440 l 1
 300 380 l 1
 110 380 l 1
 110 0 l 1
 50 0 l 1
 50 440 l 2
 50 589 58 699 249 699 c 3
 287 699 414 689.043 450 640 c 1
 450 580 l 1
 404 627.043 294 641 250 641 c 3
 136 641 110 576.1 110 440 c 0
EndSplineSet
Validated: 1
EndChar

StartChar: M
Encoding: 77 77 63
Width: 500
Flags: MW
HStem: 0 21G<50 110 390 450>
VStem: 50 60<0 440> 390 60<0 440>
DStem2: 250 400 110 440 0.707107 -0.707107<-127.279 0> 250 400 250 300 0.707107 0.707107<0 127.279>
LayerCount: 2
Fore
SplineSet
250 300 m 25
 110 440 l 25
 110 0 l 25
 50 0 l 25
 50 600 l 25
 250 400 l 1
 450 600 l 1
 450 0 l 1
 390 0 l 1
 390 440 l 25
 250 300 l 25
EndSplineSet
Validated: 1
EndChar

StartChar: B
Encoding: 66 66 64
Width: 500
Flags: W
HStem: 0 60<110 330.654> 320 60<110 317.295> 540 60<110 297.031>
VStem: 50 60<60 320 380 540> 330 60<393.766 512.296> 390 60<78.8058 251.149>
LayerCount: 2
Fore
SplineSet
290 320 m 1xf4
 110 320 l 1
 110 60 l 1
 376 60 390 60 390 140 c 3
 390 269 345 290 290 320 c 1xf4
110 0 m 2
 50 0 l 1
 50 600 l 1
 110 600 l 2
 334 600 390 590 390 450 c 3xf8
 390 409 376 386 340 350 c 1
 405 305 450 252 450 140 c 3
 450 -0 430 0 110 0 c 2
110 540 m 1
 110 380 l 1
 290 380 l 1
 320 402 330 406 330 430 c 3
 330 526 320 536 110 540 c 1
EndSplineSet
Validated: 1
EndChar

StartChar: S
Encoding: 83 83 65
Width: 500
Flags: HMW
HStem: -10 60<159.44 364.224> 540 60<149.754 330.671>
VStem: 50 60<96.1756 170 434.489 507.522> 390 60<75.4602 198.646 440 488.171>
LayerCount: 2
Fore
SplineSet
250 360 m 0
 420 269 450 236 450 120 c 3
 450 16 346 -10 270 -10 c 3
 170 -10 50 29 50 170 c 1
 110 170 l 1
 110 63 192 50 270 50 c 3
 324 50 390 63 390 120 c 3
 390 166 372 215 250 290 c 0
 111.685 375.03 52 367 50 505 c 1
 72 559 164 600 250 600 c 3
 335 600 448 567 450 440 c 1
 390 440 l 1
 388 505 305 540 250 540 c 3
 214 540 124 527 110 480 c 1
 112 431 127 426 250 360 c 0
EndSplineSet
Validated: 524289
EndChar

StartChar: five
Encoding: 53 53 66
Width: 500
Flags: W
HStem: -190 60<50 229.556> 160 60<170 324.958> 440 60<170 450>
VStem: 110 60<220 440> 390 60<-19.9008 110.157>
LayerCount: 2
Fore
SplineSet
170 220 m 0
 334 220 450 209 450 50 c 3
 450 -92 330 -190 50 -190 c 0
 50 -130 l 3
 330 -130 390 -24 390 50 c 3
 390 137 321 160 110 160 c 0
 110 500 l 0
 450 500 l 1
 450 440 l 1
 170 440 l 0
 170 220 l 0
EndSplineSet
Validated: 1
EndChar

StartChar: eight
Encoding: 56 56 67
Width: 500
Flags: W
HStem: 0 60<166.877 332.71> 360 60<168.139 331.511> 640 60<173.838 325.739>
VStem: 50 60<114.818 296.498> 80 60<445.125 605.226> 360 60<445.125 605.226> 390 60<114.818 296.498>
LayerCount: 2
Fore
SplineSet
250 60 m 3xf2
 280 60 390 68 390 192 c 3
 390 330 317 360 250 360 c 3
 182 360 110 330 110 192 c 3
 110 68 219 60 250 60 c 3xf2
250 700 m 3
 388 700 420 618 420 518 c 3
 420 431 392 403 360 390 c 1xec
 408 352 450 282 450 190 c 3
 450 41 358 0 250 0 c 3
 151 0 50 41 50 190 c 3xf2
 50 282 92 352 140 390 c 1
 108 403 80 431 80 518 c 3xe8
 80 618 111 700 250 700 c 3
250 420 m 3
 311 420 360 430 360 520 c 3
 360 572 352 640 250 640 c 3
 147 640 140 572 140 520 c 3
 140 430 188 420 250 420 c 3
EndSplineSet
Validated: 1
EndChar

StartChar: bracketleft
Encoding: 91 91 68
Width: 500
Flags: W
HStem: -80 60<200 360> 700 60<200 360>
VStem: 140 60<-20 700>
LayerCount: 2
Fore
SplineSet
200 700 m 1
 200 -20 l 1
 360 -20 l 1
 360 -80 l 1
 140 -80 l 1
 140 760 l 1
 360 760 l 1
 360 700 l 1
 200 700 l 1
EndSplineSet
Validated: 1
EndChar

StartChar: bracketright
Encoding: 93 93 69
Width: 500
Flags: W
HStem: -80 60<140 300> 700 60<140 300>
VStem: 300 60<-20 700>
LayerCount: 2
Fore
SplineSet
300 700 m 1
 140 700 l 1
 140 760 l 1
 360 760 l 1
 360 -80 l 1
 140 -80 l 1
 140 -20 l 1
 300 -20 l 1
 300 700 l 1
EndSplineSet
Validated: 1
EndChar

StartChar: parenleft
Encoding: 40 40 70
Width: 500
Flags: W
VStem: 130 60<215.336 484.638>
LayerCount: 2
Fore
SplineSet
190 340 m 3
 190 119.991 370 -20 370 -20 c 1
 350 -80 l 1
 350 -80 130 46 130 340 c 1
 130 656 350 760 350 760 c 1
 370 700 l 1
 370 700 190 614.065 190 340 c 3
EndSplineSet
Validated: 1
EndChar

StartChar: parenright
Encoding: 41 41 71
Width: 500
Flags: W
VStem: 310 60<215.337 484.625>
LayerCount: 2
Fore
SplineSet
310 340 m 3
 310 614 130 700 130 700 c 1
 150 760 l 1
 150 760 370 656 370 340 c 1
 370 46 150 -80 150 -80 c 1
 130 -20 l 1
 130 -20 310 120 310 340 c 3
EndSplineSet
Validated: 1
EndChar

StartChar: three
Encoding: 51 51 72
Width: 500
Flags: MW
HStem: -190 60<50 237.631> 160 60<270 321.391> 440 60<50 340>
VStem: 390 60<-27.9873 103.533>
DStem2: 160 160 270 220 0.540758 0.841178<109.954 332.866>
LayerCount: 2
Fore
SplineSet
340 440 m 0
 50 440 l 0
 50 500 l 3
 450 500 l 0
 270 220 l 3
 388.609 220 450 165 450 41 c 3
 450 -101 330 -190 50 -190 c 0
 50 -130 l 3
 330.064 -130 390 -34 390 40 c 3
 390 146.075 276.017 160 160 160 c 8
 340 440 l 0
EndSplineSet
Validated: 1
EndChar

StartChar: x
Encoding: 120 120 73
Width: 500
Flags: HMW
DStem2: 50 0 130 0 0.539054 0.842271<43.1243 265.737 371.021 571.397> 130 500 60 480 0.546268 -0.837611<0 222.604 327.305 549.91>
LayerCount: 2
Fore
SplineSet
290 250 m 1
 450 0 l 1
 370 0 l 1
 250 188 l 1
 130 0 l 1
 50 0 l 1
 210 250 l 1
 60 480 l 1
 130 500 l 1
 250 312 l 1
 350 480 l 1
 450 500 l 1
 290 250 l 1
EndSplineSet
Validated: 1
EndChar

StartChar: X
Encoding: 88 88 74
Width: 500
Flags: HMW
DStem2: 250 362.5 210 300 0.470588 -0.882353<-270.735 0 110.294 376.324> 50 0 130 0 0.470588 0.882353<37.6471 303.676 413.971 657.647>
LayerCount: 2
Fore
SplineSet
290 300 m 1
 450 0 l 1
 370 0 l 1
 250 238 l 1
 130 0 l 1
 50 0 l 1
 210 300 l 1
 50 580 l 1
 120 600 l 1
 250 362 l 1
 360 580 l 1
 450 600 l 1
 290 300 l 1
EndSplineSet
Validated: 1
EndChar

StartChar: two
Encoding: 50 50 75
Width: 500
Flags: W
HStem: 0 60<130 450> 440 60<167.674 337.63>
VStem: 50 80<60 92.7985> 50 60<310 385.658> 390 60<286.998 390.247>
LayerCount: 2
Fore
SplineSet
450 0 m 1xe8
 50 0 l 0xd8
 50 60 l 2xe8
 50 195 390 135 390 370 c 1
 336 436 290 440 260 440 c 3
 212 440 110 426.069 110 310 c 3
 50 310 l 3xd8
 50 471 173 500 260 500 c 3
 308 500 400 484 450 370 c 1
 450 91 130 149 130 60 c 1
 450 60 l 25
 450 0 l 1xe8
EndSplineSet
Validated: 1
EndChar

StartChar: four
Encoding: 52 52 76
Width: 500
Flags: MW
HStem: -190 21G<300 370> 0 60<140 300 370 450> 480 20G<260 370>
VStem: 300 70<-190 0 60 376.8>
DStem2: 50 60 120 60 0.494009 0.869457<34.5807 398.946>
LayerCount: 2
Fore
SplineSet
300 376.8 m 1
 120 60 l 1
 300 60 l 1
 300 376.8 l 1
370 60 m 1
 450 60 l 1
 450 0 l 1
 370 5.55112e-16 l 1
 370 -190 l 1
 300 -190 l 1
 300 5.55112e-16 l 1
 50 0 l 1
 50 60 l 1
 300 500 l 1
 370 500 l 1
 370 60 l 1
EndSplineSet
Validated: 1
EndChar

StartChar: N
Encoding: 78 78 77
Width: 500
Flags: MW
HStem: 0 21G<50 110 341.111 450>
VStem: 50 60<0 540> 390 60<60 580>
DStem2: 150 600 110 540 0.406138 -0.913812<38.5832 590.931>
LayerCount: 2
Fore
SplineSet
390 60 m 1
 390 580 l 1
 450 600 l 9
 450 0 l 17
 350 0 l 1
 110 540 l 1
 110 0 l 1
 50 0 l 1
 50 600 l 1
 150 600 l 1
 390 60 l 1
EndSplineSet
Validated: 1
EndChar

StartChar: plus
Encoding: 43 43 78
Width: 500
Flags: W
HStem: 200 70<100 220 290 400>
VStem: 220 70<90 200 270 390>
LayerCount: 2
Fore
SplineSet
290 200 m 1
 290 90 l 1
 220 90 l 1
 220 200 l 1
 100 200 l 1
 100 270 l 1
 220 270 l 1
 220 390 l 1
 290 390 l 1
 290 270 l 1
 400 270 l 1
 400 200 l 1
 290 200 l 1
EndSplineSet
Validated: 1
EndChar

StartChar: exclam
Encoding: 33 33 79
Width: 500
Flags: W
HStem: 0 60<220 280> 680 20G<220 280>
VStem: 220 60<0 60 160 680>
LayerCount: 2
Fore
SplineSet
220 680 m 1
 280 700 l 1
 280 160 l 5
 220 160 l 5
 220 680 l 1
EndSplineSet
Refer: 2 46 N 1 0 0 1 0 -40 2
Validated: 1
EndChar

StartChar: brokenbar
Encoding: 166 166 80
Width: 500
Flags: W
VStem: 220 60<-80 280 390 750>
LayerCount: 2
Fore
SplineSet
220 280 m 1
 280 280 l 1
 280 -80 l 1
 220 -80 l 1
 220 280 l 1
220 750 m 1
 280 750 l 1
 280 390 l 1
 220 390 l 1
 220 750 l 1
EndSplineSet
Validated: 1
EndChar

StartChar: exclamdown
Encoding: 161 161 81
Width: 500
Flags: W
HStem: 400 60<220 280>
VStem: 220 60<-188 352 400 460>
LayerCount: 2
Fore
SplineSet
220 -188 m 1
 220 352 l 1
 280 352 l 1
 280 -188 l 1
 220 -188 l 1
EndSplineSet
Refer: 2 46 N 1 0 0 1 0 360 2
Validated: 1
EndChar

StartChar: less
Encoding: 60 60 82
Width: 500
Flags: W
VStem: 100 300
LayerCount: 2
Fore
SplineSet
210 250 m 0
 400 150 l 1
 400 80 l 1
 100 250 l 1
 400 420 l 1
 400 350 l 1
 210 250 l 0
EndSplineSet
Validated: 1
EndChar

StartChar: greater
Encoding: 62 62 83
Width: 500
Flags: W
VStem: 100 300
LayerCount: 2
Fore
SplineSet
290 250 m 0
 100 350 l 1
 100 420 l 1
 400 250 l 1
 100 80 l 1
 100 150 l 1
 290 250 l 0
EndSplineSet
Validated: 1
EndChar

StartChar: braceleft
Encoding: 123 123 84
Width: 500
Flags: MW
HStem: -80 60<329.241 410> 280 60<90.0107 157.349> 640 60<329.757 410>
VStem: 90 320
LayerCount: 2
Fore
SplineSet
90 280 m 5
 90.0107 340 l 5
 306 340 73.4033 700 410 700 c 5
 410 640 l 5
 170 640 358 328 170 310 c 5
 358 284 170 -20 410 -20 c 5
 410 -80 l 5
 70 -80 308 280 90 280 c 5
EndSplineSet
Validated: 524289
EndChar

StartChar: braceright
Encoding: 125 125 85
Width: 500
Flags: W
HStem: -80 60<90 171.237> 280 60<342.651 409.989> 640 60<90 170.498>
VStem: 90 320
CounterMasks: 1 e0
LayerCount: 2
Fore
SplineSet
410 280 m 1
 192 280 430 -80 90 -80 c 1
 90 -20 l 1
 330 -20 142 284 330 310 c 1
 142 328 330 640 90 640 c 1
 90 700 l 1
 426.597 700 194 340 409.989 340 c 1
 410 280 l 1
EndSplineSet
Validated: 524289
EndChar

StartChar: R
Encoding: 82 82 86
Width: 500
Flags: W
HStem: 0 21G<50 110 387.5 450> 280 60<110 195.86> 540 60<110 321.771>
VStem: 50 60<0 280 337.031 540> 370 60<364.821 498.217> 390 60<0 106.016>
LayerCount: 2
Fore
SplineSet
110 600 m 2xf4
 334 600 430 599 430 440 c 3xf8
 430 399 410 326 340 260 c 1
 405 215 450 170 450 0 c 1
 390 0 l 1
 385 185 244 260 110 280 c 1
 110 0 l 1
 50 0 l 1
 50 600 l 1
 110 600 l 2xf4
110 540 m 1
 110 340 l 1
 164 334 250 312 290 290 c 1
 341 339 370 396 370 420 c 3
 370 530 320 536 110 540 c 1
EndSplineSet
Validated: 1
EndChar

StartChar: numbersign
Encoding: 35 35 87
Width: 500
Flags: W
HStem: 0 21G<150 210 290 350> 110 60<70 150 210 290 350 430> 300 60<70 150 210 290 350 430> 480 20G<150 210 290 350>
VStem: 150 60<20 110 170 300 360 480> 290 60<20 110 170 300 360 480>
LayerCount: 2
Fore
SplineSet
290 480 m 1
 350 500 l 1
 350 360 l 1
 450 360 l 1
 430 300 l 1
 350 300 l 1
 350 170 l 1
 450 170 l 1
 430 110 l 1
 350 110 l 1
 350 20 l 1
 290 0 l 1
 290 110 l 1
 210 110 l 1
 210 20 l 1
 150 0 l 1
 150 110 l 1
 50 110 l 1
 70 170 l 1
 150 170 l 1
 150 300 l 1
 50 300 l 1
 70 360 l 1
 150 360 l 1
 150 480 l 1
 210 500 l 1
 210 360 l 1
 290 360 l 1
 290 480 l 1
290 300 m 1
 210 300 l 1
 210 170 l 1
 290 170 l 1
 290 300 l 1
EndSplineSet
Validated: 1
EndChar

StartChar: asciicircum
Encoding: 94 94 88
Width: 500
Flags: MW
HStem: 570 150
DStem2: 80 570 160 570 0.749838 0.661622<59.987 180.402> 250 720 250 650 0.749838 -0.661622<46.3135 166.729>
LayerCount: 2
Fore
SplineSet
250 650 m 4
 160 570 l 5
 80 570 l 5
 250 720 l 5
 420 570 l 1
 340 570 l 1
 250 650 l 4
EndSplineSet
Validated: 1
EndChar

StartChar: Q
Encoding: 81 81 89
Width: 500
Flags: W
HStem: -10 60<129.17 286> 540 60<140.645 356.933>
VStem: 50 60<70.9273 513.303> 390 60<75.2223 526.166>
LayerCount: 2
Fore
SplineSet
390 520 m 1
 349 533 298 540 250 540 c 0
 200 540 153 532 110 500 c 1
 110 80 l 1
 150 61 192 50 230 50 c 0
 246 50 271 52 286 54 c 1
 270 150 l 1
 330 170 l 1
 348 70 l 1
 362 74 376 77 390 80 c 1
 390 520 l 1
298 -5 m 1
 273 -8 250 -10 230 -10 c 0
 158 -10 86 10 50 35 c 1
 50 540 l 1
 74 572 158 600 200 600 c 0
 273 600 402 572 450 550 c 1
 450 35 l 1
 428 25 400 16 370 9 c 1
 420 -90 l 1
 350 -110 l 1
 298 -5 l 1
EndSplineSet
Validated: 1
EndChar

StartChar: F
Encoding: 70 70 90
Width: 500
Flags: W
HStem: 0 21G<50 110> 330 60<110 300> 540 60<110 450>
VStem: 50 60<0 330 390 540>
LayerCount: 2
Fore
SplineSet
50 0 m 17
 50 600 l 1
 450 600 l 5
 450 540 l 1
 110 540 l 1
 110 390 l 1
 300 390 l 1
 300 330 l 1
 110 330 l 1
 110 0 l 1
 50 0 l 17
EndSplineSet
Validated: 1
EndChar

StartChar: G
Encoding: 71 71 91
Width: 500
Flags: W
HStem: -10 60<171.01 371.829> 240 60<200 390> 540 60<174.587 345.578>
VStem: 50 60<100 495.67> 390 60<69.9748 240>
LayerCount: 2
Fore
SplineSet
450 40 m 1
 402 13 346 -10 270 -10 c 3
 170 -10 76 49 50 100 c 1
 50 505 l 1
 82 539 164 600 250 600 c 3
 335 600 412 555 450 515 c 1
 450 460 l 1
 406 501 305 540 250 540 c 3
 214 540 148 511 110 480 c 1
 110 130 l 1
 136 79 192 50 270 50 c 3
 324 50 334 53 390 80 c 9
 390 240 l 25
 200 240 l 25
 200 300 l 25
 450 300 l 25
 450 40 l 1
EndSplineSet
Validated: 1
EndChar

StartChar: H
Encoding: 72 72 92
Width: 500
Flags: W
HStem: 0 21G<50 110 390 450> 280 60<110 390>
VStem: 50 60<0 280 340 580> 390 60<0 280 340 580>
LayerCount: 2
Fore
SplineSet
390 0 m 1
 390 280 l 5
 110 280 l 5
 110 0 l 1
 50 0 l 1
 50 580 l 5
 110 600 l 5
 110 340 l 5
 390 340 l 5
 390 580 l 5
 450 600 l 13
 450 0 l 17
 390 0 l 1
EndSplineSet
Validated: 1
EndChar

StartChar: K
Encoding: 75 75 93
Width: 500
Flags: HMW
HStem: 0 21G<50 110 363.125 450>
VStem: 50 60<0 320 400 580>
DStem2: 110 370 160 330 0.707107 0.707107<7.07107 325.269> 160 330 110 290 0.660115 -0.751165<0 386.508>
LayerCount: 2
Fore
SplineSet
160 330 m 1
 450 0 l 1
 370 0 l 1
 110 290 l 1
 110 0 l 1
 50 0 l 1
 50 310 l 1
 50 580 l 5
 110 600 l 1
 110 370 l 1
 330 600 l 1
 380 550 l 1
 160 330 l 1
EndSplineSet
Validated: 1
EndChar

StartChar: grave
Encoding: 96 96 94
Width: 500
Flags: MW
HStem: 550 150
VStem: 140 220
DStem2: 200 700 150 670 0.780869 -0.624695<0 171.791>
LayerCount: 2
Fore
SplineSet
150 670 m 29
 200 700 l 29
 350 580 l 29
 300 550 l 29
 150 670 l 29
EndSplineSet
Validated: 1
EndChar

StartChar: question
Encoding: 63 63 105
Width: 500
Flags: W
HStem: 0 60<180 240> 350 60<268.012 359.499> 640 60<165.001 320.691>
VStem: 180 60<0 60 160 323.034> 380 70<428.318 595.67>
LayerCount: 2
Fore
SplineSet
240 160 m 4
 180 160 l 4
 180 362 187.986 410 330 410 c 3
 374 410 380 485 380 580 c 1
 342 611 286 640 250 640 c 3
 195 640 94 591 50 550 c 1
 50 615 l 1
 88 655 165 700 250 700 c 3
 336 700 418 639 450 605 c 1
 450 451 428 350 330 350 c 3
 240 350 240 296 240 160 c 4
EndSplineSet
Refer: 2 46 N 1 0 0 1 -40 -40 2
Validated: 1
EndChar

StartChar: questiondown
Encoding: 191 191 106
Width: 500
Flags: W
HStem: -192 60<179.309 334.999> 98 60<140.501 245.276> 438 60<260 320>
VStem: 50 70<-87.67 79.6821> 260 60<169.383 338 438 498>
LayerCount: 2
Fore
SplineSet
260 338 m 0
 320 338 l 0
 320 106 312.014 98 170 98 c 3
 126 98 120 23 120 -72 c 1
 158 -103 214 -132 250 -132 c 3
 305 -132 406 -83 450 -42 c 1
 450 -107 l 1
 412 -147 335 -192 250 -192 c 3
 164 -192 82 -131 50 -97 c 1
 50 57 72 158 170 158 c 3
 260 158 260 159 260 338 c 0
EndSplineSet
Refer: 2 46 N -1 0 -0 -1 540 538 2
Validated: 1
EndChar

StartChar: multiply
Encoding: 215 215 107
Width: 500
Flags: W
LayerCount: 2
Fore
SplineSet
290 250 m 1
 420 100 l 1
 370 60 l 1
 250 208 l 1
 120 60 l 1
 80 100 l 1
 210 250 l 1
 80 400 l 1
 130 440 l 1
 250 292 l 1
 370 440 l 1
 420 400 l 1
 290 250 l 1
EndSplineSet
Validated: 1
EndChar

StartChar: acute
Encoding: 180 180 108
Width: 500
Flags: MW
HStem: 550 150
VStem: 140 220
DStem2: 150 580 200 550 0.780869 0.624695<20.3026 192.094>
LayerCount: 2
Fore
SplineSet
350 670 m 29
 200 550 l 29
 150 580 l 29
 300 700 l 29
 350 670 l 29
EndSplineSet
Validated: 1
EndChar

StartChar: guillemotleft
Encoding: 171 171 117
Width: 500
Flags: W
LayerCount: 2
Fore
SplineSet
330 250 m 0
 450 150 l 1
 450 80 l 1
 240 250 l 1
 450 420 l 1
 450 350 l 1
 330 250 l 0
140 250 m 0
 260 150 l 1
 260 80 l 1
 50 250 l 1
 260 420 l 1
 260 350 l 1
 140 250 l 0
EndSplineSet
Validated: 1
EndChar

StartChar: guillemotright
Encoding: 187 187 118
Width: 500
Flags: W
LayerCount: 2
Fore
SplineSet
170 250 m 0
 50 350 l 1
 50 420 l 1
 260 250 l 1
 50 80 l 1
 50 150 l 1
 170 250 l 0
360 250 m 0
 240 350 l 1
 240 420 l 1
 450 250 l 1
 240 80 l 1
 240 150 l 1
 360 250 l 0
EndSplineSet
Validated: 1
EndChar

StartChar: ordmasculine
Encoding: 186 186 135
Width: 500
Flags: W
HStem: 430 60<196.511 291.666> 640 60<196.724 297.569>
VStem: 120 60<504.215 623.171> 320 60<518.279 619.17>
LayerCount: 2
Fore
SplineSet
260 640 m 3
 190 640 180 601 180 560 c 3
 180 526 199 490 240 490 c 3
 292 490 320 546 320 560 c 3
 320 577 304 640 260 640 c 3
380 475 m 1
 349 444 304 430 240 430 c 3
 168 430 129 449 120 475 c 1
 120 640 l 1
 137 673 188 700 230 700 c 3
 303 700 364 678 380 650 c 1
 380 475 l 1
EndSplineSet
Validated: 1
EndChar

StartChar: percent
Encoding: 37 37 137
Width: 500
Flags: MW
HStem: 0 60<310.426 389.597> 120 60<311.197 389.501> 340 60<110.426 189.597> 460 60<111.197 189.501>
VStem: 50 60<400.551 457.562> 190 60<402.405 459.408> 250 60<60.5507 117.562> 390 60<62.405 119.408>
DStem2: 50 90 130 90 0.685365 0.7282<54.8292 466.905>
LayerCount: 2
Fore
SplineSet
370 430 m 1xf9
 450 430 l 1
 130 90 l 1
 50 90 l 1
 370 430 l 1xf9
390 90 m 3
 390 107 386 120 360 120 c 3
 310 120 311 106 310 90 c 0xfb
 310 76 311 60 340 60 c 3
 380.05 60 390 76 390 90 c 3
450 45 m 1
 419 14 404 0 340 0 c 3
 268 0 259 19 250 45 c 1
 250 120 l 1
 267 153 288 180 330 180 c 3
 403 180 434 158 450 130 c 1
 450 45 l 1
190 430 m 3xfd
 190 447 186 460 160 460 c 3
 110 460 111 446 110 430 c 0
 110 416 111 400 140 400 c 3
 180.05 400 190 416 190 430 c 3xfd
250 385 m 1xfb
 219 354 204 340 140 340 c 3
 68 340 59 359 50 385 c 1
 50 460 l 1
 67 493 88 520 130 520 c 3
 203 520 234 498 250 470 c 1
 250 385 l 1xfb
EndSplineSet
Validated: 1
EndChar

StartChar: dollar
Encoding: 36 36 138
Width: 500
Flags: W
HStem: -6.94195 59.7294<165.987 230 290 331.874> 355.916 59.589<177.069 230> 636.943 61.526<290 365.118>
VStem: 50 70<469.917 595.366> 230 60<-80 -3.5629 52.7875 334.071 415.505 636.943 696.858 750> 390 60<110.556 259.84>
LayerCount: 2
Fore
SplineSet
230 750 m 1
 290 750 l 1
 290 698.469 l 1
 358.608 693.099 418.071 673.61 450 640 c 1
 420 580 l 1
 386.128 611.562 336.256 630.087 290 636.943 c 1
 290 397.985 l 1
 423.215 352.123 450 276.128 450 170 c 3
 450 74.8809 363.003 3.18395 290 -8.36731 c 1
 290 -80 l 1
 230 -80 l 1
 230 -6.94195 l 1
 145.871 5.77649 72.4917 55.8816 50 100 c 1
 110 130 l 1
 131.312 88.1958 172.781 61.1733 230 52.7875 c 1
 230 355.916 l 1
 72.3056 403.649 51.9216 438.783 50 605 c 1
 79.5077 636.352 151.53 690.662 230 698.931 c 1
 230 750 l 1
230 637.598 m 1
 195.402 630.039 151.512 605.707 120 580 c 1
 123.734 466.102 141.414 441.106 230 415.505 c 1
 230 637.598 l 1
290 52.6472 m 1
 339.012 65.1649 390 119.9 390 170 c 3
 390 210.585 379.102 289.313 290 334.071 c 1
 290 52.6472 l 1
EndSplineSet
Validated: 1
EndChar

StartChar: ampersand
Encoding: 38 38 139
Width: 500
Flags: W
HStem: 0 60<145.255 297.622 400.549 450> 640 60<175.969 323.498>
VStem: 50 60<97.0806 289.012> 80 60<442.11 600.905> 390 60<178.5 312>
LayerCount: 2
Fore
SplineSet
350 140 m 1xd8
 379 188 390 250 390 312 c 9
 450 312 l 1
 450 205 424 137 390 90 c 1
 409 73 431 60 450 60 c 1
 450 0 l 1
 414 0 379 23 350 50 c 1
 303 14 250 0 210 0 c 3
 126 0 50 41 50 190 c 0xe8
 50 282 82 332 130 370 c 1
 82 430 80 463 80 500 c 3
 80 620 140 700 240 700 c 0
 283 700 332 684 390 640 c 1
 390 580 l 1
 330 622 277 640 240 640 c 0
 165 640 140 586 140 500 c 3
 140 448 294 224 350 140 c 1xd8
310 90 m 1
 239 185 196 268 160 320 c 1
 124 308 110 222 110 192 c 0
 110 126 124 60 210 60 c 3
 252 60 284 70 310 90 c 1
EndSplineSet
Validated: 1
EndChar

StartChar: asciitilde
Encoding: 126 126 140
Width: 500
Flags: W
HStem: 180 60<290.998 371.435> 260 60<119.998 210.532>
VStem: 50 60<180 249.75> 390 60<258.222 320>
LayerCount: 2
Fore
SplineSet
50 180 m 3
 50 302 109 320 170 320 c 3
 256 320 292 240 330 240 c 3
 362 240 390 272 390 320 c 1
 450 320 l 3
 450 240 432 180 330 180 c 3
 230 180 216 260 170 260 c 3
 118 260 110 234 110 180 c 1
 50 180 l 3
EndSplineSet
Validated: 1
EndChar

StartChar: cent
Encoding: 162 162 141
Width: 500
Flags: W
HStem: -8.04518 59.8635<172.195 240 300 385.46> 439.325 60.3736<174.029 240 300 346.6>
VStem: 50 60<106.682 389.206> 240 60<-80 -6.83039 52.0545 432.844 497.463 560>
LayerCount: 2
Fore
SplineSet
240 560 m 1
 300 560 l 1
 300 494.94 l 1
 364.256 482.089 419.648 446.95 450 415 c 1
 450 360 l 1
 417.355 390.42 353.332 419.738 300 432.844 c 1
 300 52.0545 l 1
 348.336 58.2634 403.907 77.7767 450 100 c 1
 450 40 l 1
 408.544 16.6808 361.125 -3.65462 300 -8.76577 c 1
 300 -80 l 1
 240 -80 l 1
 240 -8.04518 l 1
 151.049 3.41526 69.7909 63.3261 50 120 c 1
 50 385 l 1
 69.2301 429.229 156.546 494.722 240 499.699 c 1
 240 560 l 1
240 51.8183 m 1
 240 439.325 l 1
 199.848 434.409 124.668 403.087 110 360 c 1
 110 140 l 1
 130.811 92.3075 177.183 59.6535 240 51.8183 c 1
EndSplineSet
Validated: 1
EndChar

StartChar: currency
Encoding: 164 164 142
Width: 500
Flags: W
HStem: 0 21G<50 140.714 359.348 450> 84 52<175 318.847> 360 63<179 309.266> 480 20G<50 142.727 356.742 450>
VStem: 91 62<146.849 345.234> 344 61<152.877 350.981>
LayerCount: 2
Fore
SplineSet
344 346 m 1
 308 355 274 360 233 360 c 0
 190 360 189 354 153 331 c 1
 153 157 l 1
 187 143 183 136 216 136 c 0
 266 136 301 150 344 157 c 1
 344 346 l 1
175 84 m 1
 130 0 l 1
 50 0 l 1
 106 102 l 1
 97 106 99 110 91 115 c 1
 91 380 l 1
 98 388 99 395 111 402 c 1
 50 500 l 1
 130 500 l 1
 179 423 l 1
 238 422 274 420 311 411 c 1
 370 500 l 1
 450 500 l 1
 429 465 408 429 387 394 c 1
 394 392 400 390 405 388 c 1
 405 115 l 1
 400 113 395 111 390 109 c 1
 450 0 l 1
 370 0 l 1
 321 92 l 1
 275 87 234 84 175 84 c 1
EndSplineSet
Validated: 1
EndChar

StartChar: section
Encoding: 167 167 143
Width: 500
Flags: W
HStem: -10 60<171.01 329.718> 640 60<179.309 358.188>
VStem: 50 70<503.054 595.67> 390 60<109.959 269.169>
LayerCount: 2
Fore
SplineSet
450 170 m 0
 450 66 346 -10 270 -10 c 0
 170 -10 76 49 50 100 c 1
 110 130 l 1
 136 79 192 50 270 50 c 0
 324 50 390 113 390 170 c 0
 390 202 376 231 250 270 c 1
 74 321 50 325 50 605 c 1
 82 639 164 700 250 700 c 0
 335 700 412 680 450 640 c 1
 420 580 l 1
 376 621 305 640 250 640 c 0
 214 640 158 611 120 580 c 1
 121 505 144 478 250 450 c 0
 418 406 450 400 450 170 c 0
124 426 m 1
 135 379 167 352 250 330 c 0
 313 313 357 302 388 287 c 1
 380 324 351 359 250 390 c 1
 194 406 154 415 124 426 c 1
EndSplineSet
Validated: 1
EndChar

StartChar: paragraph
Encoding: 182 182 144
Width: 500
Flags: W
HStem: 0 21G<260 320 390 450> 280 60<124.145 260> 640 60<120.824 260>
VStem: 50 60<354.388 628.728> 260 60<0 148.599 340 640> 270 50<1.63214 277.745> 390 60<0 148.599 151.311 700> 400 50<1.63214 366.562>
LayerCount: 2
Fore
SplineSet
390 312 m 1xf2
 390 700 l 1
 450 700 l 1
 450 0 l 1
 390 0 l 1xf2
 395 34 400 121 400 150 c 3xf1
 400 177 395 267 390 312 c 1xf2
260 640 m 1xf8
 190 640 l 3
 140 640 122 630 110 600 c 1
 110 380 l 1
 124 354 146 340 190 340 c 3
 260 340 l 1
 260 640 l 1xf8
320 700 m 1xf4
 320 0 l 1
 260 0 l 1xf8
 265 34 270 121 270 150 c 3xf4
 270 177 265 232 260 280 c 1xf8
 190 280 l 3
 109 280 86 310 50 335 c 1
 50 650 l 1
 74 682 148 700 190 700 c 3
 320 700 l 1xf4
EndSplineSet
Validated: 1
EndChar

StartChar: uni00B5
Encoding: 181 181 169
Width: 500
Flags: W
HStem: 10 60<198.599 366.153>
VStem: 50 60<-180 90 107.652 470> 390 60<95.0405 470>
LayerCount: 2
Fore
SplineSet
110 -180 m 0
 50 -180 l 0
 50 469.938 l 2
 50 470 l 1
 110 490 l 1
 110 120 l 1
 129.179 101.917 223 70 290 70 c 3
 346 70 390 94.7764 390 140 c 2
 390 470 l 1
 450 490 l 1
 450 115 l 2
 450 39.8271 371.408 10 300 10 c 3
 219.6 10 139 54 110 90 c 1
 110 -180 l 0
EndSplineSet
Validated: 1
EndChar

StartChar: cedilla
Encoding: 184 184 171
Width: 500
Flags: W
HStem: -10 190
VStem: 220 60<120 180>
LayerCount: 2
Fore
SplineSet
150 -10 m 1
 220 120 l 1
 220 180 l 5
 280 180 l 5
 280 120 l 1
 192 -10 l 1
 150 -10 l 1
EndSplineSet
Validated: 1
EndChar

StartChar: ccedilla
Encoding: 231 231 172
Width: 500
Flags: W
HStem: 440 60<181.862 345.524>
VStem: 50 60<136.194 355.126> 240 60<-62 -9>
LayerCount: 2
Fore
SplineSet
300 -9 m 1
 300 -62 l 1
 212 -192 l 1
 170 -192 l 1
 240 -62 l 1
 240 -8.43434 l 1
 78.5117 8.97968 50 166.988 50 230 c 2
 50 270 l 2
 50 320.16 87.9722 500 250 500 c 0
 334.752 500 412 455 450 415 c 1
 450 360 l 1
 406 401 305 440 250 440 c 0
 145.995 440 110 319.648 110 270 c 2
 110 230 l 2
 110 169.991 141.965 50 270 50 c 0
 324.009 50 394 73 450 100 c 1
 450 40 l 1
 407.998 16.3739 359.876 -4.18942 297.579 -8.95965 c 1
 300 -9 l 1
EndSplineSet
Validated: 524289
EndChar

StartChar: divide
Encoding: 247 247 183
Width: 500
Flags: W
HStem: 20 60<220 280> 210 60<50 450> 420 60<220 280>
VStem: 220 60<20 80 420 480>
LayerCount: 2
Fore
SplineSet
50 270 m 1
 450 270 l 1
 450 210 l 5
 50 210 l 5
 50 270 l 1
EndSplineSet
Refer: 2 46 N 1 0 0 1 0 -20 2
Refer: 2 46 N 1 0 0 1 0 380 2
Validated: 1
EndChar

StartChar: germandbls
Encoding: 223 223 186
Width: 500
Flags: W
HStem: -190 21G<50 110> 0 60<220 318.577> 390 60<180 310.088> 640 60<110 297.031>
VStem: 50 60<-190 640> 330 60<468.324 612.296> 390 60<128.616 327.539>
LayerCount: 2
Fore
SplineSet
180 450 m 1xfa
 290 450 l 1
 320 472 330 506 330 530 c 3
 330 626 320 636 110 640 c 1
 110 -190 l 25
 50 -190 l 1
 50 700 l 1
 110 700 l 2
 334 700 390 690 390 550 c 3xfc
 390 509 376 456 340 420 c 1
 405 375 450 332 450 220 c 3
 450 88 397 0 220 0 c 1
 220 60 l 1
 362 60 390 146 390 220 c 3
 390 349 345 360 290 390 c 1
 180 390 l 1
 180 450 l 1xfa
EndSplineSet
Validated: 1
EndChar

StartChar: Ccedilla
Encoding: 199 199 208
Width: 500
VWidth: 0
HStem: -190 21G<170 225.968> -8 58<170.5 240 300 379.754> 540 60<174.587 345.578>
VStem: 50 60<100 495.67> 240 60<-64 -6.94092>
LayerCount: 2
Fore
SplineSet
170 -190 m 5
 240 -64 l 1
 240 -8 l 1
 152 2 73 54 50 100 c 1
 50 505 l 1
 82 539 164 600 250 600 c 0
 335 600 412 555 450 515 c 1
 450 460 l 1
 406 501 305 540 250 540 c 0
 214 540 148 511 110 480 c 1
 110 130 l 1
 136 79 192 50 270 50 c 0
 324 50 394 73 450 100 c 1
 450 40 l 1
 409 17 361 -4 300 -9 c 1
 300 -64 l 1
 212 -190 l 1
 170 -190 l 5
EndSplineSet
Validated: 1
EndChar

StartChar: at
Encoding: 64 64 209
Width: 500
Flags: W
HStem: -190 60<172.966 411.367> 0 60<271.048 389.697> 230 60<281.006 389.043> 440 60<174.133 326.185>
VStem: 50 60<-66.5564 383.531> 210 60<69.9373 219.647> 390 60<67.6753 226.387 270 371.465>
LayerCount: 2
Fore
SplineSet
390 210 m 1
 378 224 368 230 340 230 c 3
 290 230 282 214 270 190 c 1
 270 80 l 1
 310 61 312 60 340 60 c 27
 361 60 390 80 390 80 c 0
 390 210 l 1
110 330 m 0
 110 330 110 129 110 0 c 27
 110 -75 175 -130 250 -130 c 3
 367 -130 391 -120 450 -90 c 0
 450 -150 l 0
 397 -180 364 -190 250 -190 c 3
 142 -190 50 -108 50 0 c 27
 50 330 l 3
 50 446 186 500 250 500 c 3
 336 500 450 430 450 330 c 1
 450 30 l 1
 434 18 406 0 340 0 c 3
 286 0 246 10 210 35 c 1
 210 230 l 1
 234 262 268 290 310 290 c 3
 340 290 361 290 390 270 c 1
 390 410 310 440 250 440 c 3
 182 440 110 388 110 330 c 0
EndSplineSet
Validated: 1
EndChar

StartChar: ls
Encoding: 1114113 -1 226
Width: 500
Flags: W
HStem: -10 60<640.88 860.378> -10 40<303.891 436.603> 220 60<677.345 866.703> 440 60<661.823 876.05> 680 20G<50 260>
VStem: 200 60<79.5214 640>
LayerCount: 2
Fore
SplineSet
510 180 m 1x7c
 566 101 635 50 770 50 c 3
 824 50 882 65 900 120 c 1
 884 189 884 220 760 220 c 3
 636 220 594 263 570 390 c 1
 596 468 684 500 770 500 c 3
 855 500 916 477 950 440 c 1
 920 380 l 1
 884 431 825 440 770 440 c 3
 734 440 646 429 630 390 c 1
 640 333 660 280 760 280 c 3
 932 280 948 229 950 80 c 1
 934 35 846 -10 770 -10 c 3xbc
 632 -10 566 29 530 90 c 1
 500 31 459 -10 370 -10 c 3
 295 -10 200 20 200 170 c 2
 200 640 l 1
 50 700 l 1
 260 700 l 1
 260 220 l 2
 260 45 312 30 370 30 c 3
 454 30 490 100 510 180 c 1x7c
EndSplineSet
Validated: 1
Position2: "Latin ligatures positions" dx=0 dy=0 dh=500 dv=0
LCarets2: 2 0 0 
Ligature2: "Latin ligatures" l s
EndChar

StartChar: uniFB00
Encoding: 64256 64256 227
Width: 500
Flags: W
HStem: 0 21G<50 110 450 510> 380 60<110 450 510 800> 640 60<224.099 452.74 595.545 877.172>
VStem: 50 60<0 380 440 531.286> 450 60<0 380 440 574.282>
LayerCount: 2
Fore
SplineSet
50 440 m 1
 50 604 152 700 330 700 c 0
 416 700 476 676 510 640 c 1
 549 677 671 699 749 699 c 0
 787 699 914 689 950 640 c 1
 920 590 l 1
 874 637 794 640 750 640 c 4
 518 640 510 576 510 440 c 1
 800 440 l 1
 800 380 l 1
 510 380 l 1
 510 0 l 1
 450 0 l 1
 450 380 l 1
 110 380 l 1
 110 0 l 1
 50 0 l 1
 50 440 l 1
480 610 m 1
 436 639 405 640 330 640 c 0
 216 640 110 576 110 440 c 1
 450 440 l 1
 450 513 457 570 480 610 c 1
EndSplineSet
Validated: 1
Position2: "Latin ligatures positions" dx=0 dy=0 dh=500 dv=0
Ligature2: "Latin ligatures" f f
LCarets2: 1 0 
EndChar

StartChar: uniFB01
Encoding: 64257 64257 228
Width: 500
Flags: W
HStem: -11 42<779.278 948.842> 0 21G<50 110> 380 60<110 680> 580 60<680 740> 640 60<232.224 507.11>
VStem: 50 60<0 380 440 528.625> 680 60<78.1876 380 580 640>
LayerCount: 2
Fore
SplineSet
680 640 m 1x36
 740 640 l 1
 740 580 l 1
 680 580 l 1
 680 640 l 1x36
50 440 m 1
 50 604 162 700 340 700 c 3
 431 700 548 680 580 640 c 1x6e
 580 580 l 1x36
 516 636 434 640 340 640 c 3
 226 640 110 576 110 440 c 0
 740 440 l 1
 740 190 l 2
 740 41 806 31 831 31 c 3
 858 31 916 33 950 40 c 1
 950 10 l 1
 936 0 856 -11 830 -11 c 3xae
 764 -11 680 20 680 150 c 2
 680 380 l 1
 110 380 l 1
 110 0 l 1
 50 0 l 1x66
 50 440 l 1
EndSplineSet
Validated: 1
Position2: "Latin ligatures positions" dx=0 dy=0 dh=500 dv=0
Ligature2: "Latin ligatures" f i
LCarets2: 1 0 
EndChar

StartChar: hcircumflex
Encoding: 293 293 242
Width: 500
VWidth: 0
HStem: 0 21G<50 110 390 450> 330 60<154.043 354.368> 650 150
VStem: 50 60<0 307.658 462.568 570> 50 50<347.226 570> 390 60<0 295>
DStem2: 70 650 150 650 0.749838 0.661622<59.987 180.402> 240 800 240 730 0.749838 -0.661622<46.3135 166.729>
LayerCount: 2
Fore
SplineSet
110 0 m 1xf4
 50 0 l 1
 50 570 l 1
 110 590 l 1xf4
 105 556 100 515 100 460 c 3xec
 100 408 105 393 110 345 c 1
 168 384 232 390 270 390 c 3
 327 390 403 372 450 295 c 1
 450 0 l 1
 390 0 l 1
 390 260 l 1
 379 303 335 330 270 330 c 3
 221 330 142 315 110 300 c 1
 110 0 l 1xf4
EndSplineSet
Refer: 88 94 N 1 0 0 1 -10 80 2
Validated: 1
EndChar

StartChar: afii10026
Encoding: 1048 1048 271
Width: 500
Flags: MW
HStem: 0 21G<50 158.889 390 450>
VStem: 50 60<60 600> 390 60<0 540>
DStem2: 110 60 150 0 0.406138 0.913812<0 552.348>
LayerCount: 2
Fore
SplineSet
390 540 m 5
 150 0 l 5
 50 0 l 1
 50 600 l 1
 110 600 l 1
 110 60 l 5
 350 600 l 5
 450 600 l 9
 450 0 l 17
 390 0 l 1
 390 540 l 5
EndSplineSet
Validated: 1
EndChar

StartChar: afii10033
Encoding: 1055 1055 273
Width: 500
Flags: W
HStem: 1 21G<50 120 390 450> 540 60<120 276.196>
VStem: 50 70<1 540> 390 60<0 516.955>
LayerCount: 2
Fore
SplineSet
120 540 m 29
 120 1 l 25
 50 1 l 25
 50 600 l 3
 392 600 450 590 450 460 c 2
 450 0 l 1
 390 0 l 1
 390 480 l 2
 390 539 304 532 280 540 c 4
 120 540 l 29
EndSplineSet
Validated: 1
EndChar

StartChar: afii10020
Encoding: 1043 1043 275
Width: 500
Flags: W
HStem: 0 21G<50 110> 540 60<110 450>
VStem: 50 60<0 540>
LayerCount: 2
Fore
SplineSet
110 0 m 5
 50 0 l 17
 50 600 l 1
 450 600 l 1
 450 540 l 1
 110 540 l 5
 110 0 l 5
EndSplineSet
Validated: 1
EndChar

StartChar: afii10018
Encoding: 1041 1041 277
Width: 500
Flags: W
HStem: 0 60<110 330.654> 320 60<110 324.734> 540 60<110 390>
VStem: 50 60<60 320 380 540> 390 60<78.8058 253.023>
LayerCount: 2
Fore
SplineSet
290 320 m 1
 110 320 l 1
 110 60 l 1
 376 60 390 60 390 140 c 3
 390 269 345 290 290 320 c 1
110 540 m 1
 110 380 l 1
 290 380 l 3
 403 380 450 278 450 140 c 3
 450 -0 430 0 110 0 c 2
 50 0 l 1
 50 600 l 1
 390 600 l 25
 390 540 l 25
 110 540 l 1
EndSplineSet
Validated: 1
EndChar

StartChar: afii10042
Encoding: 1064 1064 278
Width: 500
Flags: W
HStem: -10 60<286.088 380>
VStem: 50 60<73.045 580> 210 70<50 580> 380 70<50 580>
LayerCount: 2
Fore
SplineSet
280 600 m 1
 280 50 l 25
 380 50 l 25
 380 580 l 25
 450 600 l 25
 450 -10 l 3
 108 -10 50 0 50 130 c 2
 50 580 l 1
 110 600 l 1
 110 110 l 2
 110 51 186 58 210 50 c 0
 210 580 l 1
 280 600 l 1
EndSplineSet
Validated: 1
EndChar

StartChar: afii10041
Encoding: 1063 1063 279
Width: 500
Flags: W
HStem: 0 21G<390 450> 240 60<162.075 328.516>
VStem: 50 60<388.169 600> 390 60<0 320 337.684 600>
LayerCount: 2
Fore
SplineSet
390 320 m 1
 364 251 283 240 210 240 c 3
 99 240 50 373 50 600 c 0
 110 600 l 3
 110 449 120 300 210 300 c 3
 277 300 371 332 390 350 c 1
 390 600 l 1
 450 600 l 1
 450 0 l 25
 390 0 l 25
 390 320 l 1
EndSplineSet
Validated: 1
EndChar

StartChar: afii10043
Encoding: 1065 1065 280
Width: 500
Flags: W
HStem: -10 60<290.605 380>
VStem: 50 60<70.3772 580> 210 70<50 580> 380 70<50 580> 420 60<-120 -10>
LayerCount: 2
Fore
SplineSet
480 -120 m 1xe8
 420 -120 l 1
 420 -10 l 1xe8
 105 -9 50 4 50 130 c 2
 50 580 l 1
 110 600 l 1
 110 110 l 2
 110 51 186 58 210 50 c 1
 210 580 l 5
 280 600 l 5
 280 50 l 1
 380 50 l 1
 380 580 l 1
 450 600 l 1
 450 50 l 1xf0
 480 50 l 1
 480 -120 l 1xe8
EndSplineSet
Validated: 1
EndChar

StartChar: afii10040
Encoding: 1062 1062 281
Width: 500
Flags: W
HStem: -10 60<194.603 380>
VStem: 50 60<74.5328 580> 380 70<50 580> 420 60<-120 -10>
LayerCount: 2
Fore
SplineSet
480 -120 m 5xd0
 420 -120 l 1
 420 -10 l 1xd0
 105 -9 50 4 50 130 c 2
 50 580 l 1
 110 600 l 1
 110 110 l 3
 110 66 145 51 380 50 c 1
 380 580 l 1
 450 600 l 1
 450 50 l 1xe0
 480 50 l 5
 480 -120 l 5xd0
EndSplineSet
Validated: 1
EndChar

StartChar: afii10049
Encoding: 1071 1071 282
Width: 500
Flags: W
HStem: 0 21G<50 112.5 390 450> 280 60<304.14 390> 540 60<178.229 390>
VStem: 50 60<0 106.016> 70 60<364.821 498.217> 390 60<0 280 337.031 540>
LayerCount: 2
Fore
SplineSet
390 600 m 6xec
 450 600 l 5
 450 0 l 5
 390 0 l 5
 390 280 l 5
 256 260 115 185 110 0 c 5
 50 0 l 5xf4
 50 170 95 215 160 260 c 5
 90 326 70 399 70 440 c 7
 70 599 166 600 390 600 c 6xec
390 540 m 5
 180 536 130 530 130 420 c 7xec
 130 396 159 339 210 290 c 5
 250 312 336 334 390 340 c 5
 390 540 l 5
EndSplineSet
Validated: 1
EndChar

StartChar: afii10021
Encoding: 1044 1044 284
Width: 500
Flags: W
HStem: -10 60<120 380> 540 60<120 380>
VStem: 20 60<-120 -10> 50 70<50 540> 380 70<50 540> 420 60<-120 -10>
LayerCount: 2
Fore
SplineSet
120 50 m 1xd8
 380 50 l 1
 380 540 l 1
 120 540 l 1
 120 50 l 1xd8
20 50 m 5xe4
 50 50 l 1
 50 600 l 1
 450 600 l 1
 450 50 l 1xd8
 480 50 l 1
 480 -120 l 1
 420 -120 l 1
 420 -10 l 1
 80 -10 l 1
 80 -120 l 1
 20 -120 l 5
 20 50 l 5xe4
EndSplineSet
Validated: 1
EndChar

StartChar: uni04AE
Encoding: 1198 1198 317
Width: 500
Flags: W
HStem: 0 21G<220 280> 300 50<149.301 220 280 369.356>
VStem: 50 60<384.172 580> 220 60<0 300> 390 60<365.138 580>
CounterMasks: 1 38
LayerCount: 2
Fore
SplineSet
220 300 m 5
 133 303 50 329 50 450 c 2
 50 580 l 1
 110 600 l 1
 110 429 l 2
 110 352 235 350 270 350 c 0
 303 350 350 358 390 370 c 1
 390 580 l 1
 450 600 l 1
 450 370 l 1
 420 335 352 309 280 302 c 1
 280 0 l 1
 220 0 l 5
 220 300 l 5
EndSplineSet
Validated: 1
EndChar

StartChar: IJ
Encoding: 306 306 330
Width: 500
VWidth: 0
Flags: W
HStem: -179 58<83.2049 309.42> 0 21G<150 210>
VStem: 150 60<0 580> 390 60<-3.69263 580>
LayerCount: 2
Fore
SplineSet
210 600 m 5
 210 0 l 5
 150 0 l 5
 150 580 l 5
 210 600 l 5
450 600 m 1
 450 190 l 2
 450 41 442 -179 251 -179 c 3
 213 -179 82 -160 50 -150 c 1
 50 -100 l 1
 84 -110 206 -121 250 -121 c 3
 352 -121 390 20 390 150 c 2
 390 580 l 1
 450 600 l 1
EndSplineSet
Validated: 1
EndChar

StartChar: ij
Encoding: 307 307 331
Width: 500
VWidth: 0
Flags: W
HStem: -179 58<83.2049 309.42> -11 42<216.397 260> 480 20G<120 180 390 450> 600 60<120 180 390 450>
VStem: 120 60<70 500 600 660> 390 60<-3.69263 500 600 660>
LayerCount: 2
Fore
SplineSet
120 660 m 1
 180 660 l 1
 180 600 l 1
 120 600 l 1
 120 660 l 1
260 -11 m 3
 194 -11 120 20 120 150 c 2
 120 500 l 1
 180 500 l 1
 180 190 l 2
 180 41 236 31 261 31 c 0
 260 -11 l 3
390 660 m 1
 450 660 l 1
 450 600 l 1
 390 600 l 1
 390 660 l 1
450 500 m 1
 450 190 l 2
 450 41 442 -179 251 -179 c 3
 213 -179 82 -160 50 -150 c 1
 50 -100 l 1
 84 -110 206 -121 250 -121 c 3
 352 -121 390 20 390 150 c 2
 390 500 l 1
 450 500 l 1
EndSplineSet
Validated: 1
EndChar

StartChar: Theta
Encoding: 920 920 333
Width: 500
Flags: HW
HStem: -10 60<129.17 355.737> 270 70<160 340> 540 60<140.645 356.933>
VStem: 50 60<70.9273 513.303> 390 60<74.9599 526.166>
LayerCount: 2
Fore
SplineSet
160 340 m 1
 340 340 l 1
 340 270 l 1
 160 270 l 1
 160 340 l 1
EndSplineSet
Refer: 39 79 N 1 0 0 1 0 0 2
Validated: 1
EndChar

StartChar: Sigma
Encoding: 931 931 334
Width: 500
Flags: MW
HStem: 3 60<159.967 449.967> 540 60<159.967 449.967>
DStem2: 160 540 50 600 0.470588 -0.882353<0 235.294> 50 0 160 60 0.470588 0.882353<104.706 340>
LayerCount: 2
Fore
SplineSet
210 300 m 5
 50 600 l 1
 450 600 l 1
 450 540 l 1
 160 540 l 1
 290 300 l 5
 160 60 l 5
 450 60 l 1
 450 0 l 1
 50 0 l 5
 210 300 l 5
EndSplineSet
Validated: 1
EndChar

StartChar: Phi
Encoding: 934 934 335
Width: 500
Flags: W
HStem: 0 21G<220 280> 80 60<130.319 220 280 356.833> 449 60<138.334 220 280 359.6>
VStem: 50 60<160.719 423.552> 220 60<0 80 144 449 509 600> 390 60<164.812 435.706>
CounterMasks: 1 1c
LayerCount: 2
Fore
SplineSet
220 509 m 1
 220 600 l 1
 280 600 l 1
 280 503 l 1
 345 493 417 475 450 460 c 1
 450 125 l 1
 407 105 339 89 280 83 c 1
 280 0 l 1
 220 0 l 1
 220 80 l 1
 151 82 84 101 50 125 c 1
 50 450 l 1
 109 493 150 509 220 509 c 1
220 449 m 1
 181 446 144 435 110 410 c 1
 110 170 l 1
 147 152 185 142 220 140 c 1
 220 449 l 1
280 449 m 1
 280 144 l 1
 319 151 355 162 390 170 c 1
 390 430 l 1
 357 440 319 447 280 449 c 1
EndSplineSet
Validated: 1
EndChar

StartChar: eta
Encoding: 951 951 336
Width: 500
Flags: W
HStem: -190 21G<390 450> 0 21G<50 110> 440 60<131.181 339.305>
VStem: 50 60<0 427.766> 390 60<-190 399.545>
LayerCount: 2
Fore
SplineSet
50 0 m 1
 50 435 l 1
 108 474 168 500 250 500 c 3
 340 500 428 448 450 385 c 1
 450 -190 l 1
 390 -190 l 1
 390 360 l 2
 390 413 303 440 220 440 c 3
 179 440 135 431 110 420 c 1
 110 0 l 1
 50 0 l 1
EndSplineSet
Validated: 1
EndChar

StartChar: phi1
Encoding: 981 981 338
Width: 500
Flags: W
HStem: 0 21G<220 280> 80 60<130.319 220 280 356.833> 369 60<139.365 220 280 359.6>
VStem: 50 60<160.719 343.552> 220 60<0 80 144 369 429 510> 390 60<164.812 355.706>
CounterMasks: 1 1c
LayerCount: 2
Fore
SplineSet
220 429 m 1
 220 510 l 1
 280 510 l 1
 280 423 l 1
 345 413 417 395 450 380 c 1
 450 125 l 1
 407 105 339 89 280 83 c 1
 280 0 l 1
 220 0 l 1
 220 80 l 1
 151 82 84 101 50 125 c 1
 50 370 l 1
 107 421 148 429 220 429 c 1
220 369 m 1
 181 366 144 355 110 330 c 1
 110 170 l 1
 147 152 185 142 220 140 c 1
 220 369 l 1
280 369 m 1
 280 144 l 1
 319 151 355 162 390 170 c 1
 390 350 l 1
 357 360 319 367 280 369 c 1
EndSplineSet
Validated: 1
EndChar

StartChar: afii10068
Encoding: 1075 1075 339
Width: 500
Flags: W
HStem: 0 21G<50 110> 440 60<110 450>
VStem: 50 60<0 440>
LayerCount: 2
Fore
SplineSet
110 0 m 1
 50 0 l 17
 50 500 l 5
 450 500 l 5
 450 440 l 5
 110 440 l 5
 110 0 l 1
EndSplineSet
Validated: 1
EndChar

StartChar: afii10069
Encoding: 1076 1076 340
Width: 500
Flags: W
HStem: -10 60<120 380> 440 60<120 380>
VStem: 20 60<-120 -10> 50 70<50 440> 380 70<50 440> 420 60<-120 -10>
LayerCount: 2
Fore
SplineSet
120 50 m 1xd8
 380 50 l 1
 380 440 l 5
 120 440 l 5
 120 50 l 1xd8
20 50 m 1xe4
 50 50 l 1
 50 500 l 5
 450 500 l 5
 450 50 l 1xd8
 480 50 l 1
 480 -120 l 1
 420 -120 l 1
 420 -10 l 1
 80 -10 l 1
 80 -120 l 1
 20 -120 l 1
 20 50 l 1xe4
EndSplineSet
Validated: 1
EndChar

StartChar: afii10081
Encoding: 1087 1087 341
Width: 500
Flags: W
HStem: 1 21G<50 120 390 450> 440 60<120 276.196>
VStem: 50 70<1 440> 390 60<0 416.955>
LayerCount: 2
Fore
SplineSet
120 440 m 25
 120 1 l 25
 50 1 l 25
 50 500 l 3
 392 500 450 490 450 360 c 2
 450 0 l 1
 390 0 l 1
 390 380 l 2
 390 439 304 432 280 440 c 0
 280 440 182 440 120 440 c 25
EndSplineSet
Validated: 1
EndChar

StartChar: afii10084
Encoding: 1090 1090 342
Width: 500
Flags: W
HStem: 0 21G<220 280> 440 60<50 220 280 450>
VStem: 220 60<0 440>
LayerCount: 2
Fore
SplineSet
450 440 m 1
 280 440 l 1
 280 0 l 9
 220 0 l 25
 220 440 l 1
 50 440 l 1
 50 500 l 1
 450 500 l 1
 450 440 l 1
EndSplineSet
Validated: 1
EndChar

StartChar: afii10088
Encoding: 1094 1094 345
Width: 500
Flags: W
HStem: -10 60<194.603 380> 480 20G<50 110 380 450>
VStem: 50 60<74.5328 480> 380 70<50 480> 420 60<-120 -10>
LayerCount: 2
Fore
SplineSet
480 -120 m 1xe8
 420 -120 l 1
 420 -10 l 1xe8
 105 -9 50 4 50 130 c 2
 50 480 l 5
 110 500 l 5
 110 110 l 3
 110 66 145 51 380 50 c 1
 380 480 l 5
 450 500 l 5
 450 50 l 1xf0
 480 50 l 1
 480 -120 l 1xe8
EndSplineSet
Validated: 1
EndChar

StartChar: afii10089
Encoding: 1095 1095 346
Width: 500
Flags: W
HStem: 0 21G<390 450> 190 60<153.959 328.516> 480 20G<50 110 390 450>
VStem: 50 60<308.227 500> 390 60<0 270 287.684 500>
LayerCount: 2
Fore
SplineSet
390 270 m 1
 364 201 283 190 210 190 c 3
 99 190 50 273 50 500 c 4
 110 500 l 7
 110 349 120 250 210 250 c 3
 277 250 371 282 390 300 c 1
 390 500 l 5
 450 500 l 5
 450 0 l 25
 390 0 l 25
 390 270 l 1
EndSplineSet
Validated: 1
EndChar

StartChar: afii10090
Encoding: 1096 1096 347
Width: 500
Flags: W
HStem: -10 60<286.088 380> 480 20G<50 110 210 280 380 450>
VStem: 50 60<73.045 480> 210 70<50 480> 380 70<50 480>
LayerCount: 2
Fore
SplineSet
280 500 m 1
 280 50 l 25
 380 50 l 25
 380 480 l 25
 450 500 l 25
 450 -10 l 3
 108 -10 50 0 50 130 c 2
 50 480 l 1
 110 500 l 1
 110 110 l 2
 110 51 186 58 210 50 c 0
 210 480 l 1
 280 500 l 1
EndSplineSet
Validated: 1
EndChar

StartChar: afii10091
Encoding: 1097 1097 348
Width: 500
Flags: W
HStem: -10 60<290.605 380> 480 20G<50 110 210 280 380 450>
VStem: 50 60<70.3772 480> 210 70<50 480> 380 70<50 480> 420 60<-120 -10>
LayerCount: 2
Fore
SplineSet
480 -120 m 1xf4
 420 -120 l 1
 420 -10 l 1xf4
 105 -9 50 4 50 130 c 2
 50 480 l 1
 110 500 l 1
 110 110 l 2
 110 51 186 58 210 50 c 1
 210 480 l 5
 280 500 l 5
 280 50 l 1
 380 50 l 1
 380 480 l 1
 450 500 l 1
 450 50 l 1xf8
 480 50 l 1
 480 -120 l 1xf4
EndSplineSet
Validated: 1
EndChar

StartChar: afii10079
Encoding: 1085 1085 349
Width: 500
Flags: W
HStem: 0 21G<50 110 390 450> 230 60<110 390> 480 20G<50 110 390 450>
VStem: 50 60<0 230 290 480> 390 60<0 230 290 480>
LayerCount: 2
Fore
SplineSet
390 0 m 1
 390 230 l 1
 110 230 l 1
 110 0 l 1
 50 0 l 1
 50 480 l 5
 110 500 l 5
 110 290 l 1
 390 290 l 1
 390 480 l 5
 450 500 l 13
 450 0 l 17
 390 0 l 1
EndSplineSet
Validated: 1
EndChar

StartChar: afii10078
Encoding: 1084 1084 350
Width: 500
Flags: W
HStem: 0 21G<50 120 210 280 390 450> 440 60<120 202.322>
VStem: 50 70<1 440> 210 70<0 440> 390 60<0 416.955>
LayerCount: 2
Fore
SplineSet
210 0 m 1
 210 440 l 25
 120 440 l 25
 120 1 l 25
 50 1 l 25
 50 500 l 3
 392 500 450 490 450 360 c 2
 450 0 l 1
 390 0 l 1
 390 380 l 2
 390 439 304 432 280 440 c 0
 280 0 l 1
 210 0 l 1
EndSplineSet
Validated: 1
EndChar

StartChar: afii10067
Encoding: 1074 1074 351
Width: 500
Flags: W
HStem: 0 60<110 330.654> 220 60<110 317.295> 440 60<110 297.031>
VStem: 50 60<60 220 280 440> 330 60<293.766 412.296> 390 60<72.7156 167.516>
CounterMasks: 1 e0
LayerCount: 2
Fore
SplineSet
290 220 m 1xf4
 110 220 l 1
 110 60 l 1
 376 60 390 66 390 100 c 3
 390 174 345 190 290 220 c 1xf4
110 0 m 2
 50 0 l 1
 50 500 l 1
 110 500 l 2
 334 500 390 490 390 350 c 3xf8
 390 309 376 286 340 250 c 1
 405 205 450 182 450 100 c 3
 450 12 430 0 110 0 c 2
110 440 m 1
 110 280 l 1
 290 280 l 1
 320 302 330 306 330 330 c 3
 330 426 320 436 110 440 c 1
EndSplineSet
Validated: 1
EndChar

StartChar: afii10074
Encoding: 1080 1080 352
Width: 500
Flags: MW
HStem: 0 21G<50 160.909 390 450> 480 20G<50 110 339.091 450>
VStem: 50 60<60 500> 390 60<0 440>
DStem2: 110 60 150 0 0.478852 0.877896<0 467.679>
LayerCount: 2
Fore
SplineSet
390 440 m 5
 150 0 l 5
 50 0 l 1
 50 500 l 1
 110 500 l 1
 110 60 l 5
 350 500 l 5
 450 500 l 9
 450 0 l 17
 390 0 l 1
 390 440 l 5
EndSplineSet
Validated: 1
EndChar

StartChar: afii10097
Encoding: 1103 1103 353
Width: 500
Flags: W
HStem: 0 21G<50 112.5 390 450> 230 60<285.453 390> 440 60<192.852 390>
VStem: 50 60<0 98.9648> 70 60<299.119 398.011> 390 60<0 230 287.031 440>
LayerCount: 2
Fore
SplineSet
390 500 m 2xec
 450 500 l 1
 450 0 l 1
 390 0 l 1
 390 230 l 1
 256 210 115 185 110 0 c 1
 50 0 l 1xf4
 55 101 95 165 160 210 c 1
 90 276 70 319 70 360 c 3
 70 446 166 500 390 500 c 2xec
390 440 m 1
 180 436 130 416 130 340 c 3xec
 130 316 159 289 210 240 c 1
 250 262 336 284 390 290 c 1
 390 440 l 1
EndSplineSet
Validated: 1
EndChar

StartChar: afii10046
Encoding: 1068 1068 354
Width: 500
Flags: W
HStem: 0 60<110 330.654> 320 60<110 324.734>
VStem: 50 60<60 320 380 600> 390 60<78.8058 253.023>
LayerCount: 2
Fore
SplineSet
290 320 m 1
 110 320 l 1
 110 60 l 1
 376 60 390 60 390 140 c 3
 390 269 345 290 290 320 c 1
110 600 m 5
 110 380 l 1
 290 380 l 3
 403 380 450 278 450 140 c 3
 450 -0 430 0 110 0 c 2
 50 0 l 1
 50 600 l 5
 110 600 l 5
EndSplineSet
Validated: 1
EndChar

StartChar: Psi
Encoding: 936 936 355
Width: 500
Flags: W
HStem: 0 21G<220 280> 230 60<130.319 220 280 356.833>
VStem: 50 60<310.719 600> 220 60<0 230 294 600> 390 60<314.812 600>
CounterMasks: 1 38
LayerCount: 2
Fore
SplineSet
450 600 m 1
 450 275 l 1
 407 255 339 239 280 233 c 1
 280 0 l 1
 220 0 l 1
 220 230 l 1
 151 232 84 251 50 275 c 1
 50 600 l 1
 110 600 l 1
 110 320 l 1
 147 302 185 292 220 290 c 1
 220 600 l 1
 280 600 l 1
 280 294 l 1
 319 301 355 312 390 320 c 1
 390 600 l 1
 450 600 l 1
EndSplineSet
Validated: 1
EndChar

StartChar: psi
Encoding: 968 968 356
Width: 500
Flags: W
HStem: 0 21G<220 280> 130 60<130.319 220 280 356.833> 480 20G<220 280>
VStem: 50 60<210.719 450> 220 60<0 130 194 500> 390 60<214.812 450>
CounterMasks: 1 1c
LayerCount: 2
Fore
SplineSet
450 450 m 1
 450 175 l 1
 407 155 339 139 280 133 c 1
 280 0 l 1
 220 0 l 1
 220 130 l 1
 151 132 84 151 50 175 c 1
 50 450 l 1
 110 450 l 1
 110 220 l 1
 147 202 185 192 220 190 c 1
 220 500 l 1
 280 500 l 1
 280 194 l 1
 319 201 355 212 390 220 c 1
 390 450 l 1
 450 450 l 1
EndSplineSet
Validated: 1
EndChar

StartChar: afii10094
Encoding: 1100 1100 357
Width: 500
Flags: W
HStem: 0 60<110 330.654> 270 60<110 342.47> 480 20G<50 110>
VStem: 50 60<60 270 330 500> 390 60<78.8058 222.494>
LayerCount: 2
Fore
SplineSet
290 270 m 1
 110 270 l 1
 110 60 l 1
 376 60 390 60 390 140 c 3
 390 209 361 257 290 270 c 1
110 500 m 1
 110 330 l 1
 290 330 l 3
 403 330 450 242 450 140 c 3
 450 0 430 0 110 0 c 2
 50 0 l 1
 50 500 l 1
 110 500 l 1
EndSplineSet
Validated: 1
EndChar

StartChar: phi
Encoding: 966 966 359
Width: 500
Flags: W
HStem: -190 21G<220 280> 50 60<130.319 220 280 356.833> 449 61<280 388.349> 480 20G<50 110>
VStem: 50 60<130.719 500> 220 60<-190 50 114 449> 390 60<134.812 435.706>
CounterMasks: 1 0e
LayerCount: 2
Fore
SplineSet
220 510 m 1xee
 280 510 l 1xee
 388 505 417 475 450 460 c 1
 450 95 l 1
 407 75 339 59 280 53 c 1
 280 -190 l 1
 220 -190 l 1
 220 50 l 1
 151 52 84 71 50 95 c 1
 50 500 l 1
 110 500 l 1xde
 110 140 l 1
 147 122 185 112 220 110 c 1
 220 510 l 1xee
280 449 m 1
 280 114 l 1
 319 121 355 132 390 140 c 1
 390 430 l 1
 357 440 319 447 280 449 c 1
EndSplineSet
Validated: 1
EndChar

StartChar: afii10076
Encoding: 1082 1082 360
Width: 500
Flags: HMW
HStem: 0 21G<50 110 341.481 450> 480 20G<50 110 270 356.842>
VStem: 50 60<0 270 350 480>
DStem2: 110 350 160 310 0.756823 0.65362<11.6964 206.062> 160 310 110 270 0.683157 -0.730271<0 363.016>
LayerCount: 2
Fore
SplineSet
160 310 m 1
 450 0 l 1
 360 0 l 1
 110 270 l 1
 110 0 l 1
 50 0 l 1
 50 290 l 1
 50 480 l 1
 110 500 l 1
 110 350 l 1
 260 480 l 5
 380 500 l 1
 160 310 l 1
EndSplineSet
Validated: 1
EndChar

StartChar: kappa
Encoding: 954 954 361
Width: 500
Flags: W
HStem: 0 21G<50 110 341.481 450> 480 20G<50 110 270 356.842>
VStem: 50 60<0 270 350 480>
DStem2: 110 350 160 310 0.756823 0.65362<11.6964 206.062> 160 310 110 270 0.683157 -0.730271<0 363.016>
LayerCount: 2
Fore
SplineSet
160 310 m 1
 450 0 l 1
 360 0 l 1
 110 270 l 1
 110 0 l 1
 50 0 l 1
 50 290 l 1
 50 480 l 1
 110 500 l 1
 110 350 l 1
 250 480 l 1
 380 500 l 1
 160 310 l 1
EndSplineSet
Validated: 1
EndChar

StartChar: afii10025
Encoding: 1047 1047 362
Width: 500
Flags: W
HStem: 0 60<50 274.473> 280 60<110 309.86> 540 60<50 267.996>
VStem: 330 60<359.638 497.624> 390 60<89.2792 237.989>
LayerCount: 2
Fore
SplineSet
50 600 m 3xf0
 364 600 390 563 390 450 c 3xf0
 390 409 376 346 340 310 c 1
 418 287 450 252 450 140 c 3
 450 0 370 0 50 0 c 2
 50 60 l 1
 316 60 390 60 390 140 c 3xe8
 390 269 345 250 290 280 c 1
 110 280 l 1
 110 340 l 1
 290 340 l 1
 320 362 330 406 330 430 c 3
 330 512 298 536 50 540 c 1
 50 600 l 3xf0
EndSplineSet
Validated: 1
EndChar

StartChar: afii10073
Encoding: 1079 1079 363
Width: 500
Flags: W
HStem: 0 60<50 274.473> 230 60<110 312.571> 440 60<50 275.319>
VStem: 330 60<306.358 403.214> 390 60<91.3127 195.624>
LayerCount: 2
Fore
SplineSet
50 500 m 3xf0
 364 500 390 463 390 350 c 3xf0
 390 309 379 275 340 260 c 1
 418 237 450 209 450 130 c 3
 450 -0 370 0 50 0 c 2
 50 60 l 1
 316 60 390 71 390 130 c 3xe8
 390 200 364 206 290 230 c 1
 110 230 l 1
 110 290 l 1
 290 290 l 1
 320 312 330 336 330 360 c 3
 330 410 298 436 50 440 c 1
 50 500 l 3xf0
EndSplineSet
Validated: 1
EndChar

StartChar: Delta
Encoding: 916 916 366
Width: 500
Flags: MW
HStem: 0 60<150 348>
DStem2: 50 0 150 60 0.316228 0.948683<88.5438 433.232> 250 600 250 390 0.316228 -0.948683<199.223 543.279>
LayerCount: 2
Fore
SplineSet
50 0 m 1
 250 600 l 5
 450 0 l 1
 50 0 l 1
358 60 m 1
 250 390 l 1
 150 60 l 1
 358 60 l 1
EndSplineSet
Validated: 1
EndChar

StartChar: Lambda
Encoding: 923 923 367
Width: 500
Flags: MW
HStem: 0 21G<50 136.154 363.846 450>
DStem2: 50 0 130 0 0.316228 0.948683<25.2982 433.232> 250 600 250 390 0.316228 -0.948683<199.223 607.157>
LayerCount: 2
Fore
SplineSet
450 0 m 1
 370 0 l 1
 250 390 l 5
 130 0 l 5
 50 0 l 5
 250 600 l 5
 450 0 l 1
EndSplineSet
Validated: 1
EndChar

StartChar: epsilon
Encoding: 949 949 368
Width: 500
Flags: W
HStem: 0 60<225.527 450> 230 60<187.429 390> 440 60<224.681 450>
VStem: 50 60<91.3127 195.624> 110 60<306.358 403.214>
LayerCount: 2
Fore
SplineSet
450 500 m 3xe8
 450 440 l 1
 202 436 170 410 170 360 c 3xe8
 170 336 180 312 210 290 c 1
 390 290 l 1
 390 230 l 1
 210 230 l 1
 136 206 110 200 110 130 c 3
 110 71 184 60 450 60 c 1
 450 0 l 2
 130 0 50 0 50 130 c 3xf0
 50 209 82 237 160 260 c 1
 121 275 110 309 110 350 c 3
 110 463 136 500 450 500 c 3xe8
EndSplineSet
Validated: 1
EndChar

StartChar: afii10093
Encoding: 1099 1099 369
Width: 500
Flags: W
HStem: 0 60<110 273.185> 270 60<110 242.47> 480 20G<50 110 390 450>
VStem: 50 60<60 270 330 500> 290 60<78.1273 222.494> 390 60<0 500>
LayerCount: 2
Fore
SplineSet
390 0 m 9
 390 500 l 1
 450 500 l 1
 450 0 l 17
 390 0 l 9
190 270 m 1
 110 270 l 1
 110 60 l 1
 262 60 290 60 290 140 c 3
 290 209 261 257 190 270 c 1
110 500 m 1
 110 330 l 1
 190 330 l 3
 303 330 350 242 350 140 c 3
 350 0 319 0 110 0 c 2
 50 0 l 1
 50 500 l 1
 110 500 l 1
EndSplineSet
Validated: 1
EndChar

StartChar: afii10092
Encoding: 1098 1098 370
Width: 500
Flags: W
HStem: 0 60<210 373.185> 270 60<210 342.47> 440 60<50 150>
VStem: 150 60<60 270 330 440> 390 60<78.1273 222.494>
LayerCount: 2
Fore
SplineSet
290 270 m 5
 210 270 l 5
 210 60 l 5
 362 60 390 60 390 140 c 7
 390 209 361 257 290 270 c 5
210 500 m 5
 210 330 l 5
 290 330 l 7
 403 330 450 242 450 140 c 7
 450 0 419 0 210 0 c 6
 150 0 l 5
 150 440 l 13
 50 440 l 25
 50 500 l 25
 210 500 l 5
EndSplineSet
Validated: 1
EndChar

StartChar: afii10044
Encoding: 1066 1066 371
Width: 500
Flags: W
HStem: 0 60<210 363.593> 320 60<210 324.734> 540 60<50 150>
VStem: 150 60<60 320 380 540> 390 60<83.0195 253.023>
LayerCount: 2
Fore
SplineSet
290 320 m 1
 210 320 l 1
 210 60 l 1
 370 62 390 77 390 140 c 3
 390 269 345 290 290 320 c 1
210 600 m 1
 210 380 l 1
 290 380 l 3
 403 380 450 278 450 140 c 3
 450 0 431 0 210 0 c 2
 150 0 l 1
 150 540 l 9
 50 540 l 25
 50 600 l 25
 210 600 l 1
EndSplineSet
Validated: 1
EndChar

StartChar: afii10045
Encoding: 1067 1067 372
Width: 500
Flags: W
HStem: 0 60<110 268.766> 320 60<110 224.734>
VStem: 50 60<60 320 380 600> 290 60<79.4794 253.023> 390 60<0 600>
LayerCount: 2
Fore
SplineSet
390 0 m 13
 390 600 l 5
 450 600 l 5
 450 0 l 21
 390 0 l 13
190 320 m 1
 110 320 l 1
 110 60 l 1
 277 62 290 74 290 140 c 3
 290 269 245 290 190 320 c 1
110 600 m 1
 110 380 l 1
 190 380 l 3
 303 380 350 278 350 140 c 3
 350 0 331 0 110 0 c 2
 50 0 l 1
 50 600 l 1
 110 600 l 1
EndSplineSet
Validated: 1
EndChar

StartChar: breve
Encoding: 728 728 373
Width: 500
Flags: W
HStem: 650 70<196.782 303.218>
VStem: 80 80<759.012 800> 340 80<759.012 800>
LayerCount: 2
Fore
SplineSet
250 720 m 3
 319 720 340 800 340 800 c 1
 420 800 l 1
 420 800 370 650 250 650 c 3
 130 650 80 800 80 800 c 1
 160 800 l 1
 160 800 181 720 250 720 c 3
EndSplineSet
Validated: 1
EndChar

StartChar: OE
Encoding: 338 338 389
Width: 500
VWidth: 0
Flags: W
HStem: 0 60<134.127 230 290 450> 330 60<290 430> 540 60<133.208 230 290 450>
VStem: 50 60<82.6784 517.992> 230 60<60 330 390 540>
LayerCount: 2
Fore
SplineSet
230 600 m 27
 450 600 l 1
 450 540 l 1
 290 540 l 1
 290 390 l 1
 430 390 l 1
 430 330 l 1
 290 330 l 1
 290 60 l 1
 450 60 l 1
 450 0 l 1
 230 0 l 3
 158 0 82 23 50 55 c 1
 50 520 l 1
 76 567 153 600 230 600 c 27
230 540 m 3
 152 540 132 527 110 490 c 1
 110 100 l 1
 138 69 192 60 230 60 c 13
 230 540 l 3
EndSplineSet
Validated: 1
EndChar

StartChar: oe
Encoding: 339 339 390
Width: 500
VWidth: 0
Flags: W
HStem: 0 60<125.59 210 270 386.159> 220 60<270 362.271> 440 60<135.286 210 270 352.427>
VStem: 50 60<77.3112 415.818> 210 60<60 220 280 440> 390 60<306.867 408.45>
CounterMasks: 1 e0
LayerCount: 2
Fore
SplineSet
210 440 m 1
 160 440 120 421 110 380 c 1
 110 100 l 1
 126 73 154 61 210 60 c 1
 210 440 l 1
240 500 m 3
 327 500 450 459 450 370 c 3
 450 240 342 220 270 220 c 9
 270 60 l 3
 307 60 388 62 450 100 c 1
 450 60 l 1
 388 0 283 0 240 0 c 3
 168 0 78 17 50 55 c 1
 50 420 l 1
 64 475 122 500 240 500 c 3
270 280 m 1
 348 280 390 300 390 370 c 3
 390 414 318 440 270 440 c 1
 270 280 l 1
EndSplineSet
Validated: 1
EndChar

StartChar: afii10024
Encoding: 1046 1046 391
Width: 500
Flags: HMW
HStem: 0 21G<50 140.084 220 280 359.916 450>
VStem: 220 60<0 178.5 421.455 600>
DStem2: 120 600 50 600 0.470588 -0.882353<0 208.597 447.206 447.206 523.773 651.765> 50 0 130 0 0.470588 0.882353<37.6471 237.5 480.107 680>
LayerCount: 2
Fore
SplineSet
290 300 m 1
 450 0 l 1
 380 0 l 1
 280 180 l 1
 280 0 l 1
 220 0 l 1
 220 180 l 5
 130 0 l 1
 50 0 l 1
 210 300 l 1
 50 600 l 1
 120 600 l 1
 220 410 l 1
 220 600 l 1
 280 600 l 1
 280 410 l 1
 370 600 l 1
 450 600 l 1
 290 300 l 1
EndSplineSet
Validated: 1
EndChar

StartChar: afii10072
Encoding: 1078 1078 392
Width: 500
Flags: HMW
HStem: 0 21G<50 140.682 220 280 368.131 450> 480 20G<50 130.924 220 280 359.919 450>
VStem: 220 60<0 168.5 321.454 500>
DStem2: 120 500 50 500 0.488603 -0.872506<0 208.596> 50 0 130 0 0.488603 0.872506<39.0883 230.08> 280 321.454 310 250 0.488603 0.872506<0 199.757> 310 250 280 168.5 0.488603 -0.872506<56.4511 252.329>
LayerCount: 2
Fore
SplineSet
310 250 m 1
 450 0 l 1
 380 0 l 1
 280 170 l 1
 280 0 l 1
 220 0 l 1
 220 170 l 5
 130 0 l 1
 50 0 l 1
 190 250 l 1
 50 500 l 1
 120 500 l 1
 220 310 l 1
 220 500 l 1
 280 500 l 1
 280 310 l 1
 370 500 l 1
 450 500 l 1
 310 250 l 1
EndSplineSet
Validated: 1
EndChar

StartChar: afii10048
Encoding: 1070 1070 394
Width: 500
Flags: W
HStem: -10 60<214.797 379.23> 0 21G<50 110> 260 70<110 150> 540 60<224.005 375.903>
VStem: 50 60<0 260 330 600> 150 60<57.4158 260 330 524.616> 390 60<65.0622 527.171>
LayerCount: 2
Fore
SplineSet
450 35 m 1x7e
 394 9 344 -10 280 -10 c 0xbe
 208 -10 186 10 150 35 c 1
 150 260 l 5
 110 260 l 5
 110 0 l 1
 50 0 l 1
 50 600 l 1
 110 600 l 1
 110 330 l 5
 150 330 l 5
 150 540 l 1
 162 581 208 600 250 600 c 0
 323 600 402 572 450 550 c 1
 450 35 l 1x7e
390 520 m 1
 349 533 348 540 300 540 c 0
 250 540 226 529 210 500 c 1
 210 80 l 1
 222 55 242 50 280 50 c 0
 338 50 368 59 390 80 c 1
 390 520 l 1
EndSplineSet
Validated: 1
EndChar

StartChar: afii10096
Encoding: 1102 1102 395
Width: 500
Flags: W
HStem: -10 60<214.797 379.23> 0 21G<50 110> 200 70<110 150> 440 60<224.005 375.903>
VStem: 50 60<0 200 270 500> 150 60<57.4158 200 270 424.616> 390 60<65.0622 427.171>
LayerCount: 2
Fore
SplineSet
450 35 m 1x7e
 394 9 344 -10 280 -10 c 0xbe
 208 -10 186 10 150 35 c 1
 150 200 l 1
 110 200 l 1
 110 0 l 1
 50 0 l 1
 50 500 l 5
 110 500 l 5
 110 270 l 1
 150 270 l 1
 150 440 l 5
 162 481 208 500 250 500 c 4
 323 500 402 472 450 450 c 5
 450 35 l 1x7e
390 420 m 5
 349 433 348 440 300 440 c 4
 250 440 226 429 210 400 c 5
 210 80 l 1
 222 55 242 50 280 50 c 0
 338 50 368 59 390 80 c 1
 390 420 l 5
EndSplineSet
Validated: 1
EndChar

StartChar: Xi
Encoding: 926 926 396
Width: 500
Flags: W
HStem: 0 70<50 450> 280 70<100 400> 530 70<50 450>
LayerCount: 2
Fore
SplineSet
50 600 m 1
 450 600 l 1
 450 530 l 1
 50 530 l 1
 50 600 l 1
50 70 m 1
 450 70 l 1
 450 0 l 1
 50 0 l 1
 50 70 l 1
100 350 m 5
 400 350 l 5
 400 280 l 5
 100 280 l 5
 100 350 l 5
EndSplineSet
Validated: 1
EndChar

StartChar: afii10029
Encoding: 1051 1051 397
Width: 500
Flags: W
HStem: -10 40<51.1145 142.276> 0 21G<390 450> 540 60<220 369.531>
VStem: 160 60<45.3399 540> 390 60<0 516.955>
LayerCount: 2
Fore
SplineSet
220 150 m 17x78
 220 20 176 -10 110 -10 c 3
 84 -10 64 0 50 10 c 1
 50 40 l 1
 84 33 83 30 110 30 c 3xb8
 135 30 160 39 160 190 c 9
 160 600 l 3
 428 600 450 590 450 460 c 2
 450 0 l 1
 390 0 l 1
 390 480 l 2
 390 539 305 540 280 540 c 0
 280 540 243 540 220 540 c 29
 220 150 l 17x78
EndSplineSet
Validated: 1
EndChar

StartChar: afii10077
Encoding: 1083 1083 398
Width: 500
Flags: W
HStem: -10 40<51.1145 142.276> 0 21G<390 450> 440 60<220 369.531>
VStem: 160 60<45.3399 440> 390 60<0 416.955>
LayerCount: 2
Fore
SplineSet
220 150 m 17x78
 220 20 176 -10 110 -10 c 3
 84 -10 64 0 50 10 c 1
 50 40 l 1
 84 33 83 30 110 30 c 3xb8
 135 30 160 39 160 190 c 9
 160 500 l 3
 428 500 450 490 450 360 c 2
 450 0 l 1
 390 0 l 1
 390 380 l 2
 390 439 305 440 280 440 c 0
 280 440 243 440 220 440 c 29
 220 150 l 17x78
EndSplineSet
Validated: 1
EndChar

StartChar: afii10047
Encoding: 1069 1069 399
Width: 500
Flags: W
HStem: -10 60<119.422 328.99> 250 70<100 390> 540 60<154.422 325.413>
VStem: 390 60<100 250 320 495.67>
LayerCount: 2
Fore
SplineSet
390 320 m 1
 390 480 l 1
 352 511 286 540 250 540 c 0
 195 540 94 501 50 460 c 1
 50 515 l 1
 88 555 165 600 250 600 c 0
 336 600 418 539 450 505 c 1
 450 100 l 1
 424 49 330 -10 230 -10 c 0
 154 -10 98 13 50 40 c 1
 50 100 l 1
 106 73 176 50 230 50 c 0
 308 50 364 79 390 130 c 1
 390 250 l 1
 100 250 l 1
 100 320 l 1
 390 320 l 1
EndSplineSet
Validated: 1
EndChar

StartChar: afii10095
Encoding: 1101 1101 400
Width: 500
Flags: W
HStem: -10 60<119.422 328.99> 200 70<100 390> 440 60<154.422 325.413>
VStem: 390 60<100 200 270 395.67>
LayerCount: 2
Fore
SplineSet
390 270 m 5
 390 380 l 5
 352 411 286 440 250 440 c 4
 195 440 94 401 50 360 c 5
 50 415 l 5
 88 455 165 500 250 500 c 4
 336 500 418 439 450 405 c 5
 450 100 l 1
 424 49 330 -10 230 -10 c 0
 154 -10 98 13 50 40 c 1
 50 100 l 1
 106 73 176 50 230 50 c 0
 308 50 364 79 390 130 c 1
 390 200 l 5
 100 200 l 5
 100 270 l 5
 390 270 l 5
EndSplineSet
Validated: 1
EndChar

StartChar: afii10101
Encoding: 1108 1108 401
Width: 500
Flags: W
HStem: -10 60<171.01 380.578> 200 70<110 400> 440 60<174.587 345.578>
VStem: 50 60<100 200 270 395.67>
LayerCount: 2
Fore
SplineSet
110 270 m 5
 400 270 l 5
 400 200 l 5
 110 200 l 5
 110 130 l 5
 136 79 192 50 270 50 c 4
 324 50 394 73 450 100 c 5
 450 40 l 5
 402 13 346 -10 270 -10 c 4
 170 -10 76 49 50 100 c 5
 50 405 l 5
 82 439 164 500 250 500 c 4
 335 500 412 455 450 415 c 5
 450 360 l 5
 406 401 305 440 250 440 c 4
 214 440 148 411 110 380 c 5
 110 270 l 5
EndSplineSet
Validated: 1
EndChar

StartChar: afii10053
Encoding: 1028 1028 402
Width: 500
Flags: W
HStem: -10 60<171.01 380.578> 250 70<110 400> 540 60<174.587 345.578>
VStem: 50 60<100 250 320 495.67>
LayerCount: 2
Fore
SplineSet
110 320 m 1
 400 320 l 1
 400 250 l 1
 110 250 l 1
 110 130 l 1
 136 79 192 50 270 50 c 0
 324 50 394 73 450 100 c 1
 450 40 l 1
 402 13 346 -10 270 -10 c 0
 170 -10 76 49 50 100 c 1
 50 505 l 1
 82 539 164 600 250 600 c 0
 335 600 412 555 450 515 c 1
 450 460 l 1
 406 501 305 540 250 540 c 0
 214 540 148 511 110 480 c 1
 110 320 l 1
EndSplineSet
Validated: 1
EndChar

StartChar: afii10145
Encoding: 1039 1039 403
Width: 500
Flags: W
HStem: -10 60<153.386 220 280 380>
VStem: 50 60<74.4594 580> 220 60<-120 -10> 380 70<50 580>
LayerCount: 2
Fore
SplineSet
280 -120 m 1
 220 -120 l 1
 220 -10 l 3
 115 -10 50 4 50 130 c 9
 50 580 l 1
 110 600 l 1
 110 110 l 3
 110 66 145 51 380 50 c 1
 380 580 l 1
 450 600 l 1
 450 -10 l 1
 280 -10 l 1
 280 -120 l 1
EndSplineSet
Validated: 1
EndChar

StartChar: afii10193
Encoding: 1119 1119 404
Width: 500
Flags: W
HStem: -10 60<153.386 220 280 380> 480 20G<50 110 380 450>
VStem: 50 60<74.4594 480> 220 60<-120 -10> 380 70<50 480>
LayerCount: 2
Fore
SplineSet
280 -120 m 1
 220 -120 l 1
 220 -10 l 3
 129 -10 50 4 50 130 c 2
 50 480 l 1
 110 500 l 1
 110 110 l 3
 110 66 145 51 380 50 c 1
 380 480 l 1
 450 500 l 1
 450 -10 l 1
 280 -10 l 1
 280 -120 l 1
EndSplineSet
Validated: 1
EndChar

StartChar: afii10066
Encoding: 1073 1073 405
Width: 500
Flags: W
HStem: 0 60<110 330.654> 270 60<110 342.47>
VStem: 50 60<60 270 330 443.774> 390 60<78.8058 222.494>
LayerCount: 2
Fore
SplineSet
290 270 m 1
 110 270 l 1
 110 60 l 1
 376 60 390 60 390 140 c 3
 390 209 361 257 290 270 c 1
50 430 m 27
 50 582 267 569 390 620 c 9
 390 543 l 17
 292 510 110 517 110 380 c 0
 110 330 l 1
 290 330 l 3
 403 330 450 242 450 140 c 3
 450 0 430 0 110 0 c 2
 50 0 l 1
 50 430 l 27
EndSplineSet
Validated: 1
EndChar

StartChar: Euro
Encoding: 8364 8364 407
Width: 500
Flags: W
HStem: -10 60<171.01 380.578> 180 70<110 400> 320 70<110 400> 540 60<174.587 345.578>
VStem: 50 60<100 180 250 320 390 495.67>
LayerCount: 2
Fore
SplineSet
110 250 m 1
 400 250 l 1
 400 180 l 1
 110 180 l 1
 110 130 l 1
 136 79 192 50 270 50 c 0
 324 50 394 73 450 100 c 1
 450 40 l 1
 402 13 346 -10 270 -10 c 0
 170 -10 76 49 50 100 c 1
 50 505 l 1
 82 539 164 600 250 600 c 0
 335 600 412 555 450 515 c 1
 450 460 l 1
 406 501 305 540 250 540 c 0
 214 540 148 511 110 480 c 1
 110 390 l 1
 400 390 l 1
 400 320 l 1
 110 320 l 1
 110 250 l 1
EndSplineSet
Validated: 1
EndChar

StartChar: sterling
Encoding: 163 163 408
Width: 500
Flags: W
HStem: 0 60<110 450> 230 60<110 310> 540 60<185.831 362.105>
VStem: 50 60<60 230 290 433.333>
LayerCount: 2
Fore
SplineSet
110 230 m 1
 110 60 l 1
 450 60 l 1
 450 0 l 1
 50 0 l 1
 50 250 l 2
 50 399 59 600 250 600 c 3
 288 600 358 580 390 570 c 1
 390 520 l 1
 356 530 294 540 250 540 c 3
 148 540 110 414 110 290 c 9
 310 290 l 9
 310 230 l 25
 110 230 l 1
EndSplineSet
Validated: 1
EndChar

StartChar: yen
Encoding: 165 165 409
Width: 500
Flags: W
HStem: 0 21G<220 280> 70 60<110 220 280 390> 190 60<110 220 280 390> 302 48<149.301 220 280 375.111>
VStem: 50 60<384.172 580> 220 60<0 70 130 190 250 300> 390 60<365.138 580>
CounterMasks: 1 0e
LayerCount: 2
Fore
SplineSet
110 429 m 2
 110 352 235 350 270 350 c 0
 303 350 350 358 390 370 c 1
 390 580 l 1
 450 600 l 1
 450 370 l 1
 420 335 352 309 280 302 c 1
 280 250 l 1
 390 250 l 1
 390 190 l 1
 280 190 l 1
 280 130 l 1
 390 130 l 1
 390 70 l 1
 280 70 l 1
 280 0 l 1
 220 0 l 1
 220 70 l 1
 110 70 l 1
 110 130 l 1
 220 130 l 1
 220 190 l 1
 110 190 l 1
 110 250 l 1
 220 250 l 1
 220 300 l 1
 133 303 50 329 50 450 c 2
 50 580 l 1
 110 600 l 1
 110 429 l 2
EndSplineSet
Validated: 1
EndChar

StartChar: Dcroat
Encoding: 272 272 424
Width: 500
Flags: W
HStem: -10 60<161.049 347.859> 270 60<50 100 160 290> 540 60<160 341.257>
VStem: 100 60<56.3405 270 330 540> 390 60<102.29 486.073>
LayerCount: 2
Fore
SplineSet
390 370 m 2
 390 465 368 540 270 540 c 2
 160 540 l 1
 160 330 l 1
 290 330 l 1
 290 270 l 1
 160 270 l 1
 160 60 l 1
 202 51 262 50 300 50 c 0
 358 50 390 121 390 220 c 2
 390 370 l 2
450 175 m 2
 450 61 364 -10 300 -10 c 0
 228 -10 136 0 100 15 c 1
 100 270 l 1
 50 270 l 1
 50 330 l 1
 100 330 l 1
 100 600 l 1
 270 600 l 2
 398 600 450 509 450 400 c 2
 450 175 l 2
EndSplineSet
Validated: 1
EndChar

StartChar: dcroat
Encoding: 273 273 426
Width: 500
Flags: W
HStem: -10 60<118.944 328.707> 380 60<133.322 302.526> 530 60<210 330 390 450> 680 20G<330 390>
VStem: 50 60<63.3484 357.722> 330 60<57.2001 355.503 395 530 590 700>
LayerCount: 2
Fore
SplineSet
330 700 m 1
 390 700 l 1
 390 590 l 1
 450 590 l 1
 450 530 l 1
 390 530 l 1
 390 0 l 1
 362 -3 282 -10 240 -10 c 0
 111 -10 50 10 50 40 c 2
 50 365 l 1
 64 399 117 440 200 440 c 0
 257 440 307 426 330 395 c 1
 330 530 l 1
 210 530 l 1
 210 590 l 1
 330 590 l 1
 330 700 l 1
330 60 m 1
 330 340 l 1
 298 369 255 380 200 380 c 0
 164 380 145 372 110 340 c 1
 110 90 l 2
 110 65 142 50 240 50 c 0
 262 50 312 58 330 60 c 1
EndSplineSet
Validated: 1
EndChar

StartChar: Oslash
Encoding: 216 216 427
Width: 500
Flags: MW
HStem: -10 60<168.658 355.737> 540 60<140.645 315.294>
VStem: 50 60<80 513.303> 390 60<74.9599 524.952>
DStem2: 60 -50 120 -50 0.401025 0.916067<24.0615 71.1741 143.162 639.478 701.102 774.725>
LayerCount: 2
Fore
SplineSet
450 35 m 1
 394 9 294 -10 230 -10 c 0
 200 -10 169 -6 142 -0 c 1
 120 -50 l 1
 60 -50 l 1
 89 15 l 1
 73 21 60 28 50 35 c 1
 50 540 l 1
 74 572 158 600 200 600 c 0
 237 600 288 593 336 583 c 1
 370 660 l 1
 430 660 l 1
 392 570 l 1
 416 563 436 556 450 550 c 1
 450 35 l 1
316 536 m 5
 294 539 272 540 250 540 c 0
 200 540 153 532 110 500 c 1
 110 80 l 1
 112 79 114 78 116 77 c 5
 316 536 l 5
372 525 m 5
 168 59 l 5
 189 53 210 50 230 50 c 0
 288 50 341 69 390 80 c 1
 390 520 l 1
 384 522 378 524 372 525 c 5
EndSplineSet
Validated: 1
EndChar

StartChar: oslash
Encoding: 248 248 428
Width: 500
Flags: W
HStem: -10 60<176.479 355.737> 440 60<140.645 314.723>
VStem: 50 60<73.0945 413.303> 390 60<74.9599 425.906>
LayerCount: 2
Fore
SplineSet
360 520 m 1
 420 520 l 1
 393 469 l 1
 417 463 436 456 450 450 c 1
 450 35 l 1
 394 9 294 -10 230 -10 c 0
 201 -10 172 -7 145 -1 c 1
 130 -30 l 1
 70 -30 l 1
 93 14 l 1
 76 20 61 27 50 35 c 1
 50 440 l 1
 74 472 158 500 200 500 c 0
 238 500 291 492 340 482 c 1
 360 520 l 1
176 57 m 1
 194 52 213 50 230 50 c 0
 288 50 341 69 390 80 c 1
 390 420 l 1
 384 422 377 424 370 426 c 1
 176 57 l 1
125 73 m 1
 316 436 l 1
 294 439 272 440 250 440 c 0
 200 440 153 432 110 400 c 1
 110 80 l 1
 115 78 120 75 125 73 c 1
EndSplineSet
Validated: 1
EndChar

StartChar: Aring
Encoding: 197 197 429
Width: 500
VWidth: 0
HStem: 1 21G<50 110 390 450> 240 60<110 390> 739 60<196.724 297.569>
VStem: 50 60<1 240 300 540> 120 60<602.132 722.171> 320 60<617.279 718.17> 390 60<0 240 300 469.99>
LayerCount: 2
Fore
SplineSet
241 589 m 3
 292 589 320 645 320 659 c 0
 320 676 304 739 260 739 c 0
 190 739 180 700 180 659 c 3
 180 618 197 591 241 589 c 3
390 300 m 1
 390 420 l 2
 390 516 200 540 110 540 c 1
 110 300 l 1
 390 300 l 1
110 240 m 1
 110 1 l 1
 50 1 l 1
 50 600 l 1
 75 600 98 600 120 599 c 1
 120 739 l 1
 137 772 188 799 230 799 c 0
 303 799 364 777 380 749 c 1
 380 574 l 1
 374 568 367 563 359 559 c 1
 432 525 450 472 450 400 c 2
 450 0 l 1
 390 0 l 1
 390 240 l 1
 110 240 l 1
EndSplineSet
Validated: 1
EndChar

StartChar: AE
Encoding: 198 198 430
Width: 500
Flags: W
HStem: 0 60<300 450> 270 60<110 240 300 410> 540 60<300 450>
VStem: 50 60<1 270 330 540> 240 60<60 270 330 494.496>
CounterMasks: 1 e0
LayerCount: 2
Fore
SplineSet
300 330 m 1
 410 330 l 1
 410 270 l 1
 300 270 l 1
 300 60 l 1
 450 60 l 1
 450 0 l 1
 240 0 l 1
 240 270 l 1
 110 270 l 1
 110 1 l 1
 50 1 l 1
 50 600 l 1
 145 600 204 588 240 549 c 1
 240 600 l 1
 450 600 l 1
 450 540 l 1
 300 540 l 1
 300 330 l 1
240 420 m 2
 240 516 171 536 110 540 c 1
 110 330 l 1
 240 330 l 1
 240 420 l 2
EndSplineSet
Validated: 1
EndChar

StartChar: ae
Encoding: 230 230 431
Width: 500
Flags: W
HStem: 0 60<110.806 174.5 288.452 417.519> 220 60<114.219 220 280 377.259> 440 60<90.875 209.741 291.59 377.254>
VStem: 50 60<61.5103 210.785> 220 60<80 220 280 431.092> 390 60<290.43 428.811>
CounterMasks: 1 fc
LayerCount: 2
Fore
SplineSet
170 440 m 0
 102 440 67 410 50 370 c 1
 50 430 l 1
 63 465 106 500 170 500 c 0
 212 500 238 487 254 465 c 1
 275 493 302 500 330 500 c 0
 417 500 450 423 450 370 c 0
 450 240 413 220 340 220 c 0
 280 220 l 1
 280 130 l 1
 284 73 290 60 340 60 c 0
 377 60 430 66 450 100 c 1
 450 60 l 1
 419 0 362 0 340 0 c 0
 311 0 267 5 249 18 c 1
 150 0 l 1
 78 0 67 15 50 35 c 1
 50 230 l 1
 55 258 78 280 120 280 c 0
 220 280 l 1
 220 425 214 440 170 440 c 0
280 370 m 1
 280 280 l 1
 340 280 l 2
 370 280 390 300 390 370 c 0
 390 407 378 440 330 440 c 0
 300 440 285 424 280 370 c 1
220 220 m 0
 170 220 113 217 110 190 c 1
 110 80 l 1
 114 63 131 60 150 60 c 1
 220 80 l 1
 220 220 l 0
EndSplineSet
Validated: 1
EndChar

StartChar: lcommaaccent
Encoding: 316 316 435
Width: 500
VWidth: 0
HStem: -190 21G<255 310.538> 680 20G<50 260>
VStem: 200 60<79.5214 640> 325 60<-60 -7.65991>
LayerCount: 2
Fore
SplineSet
255 -190 m 1
 325 -60 l 1
 325 -6 l 1
 262 6 200 49 200 170 c 2
 200 640 l 1
 50 700 l 1
 260 700 l 1
 260 220 l 2
 260 45 312 30 370 30 c 0
 396 30 424 32 450 40 c 1
 450 10 l 1
 433 -4 411 -8 385 -10 c 1
 385 -60 l 1
 297 -190 l 1
 255 -190 l 1
EndSplineSet
Validated: 1
EndChar

StartChar: lacute
Encoding: 314 314 436
Width: 500
VWidth: 0
HStem: -10 40<303.891 448.919> 650 150
VStem: 150 220 200 60<79.5214 540>
DStem2: 160 680 210 650 0.780869 0.624695<20.3026 192.094>
LayerCount: 2
Fore
SplineSet
50 600 m 1xd0
 260 600 l 1
 260 220 l 2xd0
 260 45 312 30 370 30 c 3
 396 30 424 32 450 40 c 1
 450 10 l 1
 430 -6 403 -10 370 -10 c 3xe0
 295 -10 200 20 200 170 c 2
 200 540 l 1
 50 600 l 1xd0
EndSplineSet
Refer: 108 180 N 1 0 0 1 10 100 2
Validated: 1
EndChar

StartChar: Scedilla
Encoding: 350 350 442
Width: 500
VWidth: 0
HStem: -190 21G<170 225.538> 540 60<179.309 358.188>
VStem: 50 70<407.353 495.67> 240 60<-60 -5.2113> 390 60<109.732 235.199>
LayerCount: 2
Fore
SplineSet
170 -190 m 1
 240 -60 l 1
 240 -8 l 1
 152 2 73 54 50 100 c 1
 110 130 l 1
 136 79 192 50 270 50 c 0
 324 50 390 113 390 170 c 0
 390 216 376 261 250 300 c 1
 74 351 52 332 50 505 c 1
 82 539 164 600 250 600 c 0
 335 600 412 580 450 540 c 1
 420 480 l 1
 376 521 305 540 250 540 c 0
 214 540 158 511 120 480 c 1
 121 405 144 388 250 360 c 0
 418 316 450 286 450 170 c 0
 450 79 371 10 300 -6 c 1
 300 -60 l 1
 212 -190 l 1
 170 -190 l 1
EndSplineSet
Validated: 1
EndChar

StartChar: scedilla
Encoding: 351 351 443
Width: 500
VWidth: 0
HStem: -190 21G<170 225.538> -8 58<170.5 240 300 361.208> 220 60<177.345 366.703> 440 60<161.823 376.05>
VStem: 240 60<-60 -5.13907>
LayerCount: 2
Fore
SplineSet
170 -190 m 1
 240 -60 l 1
 240 -8 l 1
 152 2 73 54 50 100 c 1
 110 130 l 1
 136 79 192 50 270 50 c 0
 324 50 382 65 400 120 c 1
 384 189 384 220 260 220 c 0
 136 220 94 263 70 390 c 1
 96 468 184 500 270 500 c 0
 355 500 416 477 450 440 c 1
 420 380 l 1
 384 431 325 440 270 440 c 0
 234 440 146 429 130 390 c 1
 140 333 160 280 260 280 c 0
 432 280 448 229 450 80 c 1
 436 41 368 2 300 -8 c 1
 300 -60 l 1
 212 -190 l 1
 170 -190 l 1
EndSplineSet
Validated: 1
EndChar

StartChar: tcommaaccent
Encoding: 355 355 445
Width: 500
VWidth: 0
HStem: -190 21G<190 245.538> -9 49<188.18 260 320 448.722> 440 60<110 380>
VStem: 50 60<119.734 440 500 620> 260 60<-60 -9>
LayerCount: 2
Fore
SplineSet
190 -190 m 1
 260 -60 l 1
 260 -9 l 1
 178 -3 50 35 50 220 c 2
 50 620 l 1
 110 640 l 1
 110 500 l 1
 380 500 l 1
 380 440 l 1
 110 440 l 1
 110 220 l 2
 110 49 232 40 290 40 c 0
 316 40 424 52 450 60 c 1
 450 10 l 1
 434 -3 365 -7 320 -9 c 1
 320 -60 l 1
 232 -190 l 1
 190 -190 l 1
EndSplineSet
Validated: 1
EndChar

StartChar: Gcommaaccent
Encoding: 290 290 446
Width: 500
VWidth: 0
HStem: -190 21G<175 230.538> -9 59<170.5 245 305 370.939> 240 60<200 390> 540 60<174.587 345.578>
VStem: 50 60<100 495.67> 245 60<-60 -6.20813> 390 60<69.9748 240>
LayerCount: 2
Fore
SplineSet
175 -190 m 1
 245 -60 l 1
 245 -9 l 1
 155 -0 74 53 50 100 c 1
 50 505 l 1
 82 539 164 600 250 600 c 0
 335 600 412 555 450 515 c 1
 450 460 l 1
 406 501 305 540 250 540 c 0
 214 540 148 511 110 480 c 1
 110 130 l 1
 136 79 192 50 270 50 c 0
 324 50 334 53 390 80 c 1
 390 240 l 1
 200 240 l 1
 200 300 l 1
 450 300 l 1
 450 40 l 1
 410 17 364 -3 305 -8 c 1
 305 -60 l 1
 217 -190 l 1
 175 -190 l 1
EndSplineSet
Validated: 1
EndChar

StartChar: longs
Encoding: 383 383 448
Width: 500
Flags: W
HStem: 0 21G<150 210> 330 60<50 150> 640 60<283.779 417.174>
VStem: 150 60<0 330 390 527.954>
LayerCount: 2
Fore
SplineSet
210 390 m 1
 210 0 l 1
 150 0 l 1
 150 330 l 1
 50 330 l 1
 50 390 l 1
 150 390 l 1
 150 554 228 700 330 700 c 7
 390 700 416 686 450 650 c 1
 450 610 l 1
 406 639 372 640 330 640 c 7
 264 640 210 526 210 390 c 1
EndSplineSet
Validated: 1
EndChar

StartChar: copyright
Encoding: 169 169 449
Width: 500
Flags: HW
HStem: -10 60<129.1 355.676> 140 60<239.934 320> 290 60<235.792 320> 440 60<140.555 356.98>
VStem: 50 60<70.8566 413.232> 170 60<211.242 282.553> 390 60<75.0222 426.067>
LayerCount: 2
Fore
SplineSet
320 290 m 3
 246 290 230 281 230 250 c 3
 230 215 250 200 320 200 c 0
 320 140 l 3
 225 140 170 158 170 250 c 3
 170 335 201 350 320 350 c 0
 320 290 l 3
EndSplineSet
Refer: 22 111 N 1 0 0 1 0 0 2
Validated: 524289
EndChar

StartChar: logicalnot
Encoding: 172 172 450
Width: 500
Flags: W
HStem: 210 60<100 340>
VStem: 340 60<89 210>
LayerCount: 2
Fore
SplineSet
400 89 m 5
 340 89 l 5
 340 210 l 1
 100 210 l 1
 100 270 l 1
 400 270 l 1
 400 89 l 5
EndSplineSet
Validated: 1
EndChar

StartChar: registered
Encoding: 174 174 472
Width: 500
Flags: HW
HStem: -10 60<129.1 355.676> 310 50<220 268.146> 440 60<140.555 356.98>
VStem: 50 60<70.8566 413.232> 160 60<130 190 240 310> 270 60<130 170.291 241.824 307.327> 390 60<75.0222 426.067>
LayerCount: 2
Fore
SplineSet
220 360 m 2
 314 360 330 307 330 290 c 3
 330 249 318 223 280 210 c 1
 324 189 330 165 330 130 c 1
 270 130 l 1
 254 161 258 171 220 190 c 1
 220 130 l 1
 160 130 l 1
 160 360 l 1
 220 360 l 2
270 280 m 3
 270 303 260 310 220 310 c 0
 220 240 l 3
 259 240 270 242 270 280 c 3
EndSplineSet
Refer: 22 111 N 1 0 0 1 0 0 2
Validated: 524289
EndChar

StartChar: uni00B9
Encoding: 185 185 473
Width: 500
Flags: W
HStem: 440 60<120 220 280 380> 640 60<120 220>
VStem: 220 60<500 640>
LayerCount: 2
Fore
SplineSet
280 500 m 1
 380 500 l 1
 380 440 l 9
 120 440 l 17
 120 500 l 1
 220 500 l 1
 220 640 l 1
 120 640 l 1
 120 700 l 1
 280 700 l 1
 280 500 l 1
EndSplineSet
Validated: 1
EndChar

StartChar: uni00B2
Encoding: 178 178 474
Width: 500
Flags: W
HStem: 440 60<200 380> 630 60<120 317.114>
VStem: 120 260<440 594 630 642.136> 320 60<585.256 618.876>
LayerCount: 2
Fore
SplineSet
120 690 m 3xe0
 340 690 380 684 380 600 c 3xd0
 380 492 200 549 200 500 c 0
 380 500 l 25
 380 440 l 1
 120 440 l 0
 120 500 l 2xe0
 120 594 320 564 320 600 c 3xd0
 320 624 271 630 120 630 c 3
 120 690 l 3xe0
EndSplineSet
Validated: 1
EndChar

StartChar: uni00B3
Encoding: 179 179 475
Width: 500
Flags: W
HStem: 440 60<120 316.154> 550 40<200 315.501> 640 60<120 316.154>
VStem: 320 60<510.823 540.535 599.465 629.177>
CounterMasks: 1 e0
LayerCount: 2
Fore
SplineSet
357 570 m 1
 375 552 380 555 380 521 c 0
 380 469 307 440 120 440 c 1
 120 500 l 1
 274 500 320 511 320 520 c 0
 320 544 267 550 200 550 c 1
 200 590 l 1
 267 590 320 596 320 620 c 0
 320 629 274 640 120 640 c 1
 120 700 l 1
 307 700 380 671 380 619 c 0
 380 585 375 588 357 570 c 1
EndSplineSet
Validated: 1
EndChar

StartChar: uni2010
Encoding: 8208 8208 492
Width: 500
VWidth: 0
Flags: W
HStem: 210 60<100 400>
VStem: 100 300<210 270>
LayerCount: 2
Fore
SplineSet
100 210 m 1
 100 270 l 1
 400 270 l 1
 400 210 l 1
 100 210 l 1
EndSplineSet
Validated: 1
EndChar

StartChar: uni2011
Encoding: 8209 8209 493
Width: 500
VWidth: 0
Flags: W
HStem: 210 60<100 400>
VStem: 100 300<210 270>
LayerCount: 2
Fore
SplineSet
100 210 m 1
 100 270 l 1
 400 270 l 1
 400 210 l 1
 100 210 l 1
EndSplineSet
Validated: 1
EndChar

StartChar: figuredash
Encoding: 8210 8210 494
Width: 500
VWidth: 0
Flags: W
HStem: 210 60<100 400>
VStem: 100 300<210 270>
LayerCount: 2
Fore
SplineSet
100 210 m 1
 100 270 l 1
 400 270 l 1
 400 210 l 1
 100 210 l 1
EndSplineSet
Validated: 1
EndChar

StartChar: endash
Encoding: 8211 8211 495
Width: 500
VWidth: 0
Flags: W
HStem: 210 60<100 400>
VStem: 100 300<210 270>
LayerCount: 2
Fore
SplineSet
100 210 m 1
 100 270 l 1
 400 270 l 1
 400 210 l 1
 100 210 l 1
EndSplineSet
Validated: 1
EndChar

StartChar: emdash
Encoding: 8212 8212 496
Width: 500
VWidth: 0
Flags: W
HStem: 210 60<50 450>
LayerCount: 2
Fore
SplineSet
50 210 m 1
 50 270 l 1
 450 270 l 5
 450 210 l 5
 50 210 l 1
EndSplineSet
Validated: 1
EndChar

StartChar: afii00208
Encoding: 8213 8213 497
Width: 500
VWidth: 0
Flags: W
HStem: 210 60<50 450>
LayerCount: 2
Fore
SplineSet
50 210 m 1
 50 270 l 1
 450 270 l 5
 450 210 l 5
 50 210 l 1
EndSplineSet
Validated: 1
EndChar

StartChar: ordfeminine
Encoding: 170 170 516
Width: 500
Flags: W
HStem: 440 60<181.607 282.5> 540 60<180.468 319.628> 640 60<120 306.732>
VStem: 120 60<502.222 537.264> 320 60<505.475 536.064 580 623.261>
CounterMasks: 1 e0
LayerCount: 2
Fore
SplineSet
250 540 m 3
 200 540 180 536 180 520 c 3
 180 508 192 500 230 500 c 3
 270 500 320 503 320 520 c 3
 320 533 298 540 250 540 c 3
120 700 m 3
 315 700 380 690 380 600 c 1
 380 460 l 1
 230 440 l 1
 158 440 131 449 120 475 c 1
 120 540 l 1
 123 571 158 600 200 600 c 3
 255 600 305 591 320 580 c 1
 320 630 299 640 120 640 c 0
 120 700 l 3
EndSplineSet
Validated: 1
EndChar

StartChar: Thorn
Encoding: 222 222 517
Width: 500
Flags: W
HStem: 0 21G<50 110> 90 60<111.807 318.852> 440 60<110 314.37>
VStem: 50 60<0 99 156.033 440 500 600> 390 60<214.585 376.474>
LayerCount: 2
Fore
SplineSet
50 600 m 1
 110 600 l 1
 110 500 l 1
 200 500 l 2
 328 500 450 449 450 340 c 2
 450 235 l 2
 450 121 294 90 230 90 c 0
 188 90 145 93 110 99 c 1
 110 0 l 1
 50 0 l 1
 50 600 l 1
390 310 m 2
 390 405 298 440 200 440 c 2
 110 440 l 1
 110 160 l 1
 152 151 192 150 230 150 c 0
 288 150 390 181 390 280 c 2
 390 310 l 2
EndSplineSet
Validated: 1
EndChar

StartChar: thorn
Encoding: 254 254 518
Width: 500
Flags: W
HStem: -190 21G<50 110> -10 60<111.807 318.852> 340 60<110 314.37>
VStem: 50 60<-190 -1 56.0328 340 400 600> 390 60<114.585 276.474>
LayerCount: 2
Fore
SplineSet
50 600 m 1
 110 600 l 1
 110 400 l 1
 200 400 l 2
 328 400 450 349 450 240 c 2
 450 135 l 2
 450 21 294 -10 230 -10 c 0
 188 -10 145 -7 110 -1 c 1
 110 -190 l 1
 50 -190 l 1
 50 600 l 1
390 210 m 2
 390 305 298 340 200 340 c 2
 110 340 l 1
 110 60 l 1
 152 51 192 50 230 50 c 0
 288 50 390 81 390 180 c 2
 390 210 l 2
EndSplineSet
Validated: 1
EndChar

StartChar: eth
Encoding: 240 240 519
Width: 500
Flags: W
HStem: -10 60<118.944 328.707> 380 60<133.322 302.526> 530 60<210 300 370 450> 680 20G<230 305.5>
VStem: 50 60<63.3484 357.722> 300 60<590 638.156> 330 60<57.2001 355.503 395 527.892>
LayerCount: 2
Fore
SplineSet
390 395 m 1xfa
 390 0 l 1
 362 -3 282 -10 240 -10 c 0
 111 -10 50 10 50 40 c 2
 50 365 l 1
 64 399 117 440 200 440 c 0
 257 440 307 426 330 395 c 1xfa
 330 442 326 494 310 530 c 1
 210 530 l 1
 210 590 l 1
 300 590 l 1
 295 627 260 663 230 700 c 1
 290 700 l 1
 321 671 352 635 360 590 c 1xfc
 450 590 l 1
 450 530 l 1
 370 530 l 1
 389 485 390 442 390 395 c 1xfa
330 60 m 1
 330 340 l 1
 298 369 255 380 200 380 c 0
 164 380 145 372 110 340 c 1
 110 90 l 2
 110 65 142 50 240 50 c 0
 262 50 312 58 330 60 c 1
EndSplineSet
Validated: 1
EndChar

StartChar: onehalf
Encoding: 189 189 520
Width: 500
Flags: HMW
HStem: 0 60<320 500> 190 60<240 437.114> 440 60<0 100 160 260> 640 60<0 100>
VStem: 100 60<500 640> 240 260<0 154 190 202.136> 440 60<145.256 178.876>
DStem2: 50 190 140 190 0.728848 0.684675<65.5963 452.769>
LayerCount: 2
Fore
SplineSet
380 500 m 5xf8
 470 500 l 5
 140 190 l 5
 50 190 l 5
 380 500 l 5xf8
EndSplineSet
Refer: 474 178 N 1 0 0 1 120 -440 2
Refer: 473 185 N 1 0 0 1 -120 0 2
Validated: 1
EndChar

StartChar: uni2074
Encoding: 8308 8308 521
Width: 500
Flags: HMW
HStem: 490 60<200 260 330 380> 680 20G<241.333 330>
VStem: 260 70<440 490 550 616.8>
DStem2: 120 550 200 550 0.682318 0.731055<54.5855 144.359>
LayerCount: 2
Fore
SplineSet
260 620 m 1
 200 550 l 1
 260 550 l 1
 260 620 l 1
330 550 m 1
 380 550 l 1
 380 490 l 1
 330 490 l 1
 330 440 l 1
 260 440 l 1
 260 490 l 1
 120 490 l 1
 120 550 l 1
 260 700 l 1
 330 700 l 1
 330 550 l 1
EndSplineSet
Validated: 1
EndChar

StartChar: onequarter
Encoding: 188 188 522
Width: 500
Flags: HMW
HStem: 50 60<320 380 450 500> 240 20<361.333 450> 440 60<0 100 160 260> 480 20G<358.71 470> 640 60<0 100>
VStem: 100 60<500 640> 380 70<0 50 110 176.8>
DStem2: 50 190 140 190 0.728848 0.684675<65.5963 452.769> 240 110 320 110 0.682318 0.731055<54.5855 144.359>
LayerCount: 2
Fore
SplineSet
380 500 m 5xde
 470 500 l 5
 140 190 l 5
 50 190 l 5
 380 500 l 5xde
EndSplineSet
Refer: 473 185 N 1 0 0 1 -120 0 2
Refer: 521 8308 N 1 0 0 1 120 -440 2
Validated: 1
EndChar

StartChar: threequarters
Encoding: 190 190 523
Width: 500
Flags: HMW
HStem: 50 60<320 380 450 500> 240 20<361.333 450> 440 60<0 196.154> 480 20G<358.71 470> 550 40<80 195.501> 640 60<0 196.154>
VStem: 200 60<510.823 540.535 599.465 629.177> 380 70<0 50 110 176.8>
DStem2: 50 190 140 190 0.728848 0.684675<65.5963 452.769> 240 110 320 110 0.682318 0.731055<54.5855 144.359>
LayerCount: 2
Fore
SplineSet
380 500 m 5xdf
 470 500 l 5
 140 190 l 5
 50 190 l 5
 380 500 l 5xdf
EndSplineSet
Refer: 475 179 N 1 0 0 1 -120 0 2
Refer: 521 8308 N 1 0 0 1 120 -440 2
Validated: 1
EndChar

StartChar: uni04AF
Encoding: 1199 1199 524
Width: 500
Flags: W
HStem: -190 21G<220 280> 0 50<149.301 220 280 369.356> 480 20G<50 110 390 450>
VStem: 50 60<84.1719 480> 220 60<-190 0> 390 60<65.1385 480>
CounterMasks: 1 1c
LayerCount: 2
Fore
SplineSet
220 0 m 1
 133 3 50 29 50 150 c 2
 50 480 l 1
 110 500 l 1
 110 129 l 2
 110 52 235 50 270 50 c 0
 303 50 350 58 390 70 c 1
 390 480 l 1
 450 500 l 1
 450 70 l 1
 420 35 352 9 280 2 c 1
 280 -190 l 1
 220 -190 l 1
 220 0 l 1
EndSplineSet
Validated: 1
EndChar

StartChar: uniFB02
Encoding: 64258 64258 525
Width: 500
Flags: W
HStem: -11 42<779.278 948.842> 0 21G<50 110> 380 60<110 340> 640 60<277.869 655.848>
VStem: 50 60<0 380 440 533.145> 680 60<78.1876 617.318>
LayerCount: 2
Fore
SplineSet
740 190 m 6x7c
 740 41 806 31 831 31 c 4
 858 31 916 33 950 40 c 5
 950 10 l 5
 936 0 856 -11 830 -11 c 4xbc
 764 -11 680 20 680 150 c 6
 680 610 l 5
 627 631 567 640 500 640 c 0
 246 640 110 617 110 440 c 1
 340 440 l 1
 340 380 l 1
 110 380 l 1
 110 0 l 1
 50 0 l 1
 50 440 l 2
 50 668 206 700 500 700 c 0
 591 700 708 680 740 640 c 5
 740 190 l 6x7c
EndSplineSet
Validated: 1
LCarets2: 1 0 
Position2: "Latin ligatures positions" dx=0 dy=0 dh=500 dv=0
Ligature2: "Latin ligatures" f l
EndChar

StartChar: uniFB03
Encoding: 64259 64259 526
Width: 500
Flags: W
HStem: -11 42<1279.28 1448.84> 0 21G<50 110 540 600> 380 60<110 540 600 1180> 580 60<1180 1240> 640 60<224.099 507.355 685.545 967.172>
VStem: 50 60<0 380 440 531.286> 540 60<0 380 440 574.282> 1180 60<78.1876 380 580 640>
LayerCount: 2
Fore
SplineSet
1180 640 m 1x37
 1240 640 l 1
 1240 580 l 1
 1180 580 l 1
 1180 640 l 1x37
600 380 m 1
 600 0 l 1
 540 0 l 1
 540 380 l 1
 110 380 l 1
 110 0 l 1
 50 0 l 1x67
 50 440 l 1
 50 604 152 700 330 700 c 0
 416 700 566 676 600 640 c 1
 639 677 761 699 839 699 c 0
 877 699 1004 689 1040 640 c 1
 1010 590 l 1
 964 637 884 640 840 640 c 0
 608 640 600 576 600 440 c 1
 1240 440 l 1
 1240 190 l 2
 1240 41 1306 31 1331 31 c 3
 1358 31 1416 33 1450 40 c 1
 1450 10 l 1
 1436 0 1356 -11 1330 -11 c 3xaf
 1264 -11 1180 20 1180 150 c 2
 1180 380 l 1
 600 380 l 1
570 610 m 1
 526 639 405 640 330 640 c 0x2f
 216 640 110 576 110 440 c 1
 540 440 l 1
 540 513 547 570 570 610 c 1
EndSplineSet
Validated: 1
LCarets2: 2 0 0 
Position2: "Latin ligatures positions" dx=0 dy=0 dh=1000 dv=0
Ligature2: "Latin ligatures" f f i
EndChar

StartChar: ogonek
Encoding: 731 731 532
Width: 500
Flags: W
HStem: -10 190
VStem: 220 60<120 180>
LayerCount: 2
Fore
SplineSet
308 -10 m 1
 220 120 l 1
 220 180 l 1
 280 180 l 1
 280 120 l 1
 350 -10 l 1
 308 -10 l 1
EndSplineSet
Validated: 1
EndChar

StartChar: ogonek
Encoding: 731 731 533
Width: 500
Flags: W
HStem: -10 190<268 280>
VStem: 220 60<120 180>
LayerCount: 2
Fore
SplineSet
268 -10 m 5
 220 120 l 1
 220 180 l 1
 280 180 l 1
 280 120 l 1
 310 -10 l 5
 268 -10 l 5
EndSplineSet
Validated: 1
EndChar

StartChar: iogonek
Encoding: 303 303 539
Width: 500
VWidth: 0
HStem: -190 21G<400.941 450> 440 60<226.667 250> 600 60<250 310>
VStem: 250 60<69.2909 440 600 660> 360 60<-54 -3.17969>
LayerCount: 2
Fore
SplineSet
250 660 m 1
 310 660 l 1
 310 600 l 1
 250 600 l 1
 250 660 l 1
408 -190 m 1
 360 -54 l 1
 360 -8 l 1
 303 1 250 39 250 150 c 2
 250 440 l 1
 50 500 l 1
 310 500 l 1
 310 190 l 2
 310 41 366 31 391 31 c 0
 418 31 416 33 450 40 c 1
 450 10 l 1
 442 4 432 -2 420 -6 c 1
 420 -54 l 1
 450 -190 l 1
 408 -190 l 1
EndSplineSet
Validated: 1
EndChar

StartChar: hbar
Encoding: 295 295 543
Width: 500
Flags: W
HStem: 0 21G<110 170 390 450> 440 60<209.868 367.389> 550 60<50 110 161 300> 680 20G<110 168.5>
VStem: 110 60<0 419.015 611.682 680> 110 50<456.904 550 610 680> 390 60<0 415.443>
LayerCount: 2
Fore
SplineSet
170 0 m 1xfa
 110 0 l 1xfa
 110 550 l 1
 50 550 l 1
 50 610 l 1
 110 610 l 1xf6
 110 680 l 1
 170 700 l 1xfa
 167 675 163 646 161 610 c 1
 300 610 l 1
 300 550 l 1
 160 550 l 1xf6
 161 513 166 496 170 455 c 1
 228 494 262 500 300 500 c 0
 357 500 403 482 450 405 c 1
 450 0 l 1
 390 0 l 1
 390 370 l 1
 379 413 365 440 300 440 c 0
 251 440 202 425 170 410 c 1
 170 0 l 1xfa
EndSplineSet
Validated: 1
EndChar

StartChar: Hbar
Encoding: 294 294 544
Width: 500
Flags: W
HStem: 0 21G<80 140 360 420> 280 60<140 360> 440 60<50 80 140 360 420 450>
VStem: 80 60<0 280 340 440 500 580> 360 60<0 280 340 440 500 580>
LayerCount: 2
Fore
SplineSet
360 0 m 1
 360 280 l 1
 140 280 l 1
 140 0 l 1
 80 0 l 1
 80 440 l 1
 50 440 l 1
 50 500 l 1
 80 500 l 1
 80 580 l 1
 140 600 l 1
 140 500 l 1
 360 500 l 1
 360 580 l 1
 420 600 l 1
 420 500 l 1
 450 500 l 1
 450 440 l 1
 420 440 l 1
 420 0 l 1
 360 0 l 1
140 440 m 1
 140 340 l 1
 360 340 l 1
 360 440 l 1
 140 440 l 1
EndSplineSet
Validated: 1
EndChar

StartChar: Lslash
Encoding: 321 321 545
Width: 500
Flags: W
HStem: 0 60<170 450>
VStem: 110 60<60 222 294 600>
LayerCount: 2
Fore
SplineSet
170 234 m 1
 170 60 l 1
 450 60 l 1
 450 0 l 1
 110 0 l 1
 110 222 l 1
 50 210 l 1
 50 270 l 1
 110 282 l 1
 110 600 l 1
 170 600 l 1
 170 294 l 1
 350 330 l 1
 350 270 l 1
 170 234 l 1
EndSplineSet
Validated: 1
EndChar

StartChar: lslash
Encoding: 322 322 546
Width: 500
Flags: W
HStem: -10 40<303.891 448.919> 680 20G<50 260>
VStem: 200 60<79.5214 320 392 640>
LayerCount: 2
Fore
SplineSet
50 700 m 1
 260 700 l 1
 260 392 l 1
 400 420 l 1
 400 360 l 1
 260 332 l 1
 260 220 l 2
 260 45 312 30 370 30 c 0
 396 30 424 32 450 40 c 1
 450 10 l 1
 430 -6 403 -10 370 -10 c 0
 295 -10 200 20 200 170 c 2
 200 320 l 1
 100 300 l 1
 100 360 l 1
 200 380 l 1
 200 640 l 1
 50 700 l 1
EndSplineSet
Validated: 1
EndChar

StartChar: Tbar
Encoding: 358 358 547
Width: 500
Flags: W
HStem: 0 21G<220 280> 210 60<100 220 280 400> 540 60<50 220 280 450>
VStem: 220 60<0 210 270 540>
LayerCount: 2
Fore
SplineSet
450 540 m 1
 280 540 l 1
 280 270 l 1
 400 270 l 1
 400 210 l 1
 280 210 l 1
 280 0 l 1
 220 0 l 1
 220 210 l 1
 100 210 l 1
 100 270 l 1
 220 270 l 1
 220 540 l 1
 50 540 l 1
 50 600 l 1
 450 600 l 1
 450 540 l 1
EndSplineSet
Validated: 1
EndChar

StartChar: tbar
Encoding: 359 359 548
Width: 500
Flags: W
HStem: -10 50<226.22 448.875> 210 60<50 110 170 350> 440 60<170 380>
VStem: 110 60<105.195 210 270 440 500 620>
LayerCount: 2
Fore
SplineSet
110 270 m 1
 110 620 l 1
 170 640 l 1
 170 500 l 1
 380 500 l 1
 380 440 l 1
 170 440 l 1
 170 270 l 1
 350 270 l 1
 350 210 l 1
 170 210 l 1
 170 56 252 40 310 40 c 0
 336 40 424 52 450 60 c 1
 450 10 l 1
 430 -6 343 -10 310 -10 c 0
 235 -10 110 0 110 210 c 1
 50 210 l 1
 50 270 l 1
 110 270 l 1
EndSplineSet
Validated: 1
EndChar

StartChar: Eng
Encoding: 330 330 549
Width: 500
Flags: W
HStem: -179 58<135.848 354.016> 0 21G<50 110>
VStem: 50 60<0 540> 390 60<-86.3009 0 60 580>
LayerCount: 2
Fore
SplineSet
390 60 m 1
 390 580 l 1
 450 600 l 1
 450 0 l 2
 450 -149 442 -179 251 -179 c 0
 213 -179 142 -160 110 -150 c 1
 110 -100 l 1
 144 -110 206 -121 250 -121 c 0
 352 -121 390 -100 390 0 c 1
 350 0 l 1
 110 540 l 1
 110 0 l 1
 50 0 l 1
 50 600 l 1
 150 600 l 1
 390 60 l 1
EndSplineSet
Validated: 1
EndChar

StartChar: eng
Encoding: 331 331 550
Width: 500
Flags: W
HStem: -179 58<135.848 357.821> 0 21G<50 110> 440 60<131.181 339.305>
VStem: 50 60<0 427.766> 390 60<-86.3009 399.545>
LayerCount: 2
Fore
SplineSet
50 0 m 1
 50 435 l 1
 108 474 168 500 250 500 c 0
 340 500 428 448 450 385 c 1
 450 0 l 2
 450 -149 442 -179 251 -179 c 0
 213 -179 142 -160 110 -150 c 1
 110 -100 l 1
 144 -110 206 -121 250 -121 c 0
 352 -121 390 -104 390 0 c 2
 390 360 l 2
 390 413 303 440 220 440 c 0
 179 440 135 431 110 420 c 1
 110 0 l 1
 50 0 l 1
EndSplineSet
Validated: 1
EndChar

StartChar: uni03F5
Encoding: 1013 1013 552
Width: 500
Flags: W
HStem: -10 60<171.01 380.578> 200 70<110 400> 440 60<174.587 345.578>
VStem: 50 60<100 200 270 395.67>
LayerCount: 2
Fore
SplineSet
110 270 m 5
 400 270 l 5
 400 200 l 5
 110 200 l 5
 110 130 l 5
 136 79 192 50 270 50 c 4
 324 50 394 73 450 100 c 5
 450 40 l 5
 402 13 346 -10 270 -10 c 4
 170 -10 76 49 50 100 c 5
 50 405 l 5
 82 439 164 500 250 500 c 4
 335 500 412 455 450 415 c 5
 450 360 l 5
 406 401 305 440 250 440 c 4
 214 440 148 411 110 380 c 5
 110 270 l 5
EndSplineSet
Validated: 1
EndChar

StartChar: upsilon
Encoding: 965 965 560
Width: 500
Flags: W
HStem: -20 50<149.369 339.186> 480 20G<50 110 340 417.5>
VStem: 50 60<64.1719 480> 390 60<135.737 417.327>
LayerCount: 2
Fore
SplineSet
110 109 m 2
 110 32 235 30 270 30 c 3
 303 30 324 34 340 50 c 1
 371 128 390 212 390 290 c 0
 390 355 377 415 340 480 c 1
 400 500 l 1
 435 428 450 361 450 290 c 0
 450 211 431 128 400 50 c 1
 365 8 326 -20 240 -20 c 3
 146 -20 50 -0 50 130 c 2
 50 480 l 1
 110 500 l 1
 110 109 l 2
EndSplineSet
Validated: 1
EndChar

StartChar: nu
Encoding: 957 957 563
Width: 500
Flags: HMW
HStem: -20 50<229.126 339.344> 480 20G<50 115.119 340 417.505>
VStem: 390 60<135.735 417.177>
DStem2: 110 500 50 480 0.24796 -0.96877<4.4978 488.734>
LayerCount: 2
Fore
SplineSet
210 109 m 2
 229 36 235 30 270 30 c 3
 303 30 324 34 340 50 c 1
 371 128 390 212 390 290 c 0
 390 355 377 415 340 480 c 1
 400 500 l 1
 435 428 450 361 450 290 c 0
 450 211 431 128 400 50 c 1
 365 8 346 -20 260 -20 c 3
 196 -20 171 10 140 130 c 2
 50 480 l 1
 110 500 l 1
 210 109 l 2
EndSplineSet
Validated: 1
EndChar

StartChar: dieresistonos
Encoding: 901 901 564
Width: 500
VWidth: 0
HStem: 550 60<80 140 360 420> 550 150
VStem: 80 60<550 610> 170 220 360 60<550 610>
DStem2: 180 580 230 550 0.780869 0.624695<20.3026 192.094>
LayerCount: 2
Fore
SplineSet
80 610 m 5xa0
 140 610 l 5
 140 550 l 5
 80 550 l 5
 80 610 l 5xa0
360 610 m 1xa8
 420 610 l 1
 420 550 l 1
 360 550 l 1
 360 610 l 1xa8
EndSplineSet
Refer: 557 900 N 1 0 0 1 30 0 2
Validated: 1
EndChar

StartChar: theta
Encoding: 952 952 566
Width: 500
Flags: HW
HStem: -10 60<129.1 355.676> 200 70<120 380> 440 60<140.555 356.98>
VStem: 50 60<70.8566 413.232> 390 60<75.0222 426.067>
LayerCount: 2
Fore
SplineSet
120 270 m 1
 380 270 l 1
 380 200 l 1
 120 200 l 1
 120 270 l 1
EndSplineSet
Refer: 22 111 N 1 0 0 1 0 0 2
Validated: 524289
EndChar

StartChar: mu
Encoding: 956 956 567
Width: 500
Flags: W
HStem: -190 21G<50 110> 0 60<172.437 342.752> 480 20G<50 110 390 450>
VStem: 50 60<-190 80 97.6839 500> 390 60<279.388 500>
LayerCount: 2
Fore
SplineSet
110 80 m 1
 110 -190 l 25
 50 -190 l 25
 50 500 l 1
 110 500 l 1
 110 110 l 1
 129 92 223 60 290 60 c 3
 380 60 390 165 390 500 c 3
 450 500 l 3
 450 60 429 0 290 0 c 3
 243 0 136 11 110 80 c 1
EndSplineSet
Validated: 1
EndChar

StartChar: sigma1
Encoding: 962 962 568
Width: 500
Flags: W
HStem: -190 21G<390 450> 440 60<179.309 358.188>
VStem: 50 70<172.155 395.67> 390 60<-190 -95.8341>
LayerCount: 2
Fore
SplineSet
390 -190 m 3
 390 -144 376 -39 250 0 c 1
 74 51 51 30 50 405 c 1
 82 439 164 500 250 500 c 3
 335 500 412 480 450 440 c 1
 420 380 l 1
 376 421 305 440 250 440 c 3
 214 440 158 411 120 380 c 1
 120 102 144 88 250 60 c 0
 418 16 450 -74 450 -190 c 0
 390 -190 l 3
EndSplineSet
Validated: 1
EndChar

StartChar: lambda
Encoding: 955 955 572
Width: 500
Flags: HMW
HStem: 300 60<208.203 280>
VStem: 50 60<0 179.092>
DStem2: 270 700 200 700 0.249041 -0.968493<0 334.268 390.768 705.34>
LayerCount: 2
Fore
SplineSet
380 0 m 1
 300 300 l 24
 162 300 110 205 110 0 c 3
 50 0 l 0
 50 253 138 360 290 360 c 3
 200 700 l 1
 270 700 l 1
 450 0 l 1
 380 0 l 1
EndSplineSet
Validated: 1
EndChar

StartChar: gamma
Encoding: 947 947 573
Width: 500
Flags: MW
DStem2: 120 500 50 500 0.378633 -0.925547<0 358.439> 140 -190 210 -190 0.328521 0.944497<22.9964 265.691 379.441 730.548>
LayerCount: 2
Fore
SplineSet
380 500 m 1
 450 500 l 1
 210 -190 l 1
 140 -190 l 1
 230 60 l 0
 50 500 l 0
 120 500 l 0
 260 170 l 0
 380 500 l 1
EndSplineSet
Validated: 1
EndChar

StartChar: alpha
Encoding: 945 945 583
Width: 500
Flags: HMW
HStem: -10 60<154.528 265.203> 0 21G<384.286 450> 440 60<153.339 256.761>
VStem: 50 60<109.474 386.508>
DStem2: 330 440 270 400 0.173785 -0.984784<-5.56828 111.802> 270 80 330 35 0.196116 0.980581<-30.0437 74.5241> 350 330 380 230 0.250962 0.967997<0 174.598> 380 230 350 140 0.291162 -0.956674<77.3658 222.947>
LayerCount: 2
Fore
SplineSet
200 500 m 3xb0
 242 500 318 481 330 440 c 1
 350 330 l 1
 390 500 l 1
 450 500 l 1
 380 230 l 1
 450 0 l 1
 390 0 l 1x70
 350 140 l 1
 330 35 l 1
 294 10 272 -10 200 -10 c 3
 80 -10 50 133 50 250 c 19
 50 370 64 500 200 500 c 3xb0
110 250 m 3
 110 189 120 50 200 50 c 3xb0
 238 50 258 55 270 80 c 1
 300 230 l 1
 270 400 l 1
 254 429 234 440 200 440 c 3
 134 440 110 351 110 250 c 3
EndSplineSet
Validated: 1
EndChar

StartChar: beta
Encoding: 946 946 584
Width: 500
Flags: W
HStem: -190 21G<50 110> 0 60<110 281.066> 390 60<220 310.088> 640 60<110 297.031>
VStem: 50 60<-190 0 60 640> 330 60<468.324 612.296> 390 60<135.146 327.539>
LayerCount: 2
Fore
SplineSet
220 450 m 1xfa
 290 450 l 1
 320 472 330 506 330 530 c 0xfc
 330 626 320 636 110 640 c 1
 110 60 l 1
 376 62 390 147 390 220 c 0
 390 349 345 360 290 390 c 1
 220 390 l 1
 220 450 l 1xfa
110 0 m 1
 110 -190 l 1
 50 -190 l 1
 50 700 l 1
 110 700 l 2
 334 700 390 690 390 550 c 0xfc
 390 509 376 456 340 420 c 1
 405 375 450 332 450 220 c 0xfa
 450 89 433 2 110 0 c 1
EndSplineSet
Validated: 1
EndChar

StartChar: uni03EC
Encoding: 1004 1004 586
Width: 500
Flags: W
HStem: 0 60<110 330.654> 270 60<110 342.47> 623 77<246.417 450>
VStem: 50 60<60 270 330 517.592> 390 60<78.8058 222.494>
LayerCount: 2
Fore
SplineSet
290 270 m 1
 110 270 l 1
 110 60 l 1
 376 60 390 60 390 140 c 3
 390 209 361 257 290 270 c 1
50 430 m 27
 50 618 91 699 450 700 c 0
 450 623 l 3
 142 623 110 546 110 380 c 0
 110 330 l 1
 290 330 l 3
 403 330 450 242 450 140 c 3
 450 0 430 0 110 0 c 2
 50 0 l 1
 50 0 50 262 50 430 c 27
EndSplineSet
Validated: 1
EndChar

StartChar: uni03ED
Encoding: 1005 1005 587
Width: 500
Flags: W
HStem: 0 60<110 330.654> 270 60<110 342.47> 503 77<201.849 390>
VStem: 50 60<60 270 330 436.527> 390 60<78.8058 222.494>
LayerCount: 2
Fore
SplineSet
290 270 m 1
 110 270 l 1
 110 60 l 1
 376 60 390 60 390 140 c 3
 390 209 361 257 290 270 c 1
50 350 m 27
 50 510 90 580 390 580 c 0
 390 503 l 3
 202 503 114 470 110 380 c 0
 110 330 l 1
 290 330 l 3
 403 330 450 242 450 140 c 3
 450 0 430 0 110 0 c 2
 50 0 l 1
 50 0 50 214 50 350 c 27
EndSplineSet
Validated: 1
EndChar

StartChar: tau
Encoding: 964 964 588
Width: 500
Flags: W
HStem: -11 42<309.905 418.886> 440 60<50 220 280 450>
VStem: 220 60<65.4234 440>
LayerCount: 2
Fore
SplineSet
220 140 m 2
 220 440 l 1
 50 440 l 1
 50 500 l 1
 450 500 l 1
 450 440 l 1
 280 440 l 1
 280 180 l 2
 280 31 336 31 361 31 c 3
 388 31 386 33 420 40 c 1
 420 10 l 1
 406 0 386 -11 360 -11 c 3
 294 -11 220 10 220 140 c 2
EndSplineSet
Validated: 1
EndChar

StartChar: uni03FD
Encoding: 1021 1021 589
Width: 500
Flags: W
HStem: -10 60<119.422 328.99> 540 60<154.422 325.413>
VStem: 390 60<100 495.67>
LayerCount: 2
Fore
SplineSet
50 40 m 1
 50 100 l 1
 106 73 176 50 230 50 c 3
 308 50 364 79 390 130 c 1
 390 480 l 1
 352 511 286 540 250 540 c 3
 195 540 94 501 50 460 c 1
 50 515 l 1
 88 555 165 600 250 600 c 3
 336 600 418 539 450 505 c 1
 450 100 l 1
 424 49 330 -10 230 -10 c 3
 154 -10 98 13 50 40 c 1
EndSplineSet
Validated: 1
EndChar

StartChar: uni03FF
Encoding: 1023 1023 591
Width: 500
Flags: W
HStem: -10 60<119.422 328.99> 260 60<220 280> 540 60<154.422 325.413>
VStem: 220 60<260 320> 390 60<100 495.67>
LayerCount: 2
Fore
SplineSet
50 40 m 1
 50 100 l 1
 106 73 176 50 230 50 c 3
 308 50 364 79 390 130 c 1
 390 480 l 1
 352 511 286 540 250 540 c 3
 195 540 94 501 50 460 c 1
 50 515 l 1
 88 555 165 600 250 600 c 3
 336 600 418 539 450 505 c 1
 450 100 l 1
 424 49 330 -10 230 -10 c 3
 154 -10 98 13 50 40 c 1
EndSplineSet
Refer: 116 183 N 1 0 0 1 0 50 3
Validated: 1
EndChar

StartChar: uni037D
Encoding: 893 893 593
Width: 500
Flags: W
HStem: -10 60<119.422 325.12> 210 60<220 280> 440 60<154.422 325.692>
VStem: 220 60<210 270> 390 60<106.934 389.377>
LayerCount: 2
Fore
SplineSet
50 40 m 1
 50 100 l 1
 106 73 176 50 230 50 c 3
 308 50 366 85 390 140 c 1
 390 360 l 1
 374 407 286 440 250 440 c 3
 195 440 94 401 50 360 c 1
 50 415 l 1
 88 455 165 500 250 500 c 3
 336 500 430 431 450 385 c 1
 450 120 l 1
 428 57 330 -10 230 -10 c 3
 154 -10 98 13 50 40 c 1
EndSplineSet
Refer: 116 183 N 1 0 0 1 0 0 3
Validated: 1
EndChar

StartChar: uni037B
Encoding: 891 891 594
Width: 500
Flags: W
HStem: -10 60<119.422 325.12> 440 60<154.422 325.692>
VStem: 390 60<106.934 389.377>
LayerCount: 2
Fore
SplineSet
50 40 m 1
 50 100 l 1
 106 73 176 50 230 50 c 3
 308 50 366 85 390 140 c 1
 390 360 l 1
 374 407 286 440 250 440 c 3
 195 440 94 401 50 360 c 1
 50 415 l 1
 88 455 165 500 250 500 c 3
 336 500 430 431 450 385 c 1
 450 120 l 1
 428 57 330 -10 230 -10 c 3
 154 -10 98 13 50 40 c 1
EndSplineSet
Validated: 1
EndChar

StartChar: Omega
Encoding: 937 937 595
Width: 500
Flags: W
HStem: 0 60<50 160 340 450> 540 60<140.645 356.933>
VStem: 50 60<168.419 513.303> 390 60<175.279 526.166>
LayerCount: 2
Fore
SplineSet
340 70 m 1
 340 60 l 25
 450 60 l 25
 450 0 l 25
 280 0 l 25
 280 130 l 1
 324 135 390 156 390 250 c 3
 390 520 l 1
 349 533 298 540 250 540 c 3
 200 540 153 532 110 500 c 1
 110 250 l 3
 110 137 182 130 220 130 c 3
 220 130 220 51 220 0 c 25
 50 0 l 25
 50 60 l 25
 160 60 l 25
 160 70 l 3
 88 70 50 155 50 205 c 0
 50 540 l 1
 74 572 158 600 200 600 c 3
 273 600 402 572 450 550 c 1
 450 205 l 3
 450 164 400 76 340 70 c 1
EndSplineSet
Validated: 1
EndChar

StartChar: afii10846
Encoding: 1241 1241 597
Width: 500
Flags: W
HStem: 0 60<145.457 330.604> 220 60<110 390> 440 60<137.556 344.576>
VStem: 50 60<96.4761 220> 390 60<109.753 220 280 400.009>
CounterMasks: 1 e0
LayerCount: 2
Fore
SplineSet
390 280 m 1
 390 370 l 1
 368 432 280 440 230 440 c 3
 193 440 112 418 50 380 c 1
 50 420 l 1
 112 480 187 500 230 500 c 3
 299 500 436 470 450 380 c 1
 450 130 l 1
 400 16 288 0 240 0 c 3
 108 0 50 26 50 280 c 1
 390 280 l 1
110 220 m 1
 110 78 144 60 240 60 c 3
 270 60 336 64 390 130 c 1
 390 220 l 1
 110 220 l 1
EndSplineSet
Validated: 1
EndChar

StartChar: uni04D8
Encoding: 1240 1240 598
Width: 500
Flags: W
HStem: 0 60<149.839 330.604> 270 60<110 390> 540 60<137.556 344.576>
VStem: 50 60<107.197 270> 390 60<109.753 270 330 500.009>
CounterMasks: 1 e0
LayerCount: 2
Fore
SplineSet
390 330 m 1
 390 470 l 1
 368 532 280 540 230 540 c 3
 193 540 112 518 50 480 c 1
 50 520 l 1
 112 580 187 600 230 600 c 3
 299 600 436 570 450 480 c 1
 450 130 l 1
 400 16 288 0 240 0 c 3
 108 0 50 16 50 330 c 1
 390 330 l 1
110 270 m 1
 110 74 144 60 240 60 c 3
 270 60 336 64 390 130 c 1
 390 270 l 1
 110 270 l 1
EndSplineSet
Validated: 1
EndChar

StartChar: pi
Encoding: 960 960 605
Width: 500
Flags: W
HStem: -12 42<390.461 449> 0 21G<130 190> 440 60<50 130 190 310 370 450>
VStem: 130 60<0 440> 310 60<47.4095 440>
LayerCount: 2
Fore
SplineSet
449 -12 m 1xb8
 383 -12 310 10 310 140 c 2
 310 440 l 1
 190 440 l 1
 190 0 l 1
 130 0 l 1x78
 130 440 l 1
 50 440 l 1
 50 500 l 1
 450 500 l 1
 450 440 l 1
 370 440 l 1
 370 180 l 2
 370 31 396 30 450 30 c 1
 449 -12 l 1xb8
EndSplineSet
Validated: 1
EndChar

StartChar: sigma
Encoding: 963 963 611
Width: 500
Flags: W
HStem: 0 60<176.869 330.897> 440 60<187.599 272.348 320 450>
VStem: 50 70<128.596 361.808> 390 60<118.933 296.605>
LayerCount: 2
Fore
SplineSet
250 440 m 1
 214 440 120 414 120 250 c 3
 120 98 180 60 250 60 c 3
 341 60 390 118 390 200 c 3
 390 285 350 347 250 440 c 1
320 440 m 1
 414 373 450 289 450 200 c 3
 450 69 336 0 250 0 c 3
 132 0 50 28 50 250 c 3
 50 468 164 500 250 500 c 2
 450 500 l 1
 450 440 l 1
 320 440 l 1
EndSplineSet
Validated: 1
EndChar

StartChar: uni03DB
Encoding: 987 987 612
Width: 500
Flags: W
HStem: -190 21G<330 411> 0 60<169.669 380.957> 440 60<179.309 358.188>
VStem: 50 70<173.294 395.67> 390 60<-120.758 -12.9653>
LayerCount: 2
Fore
SplineSet
330 -190 m 17
 378 -117 390 -68 390 -40 c 3
 390 -12 355 0 250 0 c 3
 67 0 51 30 50 405 c 1
 82 439 164 500 250 500 c 3
 335 500 412 480 450 440 c 1
 420 380 l 1
 376 421 305 440 250 440 c 3
 214 440 158 411 120 380 c 1
 120 102 140 60 250 60 c 3
 404 60 450 29 450 -40 c 3
 450 -84 432 -131 390 -190 c 9
 330 -190 l 17
EndSplineSet
Validated: 1
EndChar

StartChar: uni03DA
Encoding: 986 986 613
Width: 500
Flags: W
HStem: -190 21G<330 411> 0 60<169.596 380.957> 540 60<179.309 358.188>
VStem: 50 70<272.568 495.67> 390 60<-120.758 -12.9653>
LayerCount: 2
Fore
SplineSet
330 -190 m 17
 378 -117 390 -68 390 -40 c 3
 390 -12 355 0 250 0 c 3
 67 0 50 44 50 505 c 1
 82 539 164 600 250 600 c 3
 335 600 412 580 450 540 c 1
 420 480 l 1
 376 521 305 540 250 540 c 3
 214 540 158 511 120 480 c 1
 120 92 140 60 250 60 c 3
 404 60 450 29 450 -40 c 3
 450 -84 432 -131 390 -190 c 9
 330 -190 l 17
EndSplineSet
Validated: 1
EndChar

StartChar: uni0370
Encoding: 880 880 616
Width: 500
Flags: W
HStem: 0 21G<50 110> 280 60<110 450>
VStem: 50 60<0 280 340 580>
LayerCount: 2
Fore
SplineSet
450 280 m 5
 110 280 l 1
 110 0 l 1
 50 0 l 1
 50 580 l 1
 110 600 l 1
 110 340 l 1
 450 340 l 5
 450 280 l 5
EndSplineSet
Validated: 1
EndChar

StartChar: uni0371
Encoding: 881 881 617
Width: 500
Flags: W
HStem: 0 21G<50 110> 230 60<110 450> 480 20G<50 110>
VStem: 50 60<0 230 290 480>
LayerCount: 2
Fore
SplineSet
450 230 m 5
 110 230 l 1
 110 0 l 1
 50 0 l 1
 50 480 l 1
 110 500 l 1
 110 290 l 1
 450 290 l 5
 450 230 l 5
EndSplineSet
Validated: 1
EndChar

StartChar: uni0372
Encoding: 882 882 618
Width: 500
Flags: W
HStem: 0 21G<220 280> 420 180<50 110 390 450> 540 60<110 220 280 390>
VStem: 50 60<420 540> 220 60<0 540> 390 60<420 540>
CounterMasks: 1 1c
LayerCount: 2
Fore
SplineSet
50 600 m 1xdc
 450 600 l 1
 450 420 l 5
 390 420 l 5xdc
 390 540 l 1
 280 540 l 1
 280 0 l 9
 220 0 l 25
 220 540 l 1
 110 540 l 1xbc
 110 420 l 5
 50 420 l 5
 50 600 l 1xdc
EndSplineSet
Validated: 1
EndChar

StartChar: uni0373
Encoding: 883 883 619
Width: 500
Flags: W
HStem: 0 21G<220 280> 420 180<80 140 360 420> 540 60<140 220 280 360>
VStem: 80 60<420 540> 220 60<0 540> 360 60<420 540>
CounterMasks: 1 1c
LayerCount: 2
Fore
SplineSet
80 600 m 1xdc
 420 600 l 5
 420 420 l 5
 360 420 l 5xdc
 360 540 l 5
 280 540 l 1
 280 0 l 9
 220 0 l 25
 220 540 l 1
 140 540 l 1xbc
 140 420 l 1
 80 420 l 1
 80 600 l 1xdc
EndSplineSet
Validated: 1
EndChar

StartChar: uni0374
Encoding: 884 884 620
Width: 500
Flags: W
HStem: 500 200<220 280>
VStem: 220 60<500 700>
LayerCount: 2
Fore
SplineSet
220 500 m 1
 220 700 l 1
 280 700 l 1
 280 500 l 1
 220 500 l 1
EndSplineSet
Validated: 1
EndChar

StartChar: uni0375
Encoding: 885 885 621
Width: 500
Flags: W
HStem: -190 190<220 280>
VStem: 220 60<-190 0>
LayerCount: 2
Fore
SplineSet
220 -190 m 5
 220 0 l 1
 280 0 l 1
 280 -190 l 5
 220 -190 l 5
EndSplineSet
Validated: 1
EndChar

StartChar: uni037A
Encoding: 890 890 622
Width: 500
Flags: W
HStem: -161 42<321.269 395.662> -20 20G<250 310>
VStem: 250 60<-111.586 0>
LayerCount: 2
Fore
SplineSet
310 0 m 3
 310 -104 326 -119 351 -119 c 3
 372 -119 388 -116 410 -90 c 1
 410 -120 l 1
 396 -146 376 -161 350 -161 c 3
 284 -161 250 -138 250 0 c 0
 310 0 l 3
EndSplineSet
Validated: 1
EndChar

StartChar: zeta
Encoding: 950 950 623
Width: 500
Flags: W
HStem: -190 21G<390 450> 0 60<153.984 321.188> 640 60<50 330>
VStem: 50 60<100.226 260.288> 390 60<-190 -77.75>
LayerCount: 2
Fore
SplineSet
390 -190 m 3
 390 -144 382 0 250 0 c 3
 138 0 50 32 50 195 c 3
 50 304 225 522 330 640 c 1
 50 640 l 1
 50 700 l 1
 450 700 l 1
 318 552 110 288 110 190 c 3
 110 100 140 60 250 60 c 3
 424 60 450 -74 450 -190 c 0
 390 -190 l 3
EndSplineSet
Validated: 1
EndChar

StartChar: xi
Encoding: 958 958 624
Width: 500
Flags: W
HStem: -190 21G<390 450> 0 60<153.984 321.188> 330 60<292.802 390> 640 60<50 330 372.866 450>
VStem: 50 60<100.226 249.487> 110 60<449.382 540.914> 390 60<-190 -77.75>
LayerCount: 2
Fore
SplineSet
390 330 m 7xf6
 229 330 110 278 110 190 c 7
 110 100 140 60 250 60 c 7
 424 60 450 -74 450 -190 c 0
 390 -190 l 3
 390 -144 382 0 250 0 c 7
 138 0 50 32 50 195 c 7xfa
 50 318 133 340 290 360 c 5
 130 382 110 430 110 500 c 3xf6
 110 580 211 619 330 640 c 1
 50 640 l 1
 50 700 l 1xfa
 450 700 l 1
 450 640 l 1
 294 599 170 559 170 500 c 3
 170 439 253 390 390 390 c 4
 390 330 l 7xf6
EndSplineSet
Validated: 1
EndChar

StartChar: uni03CF
Encoding: 975 975 625
Width: 500
Flags: MW
HStem: 0 21G<50 110>
VStem: 50 60<0 320 400 580>
DStem2: 110 400 170 360 0.658505 0.752577<9.40721 240.825> 170 360 110 320 0.613941 -0.789352<0 400.816> 270 -110 360 -110 0.633238 0.773957<56.9914 142.127>
LayerCount: 2
Fore
SplineSet
270 -110 m 5
 360 0 l 5
 110 320 l 1
 110 0 l 1
 50 0 l 1
 50 340 l 1
 50 580 l 1
 110 600 l 1
 110 400 l 1
 270 580 l 1
 380 600 l 1
 170 360 l 1
 450 0 l 5
 360 -110 l 5
 270 -110 l 5
EndSplineSet
Validated: 1
EndChar

StartChar: delta
Encoding: 948 948 626
Width: 500
Flags: W
HStem: 0 60<178.927 338.65> 640 60<170 390>
VStem: 50 60<130.534 304.557> 390 60<112.616 274.803>
LayerCount: 2
Fore
SplineSet
292 394 m 1
 184 369 110 339 110 210 c 3
 110 114 183 60 250 60 c 3
 360 60 390 120 390 210 c 3
 390 254 349 310 292 394 c 1
256 445 m 1
 190 536 112 631 50 700 c 1
 390 700 l 1
 390 640 l 1
 170 640 l 1
 275 522 450 319 450 210 c 3
 450 47 362 0 250 0 c 3
 175 0 50 51 50 210 c 3
 50 378 151 429 256 445 c 1
EndSplineSet
Validated: 1
EndChar

StartChar: uni03D8
Encoding: 984 984 627
Width: 500
Flags: W
HStem: -190 21G<220 280> -10 60<130.319 220 280 356.924> 540 60<140.645 356.933>
VStem: 50 60<70.9273 513.303> 220 60<-190 -10> 390 60<74.9599 526.166>
CounterMasks: 1 1c
LayerCount: 2
Fore
SplineSet
390 520 m 1
 349 533 298 540 250 540 c 0
 200 540 153 532 110 500 c 1
 110 80 l 1
 150 61 192 50 230 50 c 0
 288 50 341 69 390 80 c 1
 390 520 l 1
220 -10 m 1
 151 -8 84 11 50 35 c 1
 50 540 l 1
 74 572 158 600 200 600 c 0
 273 600 402 572 450 550 c 1
 450 35 l 1
 407 15 339 -1 280 -7 c 1
 280 -190 l 1
 220 -190 l 1
 220 -10 l 1
EndSplineSet
Validated: 1
EndChar

StartChar: uni03D9
Encoding: 985 985 628
Width: 500
Flags: W
HStem: -190 21G<220 280> -10 60<130.319 220 280 356.924> 440 60<140.645 356.933>
VStem: 50 60<70.9273 413.303> 220 60<-190 -10> 390 60<74.9599 426.166>
CounterMasks: 1 1c
LayerCount: 2
Fore
SplineSet
390 420 m 1
 349 433 298 440 250 440 c 0
 200 440 153 432 110 400 c 1
 110 80 l 1
 150 61 192 50 230 50 c 0
 288 50 341 69 390 80 c 1
 390 420 l 1
220 -10 m 1
 151 -8 84 11 50 35 c 1
 50 440 l 1
 74 472 158 500 200 500 c 0
 273 500 402 472 450 450 c 1
 450 35 l 1
 407 15 339 -1 280 -7 c 1
 280 -190 l 1
 220 -190 l 1
 220 -10 l 1
EndSplineSet
Validated: 1
EndChar

StartChar: omega1
Encoding: 982 982 629
Width: 500
Flags: W
HStem: -10 60<286.088 390> 480 20<50 110 390 450> 520 60<50 450>
VStem: 50 60<73.045 480> 220 60<50 320> 390 60<50 480>
CounterMasks: 1 1c
LayerCount: 2
Fore
SplineSet
50 580 m 1
 450 580 l 1
 450 520 l 1
 50 520 l 1
 50 580 l 1
EndSplineSet
Refer: 27 119 N 1 0 0 1 0 0 2
Validated: 1
EndChar

StartChar: uni03D7
Encoding: 983 983 630
Width: 500
Flags: HMW
HStem: 0 21G<50 110 341.481 450> 480 20G<50 110 270 356.842>
VStem: 50 60<0 270 350 480>
DStem2: 110 350 160 310 0.756823 0.65362<11.6964 206.062> 160 310 110 270 0.683157 -0.730271<0 363.016> 270 -110 360 -110 0.633238 0.773957<56.9914 142.127>
LayerCount: 2
Fore
SplineSet
450 0 m 1
 360 -110 l 1
 270 -110 l 1
 360 0 l 1
 110 270 l 1
 110 0 l 1
 50 0 l 1
 50 290 l 1
 50 480 l 1
 110 500 l 1
 110 350 l 1
 260 480 l 5
 380 500 l 1
 160 310 l 1
 450 0 l 1
EndSplineSet
Validated: 1
EndChar

StartChar: uni03FB
Encoding: 1019 1019 634
Width: 500
Flags: W
HStem: -189 21G<50 120> 0 21G<210 280 390 450> 440 60<120 202.322>
VStem: 50 70<-189 440> 210 70<0 440> 390 60<0 416.955>
LayerCount: 2
Fore
SplineSet
210 0 m 1
 210 440 l 25
 120 440 l 25
 120 -189 l 25
 50 -189 l 25
 50 500 l 3
 392 500 450 490 450 360 c 2
 450 0 l 1
 390 0 l 1
 390 380 l 2
 390 439 304 432 280 440 c 0
 280 0 l 1
 210 0 l 1
EndSplineSet
Validated: 1
EndChar

StartChar: uni03FC
Encoding: 1020 1020 636
Width: 500
Flags: W
HStem: -190 21G<50 110> -120 60<30 50 110 330> -10 60<135.3 347.329> 440 60<124.159 359.888>
VStem: 50 60<-170 -120 -60 25 68.354 426.166> 390 60<80.0339 413.303>
LayerCount: 2
Fore
SplineSet
110 -170 m 1
 50 -190 l 1
 50 -120 l 1
 30 -120 l 1
 30 -60 l 1
 50 -60 l 1
 50 450 l 1
 98 472 177 500 250 500 c 0
 292 500 426 482 450 450 c 1
 450 45 l 1
 414 20 331 -10 250 -10 c 0
 194 -10 152 0 110 25 c 1
 110 -60 l 1
 330 -60 l 1
 330 -120 l 1
 110 -120 l 1
 110 -170 l 1
110 420 m 1
 110 80 l 1
 154 51 199 50 250 50 c 0
 294 50 344 68 390 90 c 1
 390 400 l 1
 347 432 300 440 250 440 c 0
 202 440 151 433 110 420 c 1
EndSplineSet
Validated: 1
EndChar

StartChar: uni03F1
Encoding: 1009 1009 637
Width: 500
Flags: W
HStem: -190 60<168.164 390> -10 60<135.3 347.329> 440 60<124.159 359.888>
VStem: 50 60<-97.5014 25 68.354 426.166> 390 60<80.0339 413.303>
LayerCount: 2
Fore
SplineSet
110 420 m 1
 110 80 l 1
 154 51 199 50 250 50 c 3
 294 50 344 68 390 90 c 1
 390 400 l 1
 347 432 300 440 250 440 c 3
 202 440 151 433 110 420 c 1
390 -190 m 3
 130 -190 50 -172 50 -90 c 3
 50 450 l 1
 98 472 177 500 250 500 c 3
 292 500 426 482 450 450 c 1
 450 45 l 1
 414 20 331 -10 250 -10 c 3
 194 -10 152 0 110 25 c 5
 110 -60 l 7
 110 -106 150 -130 390 -130 c 0
 390 -190 l 3
EndSplineSet
Validated: 1
EndChar

StartChar: uni03EE
Encoding: 1006 1006 638
Width: 500
Flags: W
HStem: 0 21G<220 280> 320 180<50 110 390 450> 440 60<110 220 280 390> 680 20G<220 280>
VStem: 50 60<320 440> 220 60<0 440 500 700> 390 60<320 440>
CounterMasks: 1 0e
LayerCount: 2
Fore
SplineSet
280 500 m 5xbe
 450 500 l 1
 450 320 l 1
 390 320 l 1xde
 390 440 l 1
 280 440 l 1
 280 0 l 1
 220 0 l 1
 220 440 l 1
 110 440 l 1xbe
 110 320 l 1
 50 320 l 1
 50 500 l 1xde
 220 500 l 5
 220 700 l 5
 280 700 l 5
 280 500 l 5xbe
EndSplineSet
Validated: 1
EndChar

StartChar: uni03EF
Encoding: 1007 1007 639
Width: 500
Flags: W
HStem: 0 21G<220 280> 320 180<80 140 360 420> 440 60<140 220 280 360> 680 20G<220 280>
VStem: 80 60<320 440> 220 60<0 440 500 700> 360 60<320 440>
CounterMasks: 1 0e
LayerCount: 2
Fore
SplineSet
280 500 m 1xbe
 420 500 l 1
 420 320 l 1
 360 320 l 1xde
 360 440 l 1
 280 440 l 1
 280 0 l 1
 220 0 l 1
 220 440 l 1
 140 440 l 1xbe
 140 320 l 1
 80 320 l 1
 80 500 l 1xde
 220 500 l 1
 220 700 l 1
 280 700 l 1
 280 500 l 1xbe
EndSplineSet
Validated: 1
EndChar

StartChar: uni03E4
Encoding: 996 996 640
Width: 500
Flags: W
HStem: -190 21G<390 450> 0 60<150.425 328.516>
VStem: 50 60<109.934 394.464> 390 60<-190 80 97.6839 560>
LayerCount: 2
Fore
SplineSet
290 560 m 1
 130 485 110 347 110 270 c 3
 110 143 124 60 210 60 c 3
 277 60 371 92 390 110 c 1
 390 560 l 1
 450 560 l 1
 450 -190 l 25
 390 -190 l 25
 390 80 l 1
 364 11 283 0 210 0 c 3
 99 0 50 74 50 270 c 3
 50 365 88 521 230 560 c 1
 290 560 l 1
EndSplineSet
Validated: 1
EndChar

StartChar: uni03E5
Encoding: 997 997 641
Width: 500
Flags: W
HStem: -190 21G<390 450> 0 60<150.425 328.516> 480 20G<136.5 230 390 450>
VStem: 50 60<109.934 366.296> 390 60<-190 80 97.6839 500>
LayerCount: 2
Fore
SplineSet
230 500 m 1
 151 425 110 347 110 270 c 3
 110 143 124 60 210 60 c 3
 277 60 371 92 390 110 c 1
 390 500 l 1
 450 500 l 1
 450 -190 l 25
 390 -190 l 25
 390 80 l 1
 364 11 283 0 210 0 c 3
 99 0 50 74 50 270 c 3
 50 365 103 440 170 500 c 1
 230 500 l 1
EndSplineSet
Validated: 1
EndChar

StartChar: uni03DE
Encoding: 990 990 642
Width: 500
Flags: MW
HStem: -190 21G<320 393> 150 60<120 380>
DStem2: 50 150 130 210 0.132164 0.991228<70.0468 453.982> 320 -190 390 -190 0.14834 0.988936<10.3838 343.655>
LayerCount: 2
Fore
SplineSet
50 150 m 1
 110 600 l 1
 180 600 l 1
 130 210 l 1
 450 210 l 9
 390 -190 l 17
 320 -190 l 1
 370 150 l 1
 50 150 l 1
EndSplineSet
Validated: 1
EndChar

StartChar: uni03DF
Encoding: 991 991 643
Width: 500
Flags: MW
HStem: -190 21G<320 393.429> 100 60<130 370> 480 20G<107 180>
DStem2: 50 100 130 160 0.14834 0.988936<71.2034 404.475> 320 -190 390 -190 0.168964 0.985622<11.8275 294.279>
LayerCount: 2
Fore
SplineSet
50 100 m 1
 110 500 l 1
 180 500 l 1
 130 160 l 1
 450 160 l 13
 390 -190 l 21
 320 -190 l 5
 370 100 l 5
 50 100 l 1
EndSplineSet
Validated: 1
EndChar

StartChar: uni03E6
Encoding: 998 998 644
Width: 500
Flags: W
HStem: -10 60<52.0187 304.65> 340 60<167.12 334.093>
VStem: 50 60<120 308.322 355 580> 390 60<123.484 286.422>
LayerCount: 2
Fore
SplineSet
110 600 m 1
 110 355 l 1
 155 375 213 400 280 400 c 3
 333 400 420 359 450 295 c 1
 450 120 l 1
 410 31 308 -10 220 -10 c 3
 159 -10 98 -5 50 0 c 1
 50 60 l 1
 87 53 184 50 220 50 c 3
 280 50 362 89 390 160 c 1
 390 250 l 1
 370 303 314 340 280 340 c 3
 217 340 164 323 110 300 c 1
 110 120 l 1
 50 120 l 1
 50 580 l 1
 110 600 l 1
EndSplineSet
Validated: 1
EndChar

StartChar: uni03E7
Encoding: 999 999 645
Width: 500
Flags: W
HStem: -10 60<52.0187 304.65> 290 60<167.12 334.093> 480 20G<50 110>
VStem: 50 60<120 258.322 305 480> 390 60<123.484 236.422>
LayerCount: 2
Fore
SplineSet
110 500 m 1
 110 305 l 1
 155 325 213 350 280 350 c 3
 333 350 420 309 450 245 c 1
 450 120 l 1
 410 31 308 -10 220 -10 c 3
 159 -10 98 -5 50 0 c 1
 50 60 l 1
 87 53 184 50 220 50 c 3
 280 50 362 89 390 160 c 1
 390 200 l 1
 370 253 314 290 280 290 c 3
 217 290 164 273 110 250 c 1
 110 120 l 1
 50 120 l 1
 50 480 l 1
 110 500 l 1
EndSplineSet
Validated: 1
EndChar

StartChar: uni03E8
Encoding: 1000 1000 646
Width: 500
Flags: W
HStem: -190 60<179.309 358.188> 540 60<171.01 329.718>
VStem: 50 70<-85.67 62.8317> 390 60<336.145 480.041>
LayerCount: 2
Fore
SplineSet
250 190 m 0
 144 162 121 5 120 -70 c 1
 158 -101 214 -130 250 -130 c 3
 305 -130 376 -111 420 -70 c 1
 450 -130 l 1
 412 -170 335 -190 250 -190 c 3
 164 -190 82 -129 50 -95 c 1
 52 78 74 199 250 250 c 1
 376 289 390 374 390 420 c 7
 390 477 324 540 270 540 c 7
 192 540 136 511 110 460 c 5
 50 490 l 5
 76 541 170 600 270 600 c 7
 346 600 450 524 450 420 c 7
 450 304 418 234 250 190 c 0
EndSplineSet
Validated: 1
EndChar

StartChar: uni03E9
Encoding: 1001 1001 647
Width: 500
Flags: W
HStem: -190 60<179.309 358.188> 440 60<171.01 329.718>
VStem: 50 70<-85.67 37.0381> 390 60<254.801 380.041>
LayerCount: 2
Fore
SplineSet
250 130 m 0
 144 102 121 5 120 -70 c 1
 158 -101 214 -130 250 -130 c 3
 305 -130 376 -111 420 -70 c 1
 450 -130 l 1
 412 -170 335 -190 250 -190 c 3
 164 -190 82 -129 50 -95 c 1
 52 78 74 139 250 190 c 1
 376 229 390 274 390 320 c 3
 390 377 324 440 270 440 c 3
 192 440 136 411 110 360 c 1
 50 390 l 1
 76 441 170 500 270 500 c 3
 346 500 450 424 450 320 c 3
 450 204 418 174 250 130 c 0
EndSplineSet
Validated: 1
EndChar

StartChar: uni03E0
Encoding: 992 992 648
Width: 500
Flags: HMW
HStem: 0 54<229.25 383.574> 540 60<117.501 209.163>
VStem: 50 25<464.28 473.261>
DStem2: 175 374 208 312 0.884496 0.466547<0.262432 102.883> 240 250 272 188 0.884496 0.466547<0 102.261> 310 468 248 458 0.458977 -0.888448<-119.891 20.6736 90.9037 160.675 230.446 351.315>
LayerCount: 2
Fore
SplineSet
331 298 m 1
 299 360 l 1
 208 312 l 1
 175 374 l 1
 266 422 l 1
 248 458 l 1
 220 501 206 540 170 540 c 3
 115 540 84 487 75 429 c 1
 50 478 l 1
 56 527 65 600 150 600 c 3
 236 600 276 531 310 468 c 1
 450 197 l 3
 450 88 438 0 338 0 c 3
 262 0 256 9 230 15 c 1
 202 68 l 1
 240 55 256 54 310 54 c 3
 388 54 410 107 410 140 c 0
 363 236 l 1
 272 188 l 1
 240 250 l 1
 331 298 l 1
EndSplineSet
Validated: 1
EndChar

StartChar: uni03E1
Encoding: 993 993 649
Width: 500
Flags: HMW
HStem: 440 60<70 132.048>
DStem2: 105 274 138 212 0.884496 0.466547<0.262432 102.883> 170 150 202 88 0.884496 0.466547<0 102.261> 240 368 178 358 0.458766 -0.888557<-112.166 20.6879 90.9177 160.689 230.46 382.041>
LayerCount: 2
Fore
SplineSet
430 0 m 1
 360 0 l 1
 293 136 l 1
 202 88 l 1
 170 150 l 1
 261 198 l 1
 229 260 l 1
 138 212 l 1
 105 274 l 1
 196 322 l 1
 178 358 l 1
 150 401 136 440 70 440 c 3
 70 500 l 0
 192 500 206 431 240 368 c 1
 430 0 l 1
EndSplineSet
Validated: 1
EndChar

StartChar: uni03EA
Encoding: 1002 1002 650
Width: 500
Flags: MW
HStem: -60 60<130 370>
DStem2: 50 0 130 0 0.470588 0.882353<37.6471 304.118 413.529 657.647> 250 362 210 300 0.470588 -0.882353<-271.176 0 109.412 375.882>
LayerCount: 2
Fore
SplineSet
50 0 m 1
 210 300 l 1
 50 580 l 1
 120 600 l 1
 250 362 l 1
 360 580 l 1
 450 600 l 1
 290 300 l 1
 450 0 l 1
 450 -60 l 1
 50 -60 l 1
 50 0 l 1
130 0 m 1
 370 0 l 1
 250 238 l 1
 130 0 l 1
EndSplineSet
Validated: 1
EndChar

StartChar: uni03EB
Encoding: 1003 1003 651
Width: 500
Flags: MW
HStem: -60 60<130 370> 480 20G<60 142.766 350 437.2>
DStem2: 50 0 130 0 0.539054 0.842271<43.1243 266.158 370.599 566.006> 130 500 60 480 0.546268 -0.837611<0 223.023 326.887 549.91>
LayerCount: 2
Fore
SplineSet
50 0 m 1
 210 250 l 1
 60 480 l 1
 130 500 l 1
 250 312 l 1
 350 480 l 1
 450 500 l 1
 290 250 l 1
 450 0 l 1
 450 -60 l 1
 50 -60 l 1
 50 0 l 1
130 0 m 1
 370 0 l 1
 250 188 l 1
 130 0 l 1
EndSplineSet
Validated: 1
EndChar

StartChar: uni03E2
Encoding: 994 994 652
Width: 500
Flags: W
HStem: -190 60<110 325.995> -10 60<280 390>
VStem: 50 60<71.9482 580> 220 60<50 370> 390 60<-78.5804 -10 50 580>
CounterMasks: 1 38
LayerCount: 2
Fore
SplineSet
280 390 m 1
 280 50 l 1
 390 50 l 1
 390 580 l 1
 450 600 l 1
 450 397 450 228 450 -10 c 16
 450 -164 403 -190 110 -190 c 1
 110 -130 l 1
 339 -130 384 -109 390 -10 c 1
 102 -8 50 8 50 130 c 2
 50 580 l 1
 110 600 l 1
 110 110 l 2
 110 51 196 58 220 50 c 1
 220 370 l 1
 280 390 l 1
EndSplineSet
Validated: 1
EndChar

StartChar: uni03E3
Encoding: 995 995 653
Width: 500
Flags: W
HStem: -190 60<110 325.995> -10 60<280 390> 480 20G<50 110 390 450>
VStem: 50 60<71.9482 480> 220 60<50 320> 390 60<-78.5804 -10 50 480>
CounterMasks: 1 1c
LayerCount: 2
Fore
SplineSet
280 340 m 1
 280 50 l 1
 390 50 l 1
 390 480 l 1
 450 500 l 1
 450 297 450 189 450 -10 c 16
 450 -164 403 -190 110 -190 c 1
 110 -130 l 1
 339 -130 384 -109 390 -10 c 1
 102 -8 50 8 50 130 c 2
 50 480 l 1
 110 500 l 1
 110 110 l 2
 110 51 196 58 220 50 c 1
 220 320 l 1
 280 340 l 1
EndSplineSet
Validated: 1
EndChar

StartChar: uni03F0
Encoding: 1008 1008 654
Width: 500
Flags: W
HStem: 0 60<50 109.151 363.104 410.115> 440 60<93.3409 142.125 391.085 450>
VStem: 170 160<230.442 300.212> 420 0<88 120>
LayerCount: 2
Fore
SplineSet
420 60 m 1
 415 19 401 0 380 0 c 3
 320 0 281 82 281 227 c 0
 209 188 l 3
 209 94 140 -0 50 0 c 1
 50 60 l 1
 139 60 170 172 170 260 c 0
 170 350 146 440 120 440 c 3
 103 440 86 414 80 380 c 1
 80 440 l 1
 84 476 102 500 120 500 c 3
 181 500 229 450 229 304 c 0
 299 339 l 3
 299 425 358 500 450 500 c 1
 450 440 l 1
 361 440 330 338 330 250 c 0
 330 160 362 60 380 60 c 3
 408 60 416 88 420 120 c 1
 420 60 l 1
EndSplineSet
Validated: 1
EndChar

StartChar: uni03D0
Encoding: 976 976 655
Width: 500
Flags: W
HStem: 0 60<164.219 330.897> 360 60<110 239.226> 420 30<110 188.59> 640 60<145.216 249.931>
VStem: 50 60<114.004 360 450 591.853> 270 60<505.382 620.336> 390 60<118.933 257.336>
LayerCount: 2
Fore
SplineSet
110 450 m 1xbe
 196 450 270 498 270 560 c 0
 270 604 252 640 190 640 c 0
 148 640 116 610 110 450 c 1xbe
330 560 m 0
 330 502 326 427 110 420 c 1xde
 400 414 450 289 450 200 c 0
 450 69 336 0 250 0 c 0
 132 0 50 20 50 210 c 2
 50 490 l 2
 50 680 122 700 190 700 c 0
 278 700 330 648 330 560 c 0
110 360 m 1
 110 210 l 2
 110 86 180 60 250 60 c 0
 341 60 390 118 390 200 c 0
 390 285 252 360 110 360 c 1
EndSplineSet
Validated: 1
EndChar

StartChar: theta1
Encoding: 977 977 656
Width: 500
Flags: W
HStem: 0 60<169.103 335.781> 350 60<255.125 390> 640 60<210.878 342.636>
VStem: 50 60<133.926 280> 110 60<468.894 597.851> 390 60<114.004 350 410 573.664>
LayerCount: 2
Fore
SplineSet
390 410 m 1xec
 384 570 367 640 280 640 c 3
 187 640 170 564 170 520 c 3
 170 435 304 410 390 410 c 1xec
50 280 m 0xf4
 110 280 l 3xf4
 110 106 159 60 250 60 c 0
 320 60 390 86 390 210 c 2
 390 350 l 3
 174 350 110 411 110 520 c 3xec
 110 608 136 700 280 700 c 3
 348 700 450 680 450 490 c 2
 450 210 l 2
 450 20 368 0 250 0 c 0
 164 0 50 28 50 280 c 0xf4
EndSplineSet
Validated: 1
EndChar

StartChar: uniFB05
Encoding: 64261 64261 657
Width: 500
Flags: W
HStem: -10 50<685.756 948.861> 0 21G<50 110> 380 60<110 340 610 880> 640 60<166.253 525.848>
VStem: 50 60<0 380 440 589.512> 550 60<120.793 380 440 617.318>
LayerCount: 2
Fore
SplineSet
610 640 m 1x7c
 610 440 l 1
 880 440 l 1
 880 380 l 1
 610 380 l 1
 610 220 l 2
 610 49 732 40 790 40 c 3
 816 40 924 52 950 60 c 1
 950 10 l 1
 930 -6 823 -10 790 -10 c 3xbc
 715 -10 550 10 550 220 c 2
 550 610 l 1
 497 631 437 640 370 640 c 0
 116 640 110 617 110 440 c 1
 340 440 l 1
 340 380 l 1
 110 380 l 1
 110 0 l 1
 50 0 l 1
 50 440 l 2
 50 668 76 700 370 700 c 0
 461 700 578 680 610 640 c 1x7c
EndSplineSet
Validated: 1
Position2: "Latin ligatures positions" dx=0 dy=0 dh=500 dv=0
Ligature2: "Latin ligatures" f t
EndChar

StartChar: uniFB04
Encoding: 64260 64260 658
Width: 500
Flags: W
HStem: -11 42<1279.28 1448.84> 0 21G<50 110 540 600> 380 60<110 540 600 890> 640 60<224.099 507.355 719.662 1121.26>
VStem: 50 60<0 380 440 531.286> 540 60<0 380 440 542.297> 1180 60<78.1876 613.861>
LayerCount: 2
Fore
SplineSet
1240 640 m 1x7e
 1240 190 l 2
 1240 41 1306 31 1331 31 c 0
 1358 31 1416 33 1450 40 c 1
 1450 10 l 1
 1436 0 1356 -11 1330 -11 c 0xbe
 1264 -11 1180 20 1180 150 c 2
 1180 610 l 1
 1134 621 944 640 900 640 c 0
 668 640 600 576 600 440 c 1
 890 440 l 1
 890 380 l 1
 600 380 l 1
 600 0 l 1
 540 0 l 1
 540 380 l 1
 110 380 l 1
 110 0 l 1
 50 0 l 1
 50 440 l 1
 50 604 152 700 330 700 c 0
 416 700 566 676 600 640 c 1
 639 677 821 699 899 699 c 0
 937 699 1204 689 1240 640 c 1x7e
570 610 m 1
 526 639 405 640 330 640 c 0
 216 640 110 576 110 440 c 1
 540 440 l 1
 540 513 547 570 570 610 c 1
EndSplineSet
Validated: 1
Position2: "Latin ligatures positions" dx=0 dy=0 dh=1000 dv=0
Ligature2: "Latin ligatures" f f l
EndChar

StartChar: uniFB06
Encoding: 64262 64262 659
Width: 500
Flags: W
HStem: -10 60<171.01 360.378> -10 50<685.756 948.861> 220 60<177.345 366.703> 440 60<161.823 395.534 610 880> 640 60<477.383 539.104>
VStem: 550 60<120.793 440 500 628.744>
LayerCount: 2
Fore
SplineSet
450 380 m 1x7c
 414 431 325 440 270 440 c 0
 234 440 146 429 130 390 c 1
 140 333 160 280 260 280 c 0
 432 280 448 229 450 80 c 1
 434 35 346 -10 270 -10 c 0
 170 -10 76 49 50 100 c 1
 110 130 l 1
 136 79 192 50 270 50 c 0xbc
 324 50 382 65 400 120 c 1
 384 189 384 220 260 220 c 0
 136 220 94 263 70 390 c 1
 96 468 184 500 270 500 c 0
 320 500 362 492 395 478 c 1
 404 641 436 700 500 700 c 3
 534 700 610 667 610 590 c 2
 610 500 l 1
 880 500 l 1
 880 440 l 1
 610 440 l 1
 610 220 l 2
 610 49 732 40 790 40 c 0
 816 40 924 52 950 60 c 1
 950 10 l 1
 930 -6 823 -10 790 -10 c 0
 715 -10 550 10 550 220 c 2
 550 590 l 1
 548 615 530 640 500 640 c 3
 470 640 450 549 450 440 c 1
 450 380 l 1x7c
EndSplineSet
Validated: 1
LCarets2: 1 0 
Position2: "Latin ligatures positions" dx=0 dy=0 dh=500 dv=0
Ligature2: "Latin ligatures" s t
EndChar

StartChar: caron
Encoding: 711 711 660
Width: 500
VWidth: 0
Flags: MW
HStem: 570 150
DStem2: 160 720 80 720 0.749838 -0.661622<0 120.415> 250 640 250 570 0.749838 0.661622<0 120.415>
LayerCount: 2
Fore
SplineSet
250 640 m 4
 340 720 l 1
 420 720 l 1
 250 570 l 5
 80 720 l 5
 160 720 l 5
 250 640 l 4
EndSplineSet
Validated: 1
EndChar

StartChar: afii10059
Encoding: 1034 1034 661
Width: 500
Flags: W
HStem: 0 60<230 372.739> 320 60<110 170 230 343.792>
VStem: 50 60<0 320 380 600> 170 60<60 320 380 600> 390 60<79.1425 271.732>
LayerCount: 2
Fore
SplineSet
110 320 m 1
 110 0 l 1
 50 0 l 1
 50 600 l 1
 110 600 l 1
 110 380 l 1
 170 380 l 1
 170 600 l 1
 230 600 l 1
 230 380 l 1
 310 380 l 2
 423 380 450 278 450 140 c 3
 450 0 427 0 230 0 c 2
 170 0 l 1
 170 320 l 1
 110 320 l 1
310 320 m 1
 230 320 l 1
 230 60 l 3
 373 60 390 74 390 140 c 3
 390 269 365 290 310 320 c 1
EndSplineSet
Validated: 1
EndChar

StartChar: afii10107
Encoding: 1114 1114 662
Width: 500
Flags: W
HStem: 0 60<230 372.739> 270 60<110 170 230 360.583> 480 20G<50 110 170 230>
VStem: 50 60<0 270 330 500> 170 60<60 270 330 500> 390 60<79.1625 239.831>
LayerCount: 2
Fore
SplineSet
110 270 m 1
 110 0 l 1
 50 0 l 1
 50 500 l 1
 110 500 l 1
 110 330 l 1
 170 330 l 1
 170 500 l 1
 230 500 l 1
 230 330 l 1
 310 330 l 2
 423 330 450 254 450 140 c 0
 450 12 427 0 230 0 c 2
 170 0 l 1
 170 270 l 1
 110 270 l 1
310 270 m 1
 230 270 l 1
 230 60 l 3
 373 60 390 74 390 140 c 3
 390 248 364 254 310 270 c 1
EndSplineSet
Validated: 1
EndChar

StartChar: uni0480
Encoding: 1152 1152 670
Width: 500
Flags: W
HStem: -190 21G<390 450> 0 60<169.596 380.957> 540 60<179.309 358.188>
VStem: 50 70<272.568 495.67> 390 60<-190 -13.1256>
LayerCount: 2
Fore
SplineSet
390 -190 m 17
 390 -40 l 3
 390 -12 355 0 250 0 c 3
 67 0 50 44 50 505 c 1
 82 539 164 600 250 600 c 3
 335 600 412 580 450 540 c 1
 420 480 l 1
 376 521 305 540 250 540 c 3
 214 540 158 511 120 480 c 1
 120 92 140 60 250 60 c 3
 404 60 450 29 450 -40 c 3
 450 -190 l 9
 390 -190 l 17
EndSplineSet
Validated: 1
EndChar

StartChar: uni0481
Encoding: 1153 1153 671
Width: 500
Flags: W
HStem: -190 21G<390 450> 0 60<169.669 380.957> 440 60<179.309 358.188>
VStem: 50 70<173.294 395.67> 390 60<-190 -13.1256>
LayerCount: 2
Fore
SplineSet
390 -190 m 17
 390 -40 l 3
 390 -12 355 0 250 0 c 3
 67 0 51 30 50 405 c 1
 82 439 164 500 250 500 c 3
 335 500 412 480 450 440 c 1
 420 380 l 1
 376 421 305 440 250 440 c 3
 214 440 158 411 120 380 c 1
 120 102 140 60 250 60 c 3
 404 60 450 29 450 -40 c 7
 450 -190 l 13
 390 -190 l 17
EndSplineSet
Validated: 1
EndChar
